<?xml version="1.0" encoding="UTF-8"?>
<!DOCTYPE svg PUBLIC "-//W3C//DTD SVG 1.1//EN" "http://www.w3.org/Graphics/SVG/1.1/DTD/svg11.dtd">
<!-- Creator: CorelDRAW 2021 (64-Bit) -->
<svg xmlns="http://www.w3.org/2000/svg" xml:space="preserve" width="1272px" height="1177px" version="1.1" style="shape-rendering:geometricPrecision; text-rendering:geometricPrecision; image-rendering:optimizeQuality; fill-rule:evenodd; clip-rule:evenodd"
viewBox="0 0 1272 1177.14"
 xmlns:xlink="http://www.w3.org/1999/xlink"
 xmlns:xodm="http://www.corel.com/coreldraw/odm/2003">
 <defs>
  <style type="text/css">
   <![CDATA[
    .str0 {stroke:#494A4B;stroke-width:0.9;stroke-miterlimit:10}
    .fil0 {fill:none;fill-rule:nonzero}
    .fil1 {fill:#494A4B;fill-rule:nonzero}
   ]]>
  </style>
 </defs>
 <g id="Layer_x0020_1">
  <metadata id="CorelCorpID_0Corel-Layer"/>
  <g id="_2305631576304">
   <path class="fil0" d="M1207.7 602.4c0.14,-3.25 0.63,-6.03 3.06,-8.61 11.36,-12.07 17.54,-26.56 20.43,-42.91 3.51,-19.92 -0.2,-37.73 -13.6,-52.97 -2.92,-3.32 -3.53,-5.83 -2.3,-9.86 4.95,-16.07 8.48,-32.1 1.8,-48.81 -6.33,-15.98 -16.84,-27.39 -33.41,-31.92 -5.81,-1.58 -8.5,-4.01 -10.52,-9.43 -27.1,-72.68 -67.67,-136.91 -122.4,-191.92 -105.87,-106.44 -234.58,-159.98 -354.3,-164.46 -118.93,-2.19 -203.62,16.65 -283.63,55.85 -72.01,35.3 -133.5,84.09 -184.18,146.34 -59.36,72.92 -97.44,155.71 -114.46,248.12 -10.75,58.35 -11.41,116.93 -3.01,175.63 0.71,5.01 -0.37,8.69 -3.58,12.6 -12.1,14.61 -24.03,29.51 -33.39,45.99 -24.61,43.28 -42.35,88.2 -29.3,139.51 9.69,38.03 34.37,61.21 71.25,72.55 33.18,10.21 65.09,3.44 96.36,-7.66 8.57,-3.03 12.6,-0.97 17.69,5.23 62.78,76.41 140.68,131.92 233.23,166.41 89.76,33.5 182.31,42.85 277.13,28.39 91.43,-13.97 174.44,-48.55 248.14,-104.21 96.16,-72.62 161.67,-167.09 196.75,-282.53 0.89,-2.93 1.39,-5.88 4.49,-7.96 12.42,-8.32 21.31,-20.05 29.38,-32.33 13.01,-19.77 12.38,-49.84 -9.11,-64.66 -3.19,-2.21 -4.34,-4.76 -3.99,-8.75 0.8,-9.18 1.13,-18.41 1.47,-27.63z"/>
   <path class="fil1" d="M696.46 41.51c-118.93,-2.19 -203.62,16.65 -283.63,55.85 -72.01,35.3 -133.5,84.09 -184.18,146.34 -59.36,72.92 -97.44,155.71 -114.46,248.12 -10.75,58.35 -11.41,116.93 -3.01,175.63 0.71,5.01 -0.37,8.69 -3.58,12.6 -12.1,14.61 -24.03,29.51 -33.39,45.99 -24.61,43.28 -42.35,88.2 -29.3,139.51 9.69,38.03 34.37,61.21 71.25,72.55 33.18,10.21 65.09,3.44 96.36,-7.66 8.57,-3.03 12.6,-0.97 17.69,5.23 62.78,76.41 140.68,131.92 233.23,166.41 89.76,33.5 182.31,42.85 277.13,28.39 91.43,-13.97 174.44,-48.55 248.14,-104.21 96.16,-72.62 161.67,-167.09 196.75,-282.53 0.89,-2.93 1.39,-5.88 4.49,-7.96 12.42,-8.32 21.31,-20.05 29.38,-32.33 13.01,-19.77 12.38,-49.84 -9.11,-64.66 -3.19,-2.21 -4.34,-4.76 -3.99,-8.75 0.8,-9.18 1.13,-18.41 1.47,-27.63 0.14,-3.25 0.63,-6.03 3.06,-8.61 11.36,-12.07 17.54,-26.56 20.43,-42.91 3.51,-19.92 -0.2,-37.73 -13.6,-52.97 -2.92,-3.32 -3.53,-5.83 -2.3,-9.86 4.95,-16.07 8.48,-32.1 1.8,-48.81 -6.33,-15.98 -16.84,-27.39 -33.41,-31.92 -5.81,-1.58 -8.5,-4.01 -10.52,-9.43 -27.1,-72.68 -67.67,-136.91 -122.4,-191.92 -105.87,-106.44 -234.58,-159.98 -354.3,-164.46zm-44.51 1135.27c-24.11,1.22 -50.24,-0.76 -76.15,-4.53 -14.88,-2.17 -29.56,-5.88 -44.19,-9.45 -20.51,-5.03 -40.9,-10.69 -61.26,-16.35 -43.36,-12.06 -83.82,-30.31 -121.92,-53.97 -47.18,-29.27 -90.87,-63.12 -127.99,-104.58 -8.72,-9.73 -15.4,-14.63 -28.56,-9.88 -10.34,3.73 -21.7,4.96 -32.72,6.48 -16.31,2.25 -31.83,-2.69 -47.62,-5.88 -32.3,-6.55 -58.08,-22.92 -78.94,-48.13 -15.85,-19.21 -23.16,-41.66 -29.1,-65.36 -6.55,-26.17 -2.99,-50.91 3.21,-76.49 6.52,-27.06 13.85,-53.52 28.49,-77.28 9.02,-14.64 19.12,-28.67 29.53,-42.35 3.75,-4.92 4.55,-9.47 3.9,-15.03 -5.85,-51.23 -5.09,-102.23 3.49,-153.21 5.82,-34.36 13.82,-68.13 24.12,-101.39 12.14,-39.16 29.51,-75.95 50.71,-110.99 24.53,-40.57 53,-78.19 85.97,-112.25 21.62,-22.36 45.39,-42.44 70.63,-60.67 11.1,-8.05 22.14,-16.31 33.89,-23.33 29.57,-17.65 59.84,-34.09 91.83,-47.1 29.87,-12.14 60.64,-21.34 92.1,-28.56 28.54,-6.54 57.23,-10.9 86.32,-14.07 24.53,-2.67 48.92,-2.77 73.31,-1.97 32.4,1.08 64.49,5.4 96.26,12.68 18.12,4.14 36.16,8.55 53.96,13.84 22.92,6.78 44.95,16.04 66.81,25.58 49.54,21.62 93.71,51.63 136.56,84.41 38.61,29.58 70.6,64.99 99.28,103.41 28.41,38.01 52.39,78.97 69.76,123.46 1.78,4.49 4.05,7.96 8.8,10.87 24.31,14.89 39.16,36.66 44.73,64.83 2.45,12.47 5.36,24.59 0.83,37.31 -1.69,4.78 -0.74,10 3.1,14.55 4.18,4.97 3.71,11.95 5.9,17.83 7.17,19.43 6.11,38.66 0.19,58.24 -4.2,13.85 -4.75,28.84 -16.09,40.09 -4.23,4.23 -3.36,10.36 0.48,15.92 15.26,22.13 18.86,45.44 13.07,72.55 -5.81,27.25 -22.5,45.68 -39.91,64.57 -5.84,6.35 -6.81,14.44 -9.31,21.88 -15.67,46.81 -37.62,90.44 -65.37,131.22 -21.86,32.16 -45.56,62.75 -73.16,90.25 -18.82,18.75 -39.11,35.73 -60.15,51.93 -6.05,4.66 -11.99,9.47 -18.32,13.76 -38.2,25.87 -77.73,49.2 -121.16,65.6 -30.77,11.62 -62.06,20.83 -94.11,28.1 -42.54,9.67 -85.43,14.76 -131.2,13.46z"/>
   <path class="fil1" d="M408.8 653.31c23.22,-17.39 40.07,-36.99 47,-63.85 0.85,-3.3 1.52,-6.68 0.48,-10.22 -2.12,-7.11 -6.03,-8.8 -12.12,-4.7 -2.34,1.56 -4.49,3.6 -6.35,5.74 -11.02,12.49 -18.11,27.24 -23.46,42.76 -3.13,9.09 -6.77,18.28 -5.55,30.27zm-185.59 48.03c-0.82,-5.49 1.71,-10.58 -1.93,-12.21 -3.4,-1.54 -6.29,3.02 -9.11,5.29 -16.93,13.82 -32.3,29.17 -46.38,45.84 -24.19,28.62 -40.11,60.84 -43.08,98.7 -0.8,9.98 0.39,10.8 9.82,7.55 18.37,-6.31 33.85,-17.09 46.73,-31.4 29.51,-32.85 38.81,-73.46 43.95,-113.77zm386.74 -97.85c5.44,-8.5 10.62,-17.18 16.33,-25.5 15.93,-23.23 36.32,-41.51 61.42,-54.41 14.23,-7.33 25.37,-6.55 34.2,2.17 6.68,6.59 7.54,14.51 6.09,23.12 -2.1,12.33 -7.54,23.52 -12.03,35.04 -2.6,6.7 -5.51,13.22 -7.09,20.33 -1.63,7.29 -1.48,13.21 5.09,18.52 4.08,3.3 5.4,9.04 -0.95,11.95 -15.31,6.98 -31.16,12.16 -48.4,9.63 -18.84,-2.78 -26.91,-15.7 -21.4,-33.66 0.63,-2.06 2.49,-4.05 0.5,-7.56 -5.88,5.42 -9.41,12.07 -13.1,18.56 -11.79,20.68 -20.18,42.58 -23.78,66.24 -1.82,11.9 -1.28,23.44 2.62,34.95 3.69,10.91 -1.65,17.63 -12.79,16.96 -16.22,-0.98 -32.09,-3.34 -46.71,-11.15 -11.47,-6.11 -18.6,-15.09 -20.01,-28.29 -0.26,-2.43 1.04,-6.05 -1.67,-7.05 -3.17,-1.17 -4.66,2.43 -6.44,4.49 -16.87,19.49 -35.69,36.71 -58.33,49.28 -19.51,10.84 -39.92,17.59 -62.83,13.75 -33.38,-5.55 -51.02,-25.26 -52.48,-59.19 -1,-23.6 4.97,-45.65 14.25,-67.01 4.77,-10.99 9.69,-21.89 15.46,-33.3 -10.93,4.12 -22.01,7.91 -32.77,12.45 -13.24,5.59 -26.15,12.05 -39.39,17.6 -6.23,2.61 -7.9,5.88 -6.1,12.51 6.62,24.66 9.5,49.85 7.96,75.35 -2.67,44.69 -12.18,87.23 -41.07,123.25 -32.52,40.59 -73.37,63.96 -126.88,60.67 -32.44,-2.02 -58.7,-29.02 -60.07,-61.56 -1.62,-38.55 12.19,-72.33 33.07,-103.58 25.95,-38.86 57.81,-72.23 96.21,-99.09 4.42,-3.1 5.53,-6.38 3.77,-11.73 -9.08,-27.8 -23.68,-52.8 -37.47,-78.39 -32.41,-60.21 -0.54,-127.99 61.19,-144.47 20.58,-5.51 40.44,-8.13 60.71,0.07 9.02,3.64 16.83,9.02 22.71,16.58 3.68,4.75 5.87,4.25 8.93,-0.06 10.21,-14.27 20.12,-28.73 27.58,-44.65 7.35,-15.67 15,-17.73 28.8,-7.39 13.35,10.04 20.12,30.68 13.61,49.35 -15.5,44.45 -43.45,78.67 -86.82,98.83 -9.54,4.45 -19.34,5.01 -28.75,-1.6 -9.06,-6.38 -11.19,-13.45 -5.18,-22.84 6.44,-10.04 9.89,-20.75 8.82,-32.63 -0.73,-8.39 -3.31,-15.94 -12.72,-18.39 -8.81,-2.32 -17.87,1.48 -22.9,9.85 -11.47,19.12 -13.94,39.29 -6.53,60.54 9.56,27.23 26.11,51.17 36.78,77.9 1.67,4.19 4.77,4.38 8.5,2.91 37.68,-14.96 76.8,-24.11 116.96,-29.1 3.79,-0.48 6.17,-2.75 8.8,-4.97 15.31,-12.98 31.44,-24.71 52.12,-26.9 24.94,-2.65 46.28,7.95 44.84,38.31 -1.21,25.61 -13.31,46.86 -28.83,66.18 -17.29,21.48 -40.77,33.34 -67.11,39.59 -7.09,1.69 -7.79,5.12 -6.68,11.01 2.62,14.1 10.56,20.91 25.06,21.12 9.13,0.16 17.68,-2.32 25.83,-6.13 25.78,-12.01 48.57,-28.36 68.58,-48.53 2.6,-2.6 4.75,-5.51 5.47,-9.54 6.83,-39.14 22.39,-75.41 36.97,-112.01 2.88,-7.22 7.95,-10.82 16.17,-9.85 12.99,1.52 24.44,5.62 33.5,15.7 6.51,7.22 6.98,14.7 3.36,23.07 -4.99,11.58 -10.12,23.12 -14.96,34.78 -0.93,2.26 -0.78,4.97 -1.13,7.46 0.37,0.15 0.74,0.3 1.11,0.46z"/>
   <path class="fil1" d="M839.16 667.08c-6.61,10.3 -12.66,20.99 -19.93,30.77 -10.19,13.7 -21.27,26.58 -39.98,28.95 -31.03,3.88 -52.5,-13.27 -55.94,-44.54 -3.17,-28.73 2.73,-56.22 10.51,-83.5 7.92,-27.71 18,-54.6 30.97,-80.4 6.35,-12.62 9.95,-14.77 23.78,-12.17 5.71,1.07 11.36,2.65 16.16,5.88 17.04,11.47 20.6,21.4 12.75,38.27 -10.95,23.5 -20.21,47.75 -24.14,73.59 -1.56,10.26 -2.3,20.71 1.67,30.71 3.43,8.56 8.18,9.82 15.05,3.55 14.7,-13.44 23.94,-30.81 32.85,-48.2 12.75,-24.78 24.61,-50.02 37.32,-74.85 5.9,-11.54 13.18,-22.22 22.48,-31.51 6.12,-6.07 12.58,-7.19 20.36,-4.29 19.06,7.11 24.79,22.53 16.66,41.13 -16.4,37.58 -30.56,75.85 -28.82,117.92 0.74,17.62 4.57,34.1 16.5,48.07 5.72,6.7 4.66,9.32 -3.17,12.75 -21.61,9.47 -43.69,11.84 -66.45,4.49 -8.31,-2.67 -12.65,-8.14 -13.93,-16.79 -1.9,-13.03 -2.64,-26.12 -2.36,-39.33 -0.78,-0.17 -1.56,-0.33 -2.34,-0.5z"/>
   <path class="fil1" d="M1077.26 657.65c1.26,-22.49 6.14,-44.45 9.65,-66.61 0.8,-4.99 2.06,-9.3 -5.81,-9.93 -5.96,-0.5 -8.02,-5.96 -8.26,-11.6 -0.7,-17.39 7.72,-29.79 22.42,-37.71 5.2,-2.82 7.28,-6.31 8.67,-11.49 3.97,-14.7 8.09,-29.43 14.42,-43.32 8.46,-18.59 23.27,-28.89 43.56,-30.36 12.51,-0.91 18.26,6.09 15.42,18.45 -2.45,10.65 -6.12,20.99 -9.02,31.53 -1.76,6.35 -2.99,12.88 -4.66,19.28 -1.28,5 0.08,7.87 5.59,8 0.58,0.02 1.15,0.13 1.73,0.13 18,0.15 22.25,5.83 16.68,26.1 -3.95,14.34 -14.64,21.66 -28.8,23.68 -5.27,0.76 -7.43,2.93 -8.34,7.85 -4.17,22.55 -4.62,45.3 -2.59,67.98 1.46,16.26 11.54,23.5 30.41,23.37 6.37,-0.04 8.52,1.91 4.94,7.24 -13.97,20.82 -32.4,35.32 -58.39,36.19 -23.79,0.76 -41.92,-15.2 -46.3,-38.98 -1.19,-6.55 -1.6,-13.17 -1.32,-19.8z"/>
   <path class="fil1" d="M930.44 669.25c-0.41,-44.62 13.58,-84.69 26.7,-124.92 4.9,-15.04 12.05,-29.22 18.88,-43.47 6.44,-13.4 9.02,-14.88 23.62,-12.79 11.14,1.6 20.59,7.04 28.4,15.11 7.5,7.72 6.7,16.13 2.45,25.43 -13.31,29.17 -24.72,59.09 -29.18,90.99 -3.26,23.22 -4.3,46.64 7.39,68.38 2.43,4.51 5.94,8.44 8.69,12.8 2.41,3.83 3.04,7.11 -2.23,9.75 -19.86,10.02 -40.66,12.67 -62.1,7.38 -16.2,-3.99 -20.06,-9.15 -21.51,-25.94 -0.71,-8.02 -0.8,-16.11 -1.11,-22.72z"/>
   <path class="fil1" d="M1059.33 390.32c11.49,0.07 22.57,0.98 32.18,8.02 10.06,7.42 11.21,17.41 2.42,26.37 -13.18,13.42 -29.22,23 -45.16,32.7 -8.74,5.31 -17.93,10.19 -24.11,18.84 -2.17,3.01 -5.31,3.01 -8.52,3.03 -27.52,0.11 -41.53,-23.54 -28.1,-48.41 15.19,-28.23 41.28,-38.08 71.29,-40.55z"/>
   <path class="fil1" d="M480.5 199.99l0.46 -25.63 18.04 20.05 -18.5 5.58zm44 -21.38c-6.9,-9.74 -30.42,-36.91 -30.42,-36.91l-36.95 13.38c0,0 0.45,28.8 0.04,43.39 -0.41,14.61 2.43,51.91 2.43,51.91l23.11 -9.33 -0.8 -19.86 27.17 -10.56 12.88 16.14 30.31 -9.55c0,0 -20.88,-28.88 -27.77,-38.61z"/>
   <path class="fil1" d="M397.85 208.42l23.41 -20.29c0,0 -6.44,-8.5 -21.22,-8.5 -14.77,0 -35.39,10.75 -44.19,18.3 -8.81,7.54 -23.9,21.4 -20.54,39.85 3.34,18.45 16.13,16.76 23.27,16.98 7.13,0.22 35.8,-8.83 40.68,-11.28 4.87,-2.43 11.49,-3.62 12.9,-1.56 1.41,2.04 2.36,5.73 -1.11,8.48 -3.47,2.75 -14.16,12.42 -21.23,10.62 -7.09,-1.82 -8.73,-3.53 -8.73,-3.53l-24.14 22.96c0,0 7.7,9.26 25.63,6.29 17.93,-2.99 42.41,-18.34 49.42,-24.72 12.79,-11.64 15.83,-23.59 12.85,-34.73 -2.88,-10.89 -9.73,-16.98 -23.11,-16.98 -13.36,0 -22.01,2.67 -31.29,7.22 -9.28,4.57 -15.8,6.29 -19.58,5.9 -3.77,-0.39 -3.08,-8.18 3.06,-11.95 6.14,-3.77 13.86,-6.77 17.87,-5.12 3.99,1.67 6.05,2.06 6.05,2.06z"/>
   <path class="fil1" d="M828.14 193.76l16.85 -19.34 0.89 26.98 -17.74 -7.64zm47.45 11.93c0.97,-11.88 0.45,-47.81 0.45,-47.81l-36.88 -13.53c0,0 -18.19,22.33 -27.88,33.26 -9.72,10.91 -31.55,41.28 -31.55,41.28l23.7 7.74 12.16 -15.74 27.58 9.41 -0.5 20.62 29.34 12.21c0,0 2.6,-35.54 3.58,-47.44z"/>
   <polygon class="fil1" points="563.05,214.34 544.81,125.22 593.73,116.68 615.52,162.24 629.12,113.78 678.86,114.82 675.32,206.32 644.08,204.87 644.36,142.72 627.01,205.32 604.83,206.88 580.87,148.1 587.96,207.75 "/>
   <path class="fil1" d="M725.78 152.52l0.93 -14.74c0,0 28.54,0 27.76,10.56 -0.78,10.54 -28.69,4.18 -28.69,4.18zm24.05 30.86c-1.26,11.16 -27.45,5.9 -27.45,5.9l0 -15.99c0,0 28.68,-1.08 27.45,10.09zm17.82 -59.54c-14.9,-5.6 -73.2,-8.07 -73.2,-8.07l-4.97 90.57c0,0 69.8,7.13 74.77,6.66 4.96,-0.46 15.8,-7.29 18.45,-21.71 2.62,-14.42 -15.2,-22.96 -15.2,-22.96 0,0 21.55,-2.47 22.18,-17.37 0.61,-14.87 -7.13,-21.55 -22.03,-27.12z"/>
   <path class="fil1" d="M923.68 178.22c0.91,0 33.78,20.79 33.78,20.79l-36.19 56.7 36.19 24.72 -12.05 16.89 -62.73 -37.99 41 -81.11z"/>
   <path class="fil1 str0" d="M438.44 957.37c-4.21,7.53 -25.74,-6.44 -25.74,-6.44l6.22 -11.55c0,0 23.72,10.49 19.52,17.99zm-14.42 32.74c-5.86,8.11 -28.97,-6.91 -28.97,-6.91l8.69 -13.82c0,0 26.13,12.62 20.28,20.73zm44.84 -43.38c-6.16,-10.5 -65.25,-42.05 -65.25,-42.05l-50.04 79.67c0,0 50.63,29.22 55.44,31.44 4.8,2.19 31.62,14.39 45.23,-2.6 13.62,-17.03 -8.41,-35.24 -8.41,-35.24 0,0 4.27,-0.06 13.73,-1.6 11.81,-1.91 15.5,-19.04 9.3,-29.62z"/>
   <path class="fil1" d="M493.03 949.48l29.36 11.08 -15.28 53.9c0,0 -5.68,15.12 7.63,18.56 13.33,3.45 20.08,0.92 22.77,-9.58 2.68,-10.47 12.12,-56.14 12.12,-56.14l25.3 5.23 -9.74 58.69c0,0 -2.53,22.77 -23.2,25.16 -20.66,2.4 -50.26,-6.96 -61.08,-15.12 -10.93,-8.24 -13.92,-18.86 -8.54,-37.14 5.4,-18.26 20.66,-54.64 20.66,-54.64z"/>
   <polygon class="fil1 str0" points="593.21,973.92 622.59,977.49 621.01,1011.45 649.8,978.27 678.4,978.49 652.6,1012.45 690.33,1070.04 647.72,1070.04 629.75,1036.08 618.23,1049.78 617.43,1070.04 580.31,1066.65 "/>
   <polygon class="fil1" points="730.22,972.79 761.51,965.42 778.34,1031.83 822.64,1019.43 830.46,1042.61 746.9,1064.46 "/>
   <polygon class="fil1" points="812.23,949.85 841.2,938.2 880.29,1023.29 844.47,1038.23 "/>
   <polygon class="fil1" points="901.28,1014.94 858.07,930.44 885.28,917.13 943.32,939.7 913.55,899.78 935.39,883.63 991.31,957.96 968,976.5 900.85,954.21 927.76,1000.72 "/>
  </g>
 </g>
</svg>
