<?xml version="1.0" encoding="UTF-8"?>
<!DOCTYPE svg PUBLIC "-//W3C//DTD SVG 1.1//EN" "http://www.w3.org/Graphics/SVG/1.1/DTD/svg11.dtd">
<!-- Creator: CorelDRAW 2021 (64-Bit) -->
<svg xmlns="http://www.w3.org/2000/svg" xml:space="preserve" width="1851px" height="809px" version="1.1" style="shape-rendering:geometricPrecision; text-rendering:geometricPrecision; image-rendering:optimizeQuality; fill-rule:evenodd; clip-rule:evenodd"
viewBox="0 0 1851 809.24"
 xmlns:xlink="http://www.w3.org/1999/xlink"
 xmlns:xodm="http://www.corel.com/coreldraw/odm/2003">
 <defs>
  <style type="text/css">
   <![CDATA[
    .fil1 {fill:none;fill-rule:nonzero}
    .fil0 {fill:#494A4B;fill-rule:nonzero}
   ]]>
  </style>
 </defs>
 <g id="Layer_x0020_1">
  <metadata id="CorelCorpID_0Corel-Layer"/>
  <g id="_2306119496832">
   <path class="fil0" d="M98.84 477.36c-7.99,1.72 -15.27,0.99 -21.25,-2.12 -5.98,5.7 -13.26,9.65 -21.25,11.46 -15.8,3.55 -31.57,7.22 -47.34,10.97 0,-11.57 0,-23.13 0,-34.7 5.87,-1.3 11.74,-2.6 17.61,-3.87 3.3,-0.73 5.92,-2.42 8.55,-5.53 3.18,-3.81 3.63,-6.49 3.63,-8.63 0.03,-54.11 0.09,-108.26 0.15,-162.4 0,-4.97 -0.88,-9.43 -2.71,-13.63 -1.7,-3.86 -4.4,-7.22 -8.33,-10.18 -0.65,-0.51 -1.29,-1.02 -1.94,-1.53 -2.2,-4.03 -4.43,-8.07 -6.63,-12.16 2.79,-3.02 5.58,-6.06 8.38,-9.08 7.67,-7.99 11.28,-16.62 11.28,-27.34 0.06,-53.89 0.09,-107.81 0.14,-161.7 0,-3.39 -1.01,-5.76 -3.41,-7.9 -2.68,-2.4 -5.42,-3.47 -8.89,-3.41 -5.92,0.11 -11.85,0.22 -17.8,0.34 0,-11.83 0,-23.65 0,-35.47 78.43,-0.08 156.9,-0.14 235.33,-0.23 -0.02,6.47 -0.05,12.9 -0.08,19.36 -0.06,7.28 -2.48,13.99 -7.14,19.69 4.6,5.59 6.97,12.19 6.94,19.5 -0.08,18.62 -0.17,37.24 -0.25,55.86 -12.67,0.57 -25.31,1.16 -37.98,1.75 0.31,-4.54 0.62,-9.11 0.93,-13.65 0.93,-13.74 -0.93,-25.79 -5.56,-35.95 -0.05,-0.08 -0.08,-0.2 -0.14,-0.31 -0.03,-0.08 -0.08,-0.2 -0.11,-0.31 -3.13,-8.07 -9.45,-15.71 -18.73,-22.85 -8.61,-6.6 -22.38,-9.88 -40.94,-9.6 -7.87,0.12 -15.75,0.26 -23.62,0.37 -0.17,62.02 -0.34,124.03 -0.51,186.02 9.34,-0.91 18.68,-1.81 28.05,-2.68 7.98,-0.74 14.22,-2.94 19.07,-6.72 4.6,-3.61 5.25,-6.29 5.25,-8.43 0.03,-8.69 0.06,-17.38 0.08,-26.07 12.36,-0.93 24.72,-1.84 37.08,-2.71 -0.06,11.71 -0.09,23.42 -0.14,35.12 -0.03,7.51 -2.4,14.45 -6.86,20.38 4.46,5.61 6.72,11.87 6.69,18.7 -0.06,11.94 -0.11,23.87 -0.14,35.81 -12.36,1.41 -24.69,2.87 -37.02,4.37 0.03,-8.69 0.06,-17.38 0.08,-26.07 0,-2.63 -0.62,-5.42 -5.19,-8.13 -4.79,-2.79 -11.03,-3.78 -19.01,-2.9 -9.34,0.98 -18.68,2.03 -28.02,3.07 -0.17,58.52 -0.31,117.06 -0.48,175.58 0,2.06 0.42,4.51 3.64,6.88 2.6,1.95 5.25,2.54 8.55,1.9 5.89,-1.13 11.79,-2.23 17.69,-3.33 -0.03,10.86 -0.09,21.72 -0.11,32.58 -15.86,3.19 -31.72,6.49 -47.54,9.88z"/>
   <path class="fil0" d="M230.2 19.72c0,5.79 -2.29,10.7 -6.83,14.79 -1.77,1.58 -3.53,3.18 -5.3,4.76 1.75,1.78 3.5,3.53 5.25,5.28 4.51,3.95 6.74,8.8 6.71,14.59 -0.06,14.44 -0.14,28.92 -0.2,43.39 -3.01,0.14 -6.01,0.25 -9.02,0.4 1.07,-15.69 -1.13,-29.43 -6.61,-41.39 -3.97,-10.22 -11.56,-19.59 -22.82,-28.25 -11.29,-8.66 -27.96,-12.98 -50.06,-12.78 -9.02,0.09 -18.08,0.17 -27.11,0.28 -2.51,0 -4.91,0.99 -7.16,2.88 -2.26,1.89 -3.39,4.26 -3.42,7.08 -0.14,64.78 -0.31,129.56 -0.45,194.34 0,2.82 1.1,5.05 3.36,6.69 2.23,1.66 4.6,2.34 7.11,2.09 10.49,-1.1 21.02,-2.15 31.51,-3.19 11.01,-1.1 20.15,-4.51 27.43,-10.21 7.28,-5.67 10.94,-12.11 10.97,-19.36 0,-4.32 0.03,-8.63 0.03,-12.95 3.02,-0.23 6.04,-0.45 9.03,-0.68 -0.03,7.45 -0.06,14.9 -0.08,22.35 -0.03,5.9 -2.07,10.81 -6.07,14.81 -2,2.01 -4.04,4.01 -6.04,6.01 2,1.61 4.01,3.25 5.98,4.86 4.01,4.14 5.98,8.69 5.95,13.65 -0.02,7.67 -0.05,15.35 -0.08,23.05 -2.99,0.34 -6.01,0.68 -9,1.02 0,-4.32 0.03,-8.64 0.03,-12.92 0.05,-7.74 -3.56,-13.69 -10.81,-17.98 -7.22,-4.26 -16.36,-5.87 -27.37,-4.74 -10.49,1.07 -20.99,2.18 -31.48,3.27 -2.51,0.29 -4.88,1.47 -7.14,3.59 -2.26,2.12 -3.39,4.6 -3.39,7.42 -0.14,60.07 -0.31,120.16 -0.45,180.26 0,6.57 2.6,11.79 7.82,15.69 5.22,3.86 11.28,5.08 18.28,3.69 1.24,-0.22 2.48,-0.48 3.72,-0.73 0,2.09 0,4.18 -0.02,6.26 -11.2,2.23 -22.41,4.52 -33.61,6.83 -5.95,1.24 -10.92,0.42 -14.89,-2.54 -1.98,-1.46 -3.98,-2.96 -5.96,-4.46 -2.25,2.37 -4.48,4.74 -6.71,7.14 -4.01,4.66 -8.97,7.62 -14.93,8.95 -11.17,2.42 -22.34,4.93 -33.49,7.47 0,-2.2 0,-4.37 0,-6.57 1.24,-0.28 2.48,-0.57 3.73,-0.85 6.94,-1.55 13.03,-5.44 18.22,-11.62 5.22,-6.18 7.85,-12.58 7.85,-19.33 0.08,-53.77 0.14,-107.55 0.19,-161.33 0.03,-6.74 -1.21,-12.92 -3.69,-18.65 -2.51,-5.7 -6.49,-10.63 -11.97,-14.84 -0.25,-0.48 -0.5,-0.93 -0.76,-1.38 0.26,-0.25 0.51,-0.54 0.76,-0.82 10.5,-10.86 15.75,-23.39 15.78,-37.78 0.05,-53.55 0.11,-107.1 0.19,-160.65 0,-7.19 -2.62,-13.15 -7.9,-17.89 -5.24,-4.74 -11.39,-7.11 -18.42,-7.02 -1.27,0 -2.51,0.02 -3.78,0.02 0,-2.42 0,-4.85 0,-7.3 69.04,-0.51 138.11,-0.99 207.18,-1.39 -0.03,2.23 -0.03,4.46 -0.06,6.69z"/>
   <path class="fil0" d="M385.75 269.11c-10.92,-39.08 -21.87,-78.58 -32.82,-118.5 -11.56,41.11 -23.1,82.67 -34.64,124.76 22.45,-2.2 44.97,-4.29 67.46,-6.26zm104.45 144.85c-10.47,1.16 -20.35,-0.06 -29.49,-3.7 -8.83,5.73 -18.93,9.37 -30.13,10.78 -12.5,1.58 -24.97,3.22 -37.44,4.91 0.05,-9.9 0.11,-19.8 0.17,-29.71 5.19,-0.68 10.38,-1.32 15.57,-1.95 3.3,-0.42 5.42,-1.55 7.56,-4 2.12,-2.48 2.2,-3.87 1.58,-5.59 -0.03,-0.08 -0.05,-0.19 -0.08,-0.28 -8.07,-28.55 -16.11,-57.3 -24.15,-86.28 -28.02,2.65 -56.04,5.56 -84,8.63 -8.57,31.43 -17.12,63.15 -25.67,95.14 -0.45,2.01 -0.26,3.81 2.09,6.04 2.08,2 4.2,2.57 7.5,2.09 7.17,-1.1 14.36,-2.15 21.53,-3.19 -0.06,10.16 -0.09,20.34 -0.14,30.5 -7.45,1.16 -14.87,2.34 -22.32,3.56 -10.38,1.69 -20.2,0.81 -29.32,-2.71 -8.77,6.51 -18.81,10.8 -29.96,12.78 -9.17,1.63 -18.34,3.3 -27.48,4.99 0.03,-10.61 0.08,-21.19 0.14,-31.8 6.66,-1.15 13.32,-2.28 19.98,-3.38 5.39,-0.9 9.79,-2.99 13.85,-6.55 4.12,-3.61 6.63,-7.39 7.9,-11.96 13.52,-52.25 27.03,-103.66 40.6,-154.33 0.9,-3.13 0.82,-6.24 -0.22,-9.45 -1.08,-3.25 -2.94,-5.9 -5.68,-8.05 -3.49,-2.76 -6.99,-5.53 -10.46,-8.29 8.91,-8.15 17.86,-16.22 26.8,-24.21 3.3,-3.78 5.47,-7.31 6.41,-10.49 14.27,-51.86 28.58,-102.9 42.88,-153.24 0.2,-1.21 -0.06,-1.75 -0.7,-2.45 -0.43,-0.48 -0.65,-0.73 -2.09,-0.73 -8.21,0.11 -16.42,0.19 -24.61,0.31 0.06,-10.39 0.12,-20.77 0.17,-31.15 8.19,0 16.4,0 24.61,0 10.41,0 20.25,2.45 29.42,7.28 8.81,-4.88 18.91,-7.31 30.11,-7.34 8.21,0 16.39,0 24.6,0 -0.05,10.02 -0.11,20.03 -0.17,30.02 -8.46,0.09 -16.9,0.17 -25.36,0.26 -1.69,0.02 -2.01,0.33 -2.37,0.73 -0.4,0.39 -0.68,0.68 -0.45,1.83 13.51,49.24 27.03,97.85 40.57,145.9 0.87,3.47 2.79,6.29 5.81,8.6 8.92,6.89 17.86,13.72 26.78,20.52 -3.7,3.21 -7.4,6.46 -11.12,9.7 -5.64,4.94 -7.48,10.47 -5.95,17.92 13,45.48 26.04,90.48 39.07,135.09 1.25,3.92 3.76,6.91 7.68,9.2 3.78,2.2 8.01,2.96 13.31,2.45 4.97,-0.48 9.91,-0.96 14.87,-1.41 -0.05,9.54 -0.11,19.04 -0.17,28.58 -14.02,1.41 -28.04,2.88 -42.03,4.43z"/>
   <path class="fil0" d="M403.52 279.58c-16.73,-59.39 -33.46,-119.69 -50.19,-181.03 -17.66,62.53 -35.33,126.15 -52.99,191.04 34.37,-3.64 68.76,-6.97 103.18,-10.01zm114.72 114.32c0,1.81 -0.03,3.64 -0.03,5.47 -9.31,0.93 -18.65,1.89 -27.96,2.91 -10.58,1.13 -20.37,-1.02 -29.37,-6.6 -0.25,0.03 -0.51,0.05 -0.76,0.08 -8.1,7.51 -17.92,11.96 -29.48,13.4 -7.79,0.94 -15.58,1.92 -23.37,2.94 0,-1.89 0,-3.78 0.03,-5.64 0.48,-0.09 0.99,-0.15 1.5,-0.2 7.53,-0.96 13.71,-4.21 18.51,-9.76 4.82,-5.56 6.23,-11.09 4.26,-16.68 -8.86,-31.35 -17.72,-62.92 -26.58,-94.71 -35.44,3.16 -70.82,6.65 -106.17,10.49 -9.45,34.82 -18.91,70 -28.33,105.58 -1.55,6.38 0.06,11.82 4.8,16.34 4.71,4.48 10.83,6.12 18.36,4.96 2.49,-0.39 5,-0.79 7.51,-1.16 0,1.95 -0.03,3.9 -0.03,5.85 -2.76,0.42 -5.53,0.87 -8.27,1.29 -10.52,1.67 -20.25,-0.22 -29.25,-5.81 -0.23,0.03 -0.48,0.09 -0.74,0.11 -8.04,8.33 -17.83,13.52 -29.31,15.49 -4.52,0.79 -9,1.58 -13.52,2.37 0.03,-2.03 0.03,-4.03 0.03,-6.03 2,-0.34 4.01,-0.71 6.01,-1.05 8.49,-1.47 16,-5.05 22.54,-10.78 6.52,-5.7 10.81,-12.19 12.84,-19.52 13.52,-51.94 27.06,-103.07 40.6,-153.46 1.55,-5.33 1.44,-10.61 -0.28,-15.88 -1.75,-5.25 -4.85,-9.65 -9.34,-13.21 5.56,-5.02 11.09,-9.98 16.65,-14.95 5.02,-5.56 8.32,-10.95 9.85,-16.22 14.33,-51.75 28.69,-102.73 43.02,-152.98 1.04,-4.69 -0.08,-8.8 -3.3,-12.39 -3.27,-3.58 -7.65,-5.36 -13.18,-5.33 -3.49,0.03 -7.02,0.06 -10.55,0.08 0.03,-2.14 0.03,-4.28 0.06,-6.43 3.5,-0.03 7.02,-0.03 10.55,-0.06 10.53,-0.05 20.31,3.33 29.32,10.02 0,0.2 0,0.42 0,0.62 0.25,-0.2 0.5,-0.42 0.76,-0.65 8.07,-6.8 17.88,-10.21 29.42,-10.27 3.53,0 7.06,-0.03 10.56,-0.03 0,2.09 -0.03,4.18 -0.03,6.27 -3.78,0 -7.54,0.03 -11.32,0.05 -5.53,0.03 -9.93,1.75 -13.2,5.14 -3.3,3.39 -4.46,7.39 -3.47,12.02 13.54,49.49 27.06,98.32 40.6,146.57 1.47,5.76 4.71,10.55 9.71,14.39 5.5,4.23 11,8.44 16.5,12.64 -0.25,0.23 -0.48,0.45 -0.73,0.68 -9.11,7.95 -12.44,17.72 -9.99,29.12 13.06,45.79 26.13,91.07 39.19,135.9 1.97,6.35 6.09,11.32 12.39,14.96 6.26,3.61 13.65,4.99 22.23,4.12 0.25,0 0.51,-0.03 0.76,-0.06z"/>
   <path class="fil0" d="M629.97 195.21c-6.91,-23.5 -13.83,-47.08 -20.74,-70.76 -0.08,15.52 -0.17,31.04 -0.22,46.56 -0.06,8.18 2.99,14.78 9.28,20.06 3.89,1.38 7.79,2.76 11.68,4.14zm247.27 194.94c-10.47,0.14 -20.37,-1.92 -29.57,-6.13 -9.23,4.58 -19.13,7.03 -29.6,7.31 -13.57,0.37 -27.14,0.82 -40.71,1.33 0.03,-9.14 0.06,-18.28 0.08,-27.43 5.99,-0.19 11.97,-0.39 17.95,-0.59 3.78,-0.11 6.4,-1.01 8.83,-2.99 2.45,-2.06 3.56,-4.06 3.56,-6.57 0.08,-43.26 0.19,-86.48 0.28,-129.73 0,-8.16 -3.53,-14.79 -10.84,-20.29 -0.56,-0.42 -1.1,-0.82 -1.66,-1.24 -2.17,-3.3 -4.35,-6.6 -6.52,-9.93 2.74,-2.15 5.48,-4.26 8.24,-6.41 7.31,-5.72 10.86,-12.64 10.89,-21.21 0.03,-13.94 0.06,-27.91 0.09,-41.84 -27.54,89.32 -55.19,179.33 -82.93,270.54 -11.73,0.59 -23.47,1.24 -35.21,1.95 -19.18,-63.6 -38.29,-127.61 -57.36,-192.28 -4.77,2.06 -9.51,4.09 -14.27,6.15 -6.55,6.46 -9.74,13.34 -9.79,20.96 -0.2,44.44 -0.43,88.91 -0.62,133.37 -0.03,1.75 0.39,3.87 3.63,6.18 2.66,1.89 5.34,2.62 8.67,2.37 7.98,-0.56 15.97,-1.13 23.98,-1.66 -0.06,9.31 -0.09,18.62 -0.14,27.93 -8.5,0.59 -16.99,1.24 -25.48,1.89 -10.47,0.82 -20.37,-0.65 -29.57,-4.46 -8.86,5.31 -18.96,8.52 -30.22,9.56 -8.23,0.79 -16.44,1.58 -24.68,2.4 0.05,-9.53 0.11,-19.04 0.17,-28.58 7.95,-0.73 15.94,-1.44 23.92,-2.14 3.33,-0.28 6.01,-1.47 8.69,-3.78 3.25,-2.85 3.7,-5.05 3.7,-6.8 0.25,-44.83 0.48,-89.64 0.7,-134.44 0.06,-8.07 -3.72,-14.82 -11.51,-20.66 -0.54,-0.39 -1.07,-0.81 -1.64,-1.24 -2.14,-3.36 -4.31,-6.71 -6.46,-10.1 2.74,-2.31 5.48,-4.6 8.21,-6.91 7.85,-6.58 11.69,-13.85 11.71,-22.32 0.23,-44.61 0.48,-89.21 0.71,-133.82 0,-2.82 -1.02,-4.8 -3.42,-6.6 -2.65,-2 -5.38,-2.88 -8.86,-2.85 -7.95,0.06 -15.91,0.11 -23.86,0.17 0.05,-9.74 0.11,-19.44 0.16,-29.17 8.69,0 17.41,0 26.1,-0.03 9.94,0 19.39,2.31 28.25,6.88 9,-4.6 18.73,-6.88 29.03,-6.88 11,0 21.98,-0.03 32.95,-0.03 25.37,86.84 50.79,172.53 76.35,257.54 26.52,-86.7 52.99,-172.39 79.31,-257.57 3.7,0 7.39,0 11.09,0 10.61,0 20.2,2.2 28.61,6.52 8.43,-4.35 18.03,-6.52 28.66,-6.52 13.72,0 27.46,0 41.17,0 0,9.25 0,18.51 0,27.79 -5.95,0 -11.88,0 -17.83,0 -3.87,0 -6.63,0.82 -9.03,2.63 -2.31,1.77 -3.3,3.75 -3.3,6.54 -0.03,42.89 -0.06,85.77 -0.09,128.63 0,7.96 3.08,14.42 9.4,19.75 5.75,2.17 11.51,4.35 17.29,6.55 -5.27,4.03 -10.55,8.07 -15.82,12.1 -7.34,5.61 -10.9,12.3 -10.9,20.46 -0.05,43.05 -0.08,86.11 -0.11,129.19 0,2.51 1.07,4.43 3.56,6.4 2.39,1.89 5.05,2.71 8.83,2.68 5.98,-0.05 11.96,-0.08 17.94,-0.08 0,9.08 0,18.14 0,27.22 -13.57,0.03 -27.14,0.12 -40.71,0.29z"/>
   <path class="fil0" d="M900.18 16.76c-7.54,0.03 -13.83,1.95 -18.85,5.78 -5.02,3.87 -7.53,8.66 -7.56,14.45 -0.03,42.88 -0.06,85.77 -0.11,128.68 0,11.54 5.02,21.14 15.09,28.75 0.51,0.2 1.02,0.4 1.52,0.57 -0.5,0.39 -1.01,0.79 -1.52,1.18 -10.1,7.73 -15.12,17.21 -15.15,28.36 -0.03,43.08 -0.09,86.17 -0.11,129.25 0,5.39 2.51,10.07 7.56,14.05 5.05,3.98 11.37,5.95 18.96,5.9 1.27,0 2.54,0 3.81,-0.03 0,1.75 0,3.47 0,5.19 -8.86,0.06 -17.72,0.14 -26.55,0.25 -10.64,0.12 -20.49,-2.79 -29.6,-8.8 -9.08,6.35 -18.96,9.65 -29.57,9.93 -8.86,0.26 -17.72,0.51 -26.55,0.79 0,-1.72 0,-3.47 0,-5.22 1.27,-0.03 2.54,-0.08 3.81,-0.11 7.56,-0.25 13.88,-2.45 18.96,-6.63 5.05,-4.2 7.59,-8.97 7.62,-14.39 0.06,-43.2 0.14,-86.39 0.22,-129.59 0.03,-11.17 -4.99,-20.57 -15.06,-28.13 -0.25,-0.39 -0.51,-0.76 -0.76,-1.15 0.25,-0.2 0.51,-0.4 0.76,-0.6 10.1,-7.87 15.15,-17.57 15.18,-29.14 0.08,-44.92 0.17,-89.86 0.25,-134.81 -35.92,116.38 -72.03,233.64 -108.31,353.07 -4.29,0.23 -8.58,0.45 -12.87,0.71 -35.44,-117.37 -70.65,-236.07 -105.72,-357.48 -0.25,47.97 -0.48,95.93 -0.73,143.93 -0.06,11.93 4.94,21.69 14.98,29.22 0.48,0.17 0.99,0.34 1.5,0.54 -0.51,0.2 -1.02,0.42 -1.53,0.65 -10.1,9.14 -15.18,19.35 -15.23,30.47 -0.23,44.61 -0.45,89.19 -0.68,133.77 -0.03,5.58 2.6,10.24 7.87,14.02 5.28,3.75 11.46,5.36 18.51,4.82 3.3,-0.22 6.57,-0.48 9.85,-0.7 0,1.77 0,3.55 -0.03,5.33 -3.78,0.28 -7.56,0.56 -11.34,0.85 -10.61,0.79 -20.43,-1.58 -29.49,-7.23 -0.22,0.03 -0.48,0.03 -0.73,0.06 -8.13,7.05 -17.97,11.09 -29.57,12.13 -3.53,0.31 -7.05,0.65 -10.58,0.99 0.03,-1.81 0.03,-3.64 0.03,-5.45 3.27,-0.28 6.54,-0.59 9.84,-0.87 7.06,-0.65 13.24,-3.27 18.54,-7.93 5.33,-4.63 8.01,-9.7 8.04,-15.32 0.23,-44.66 0.45,-89.32 0.68,-134.02 0.06,-11.14 -5.19,-20.68 -15.72,-28.61 -0.25,-0.36 -0.5,-0.76 -0.76,-1.15 0.26,-0.2 0.51,-0.43 0.76,-0.62 10.61,-8.89 15.94,-19.05 16,-30.64 0.23,-44.47 0.45,-88.94 0.68,-133.43 0.03,-5.98 -2.57,-10.92 -7.84,-14.9 -5.25,-3.95 -11.4,-5.95 -18.43,-5.92 -3.27,0.03 -6.54,0.03 -9.79,0.05 0,-2 0.03,-4.03 0.03,-6.03 4.01,0 8.04,-0.03 12.05,-0.03 9.53,-0.03 18.56,2.93 27.08,8.89 0.51,0.39 1.02,0.79 1.5,1.18 0.25,-0.39 0.51,-0.79 0.76,-1.21 8.58,-6.01 17.89,-9 27.93,-9.03 7.28,-0.03 14.59,-0.03 21.87,-0.06 28.95,99.37 58.01,197.14 87.21,294.08 30.36,-99.26 60.57,-197.13 90.65,-294.36 10.55,-0.03 19.58,2.88 27.11,8.63 0.51,0.4 1.02,0.77 1.53,1.16 0.48,-0.39 0.99,-0.76 1.49,-1.16 7.57,-5.78 16.59,-8.66 27.15,-8.69 9.05,0 18.08,0 27.14,0 0,1.92 0,3.84 0,5.76 -1.27,0 -2.51,0 -3.78,0z"/>
   <path class="fil0" d="M1053.27 391.87c-11.17,-0.37 -21.19,-2.82 -29.99,-7.34 -8.78,4.09 -18.79,6.07 -29.94,5.87 -13.32,-0.22 -26.63,-0.36 -39.95,-0.48 -0.03,-9.05 -0.03,-18.14 -0.03,-27.2 5.98,0.03 11.96,0.09 17.95,0.14 3.35,0.03 6.03,-0.81 8.69,-2.82 3.27,-2.42 3.69,-4.51 3.69,-6.2 -0.05,-43.09 -0.08,-86.2 -0.14,-129.28 0,-3.98 -0.9,-7.62 -2.74,-11.15 -1.72,-3.27 -4.45,-6.2 -8.4,-8.97 -0.68,-0.45 -1.33,-0.93 -2.01,-1.38 -2.23,-3.42 -4.45,-6.86 -6.68,-10.27 2.79,-2.12 5.61,-4.26 8.43,-6.38 7.76,-5.61 11.37,-12.19 11.34,-20.71 -0.02,-42.91 -0.08,-85.8 -0.11,-128.71 0,-2.71 -1.04,-4.6 -3.44,-6.38 -2.68,-1.94 -5.42,-2.82 -8.89,-2.82 -5.95,0 -11.91,0 -17.83,0 -0.03,-9.28 -0.03,-18.54 -0.03,-27.79 13.23,0 26.47,0 39.67,0 11.09,0 21.05,2.17 29.8,6.52 8.71,-4.35 18.67,-6.52 29.73,-6.52 13.24,0 26.47,0 39.7,0 0.03,9.37 0.06,18.71 0.09,28.04 -5.96,-0.02 -11.91,-0.02 -17.86,-0.05 -3.47,0 -6.21,0.87 -8.89,2.82 -2.37,1.75 -3.42,3.67 -3.39,6.38 0.09,43.11 0.2,86.22 0.28,129.33 0.03,8.18 3.84,15.12 11.69,21.27 2.73,2.15 5.47,4.29 8.21,6.44 -2.18,3.33 -4.35,6.63 -6.52,9.93 -0.54,0.42 -1.1,0.85 -1.64,1.24 -7.81,5.87 -11.59,12.5 -11.59,20.29 0.11,43.3 0.19,86.59 0.31,129.89 0,1.73 0.45,3.81 3.72,6.41 2.65,2.12 5.33,3.13 8.69,3.24 5.98,0.2 11.96,0.43 17.92,0.65 0.03,9.17 0.05,18.31 0.08,27.48 -13.32,-0.56 -26.6,-1.07 -39.92,-1.49z"/>
   <path class="fil0" d="M1074.29 16.9c-7.03,0 -13.18,1.92 -18.45,5.76 -5.25,3.86 -7.9,8.69 -7.88,14.47 0.09,43.06 0.17,86.14 0.29,129.19 0,11.2 5.33,20.91 15.91,29.23 0.25,0.2 0.51,0.4 0.76,0.6 -0.25,0.36 -0.48,0.76 -0.73,1.15 -10.58,7.93 -15.86,17.3 -15.83,28.1 0.08,43.26 0.17,86.51 0.28,129.76 0,5.42 2.65,10.22 7.99,14.45 5.3,4.23 11.51,6.46 18.59,6.71 1.27,0.06 2.51,0.09 3.78,0.14 0,1.75 0,3.47 0.03,5.22 -8.61,-0.31 -17.18,-0.62 -25.79,-0.87 -11.65,-0.37 -21.5,-3.72 -29.6,-10.07 -0.25,0 -0.5,0 -0.76,-0.03 -8.07,6.01 -17.94,8.86 -29.57,8.66 -8.57,-0.14 -17.18,-0.25 -25.78,-0.34 0,-1.72 0,-3.44 0,-5.19 1.27,0.03 2.53,0.03 3.78,0.06 7.08,0.05 13.28,-1.87 18.59,-5.84 5.3,-3.95 7.96,-8.61 7.93,-14.03 -0.06,-43.11 -0.09,-86.22 -0.14,-129.33 -0.03,-5.39 -1.3,-10.5 -3.81,-15.35 -2.54,-4.82 -6.58,-9.2 -12.11,-13.09 -0.25,-0.37 -0.5,-0.76 -0.76,-1.16 0.26,-0.2 0.51,-0.36 0.76,-0.56 10.56,-7.62 15.86,-17.21 15.83,-28.75 -0.06,-42.92 -0.11,-85.86 -0.17,-128.77 0,-5.79 -2.65,-10.58 -7.93,-14.45 -5.27,-3.86 -11.42,-5.78 -18.48,-5.78 -1.24,0 -2.51,0 -3.75,0 0,-1.92 0,-3.87 0,-5.79 8.52,0 17.07,0 25.62,0.03 11.54,0 21.36,3.08 29.4,9.26 0.25,0.19 0.51,0.39 0.76,0.59 0,-0.2 0,-0.4 0,-0.59 8.01,-6.15 17.8,-9.23 29.37,-9.23 8.55,0.03 17.1,0.03 25.62,0.03 0.03,1.94 0.03,3.89 0.03,5.81 -1.27,0 -2.51,0 -3.78,0z"/>
   <path class="fil0" d="M1213.95 400.28c-11.15,-0.79 -21.16,-3.73 -29.96,-8.66 -8.75,3.83 -18.77,5.41 -29.88,4.76 -13.32,-0.76 -26.61,-1.46 -39.93,-2.09 -0.03,-9.16 -0.05,-18.34 -0.08,-27.53 5.98,0.28 11.93,0.56 17.91,0.84 3.36,0.17 6.04,-0.62 8.69,-2.54 3.25,-2.34 3.67,-4.42 3.67,-6.14 -0.17,-43.71 -0.31,-87.41 -0.48,-131.15 0,-4 -0.9,-7.73 -2.76,-11.34 -1.72,-3.36 -4.49,-6.4 -8.44,-9.28 -0.68,-0.48 -1.32,-0.96 -2,-1.44 -2.23,-3.53 -4.49,-7.03 -6.72,-10.55 2.8,-2.09 5.62,-4.18 8.41,-6.29 7.76,-5.51 11.34,-12.14 11.32,-20.8 -0.17,-43.5 -0.32,-87.01 -0.48,-130.52 0,-2.76 -1.05,-4.68 -3.48,-6.49 -2.65,-1.97 -5.41,-2.87 -8.88,-2.87 -5.95,-0.03 -11.88,-0.06 -17.83,-0.06 -0.03,-9.4 -0.06,-18.76 -0.09,-28.13 13.23,0.03 26.47,0.03 39.67,0.03 11.06,0 21.05,2.2 29.8,6.63 8.71,-4.4 18.67,-6.63 29.73,-6.63 13.24,0.03 26.47,0.03 39.7,0.03 0.03,9.59 0.09,19.15 0.14,28.75 -5.95,-0.03 -11.91,-0.09 -17.83,-0.12 -3.47,-0.02 -6.24,0.88 -8.89,2.85 -2.4,1.78 -3.41,3.73 -3.41,6.52 0.22,44.07 0.42,88.14 0.62,132.21 0.03,8.38 3.86,15.55 11.71,21.98 2.74,2.26 5.47,4.52 8.21,6.77 -2.15,3.33 -4.32,6.69 -6.49,10.02 -0.54,0.42 -1.07,0.82 -1.64,1.24 -7.78,5.84 -11.57,12.53 -11.51,20.48 0.2,47.41 0.42,94.83 0.65,142.26 13.2,0.9 26.41,1.89 39.61,2.96 9.43,0.74 17.64,0.43 24.38,-0.96 6.77,-1.38 12.47,-3.38 16.99,-5.98 4.57,-2.62 8.37,-5.72 11.28,-9.22 3.05,-3.7 5.45,-7.65 7.05,-11.77 0.03,-0.11 0.06,-0.2 0.12,-0.28 0.03,-0.09 0.08,-0.2 0.11,-0.28 4.77,-10.13 6.69,-22.29 5.73,-36.06 -0.28,-4.09 -0.57,-8.18 -0.85,-12.27 12.67,0.96 25.34,1.94 38.01,2.96 0.11,19.64 0.22,39.25 0.33,58.88 0.03,6.43 -2.39,12.16 -7.02,16.82 3.89,4.34 7.17,10.47 7.22,18.7 0.03,5.96 0.06,11.91 0.09,17.84 -50.76,-5.68 -101.6,-10.36 -152.5,-14.08z"/>
   <path class="fil0" d="M1352.06 359.65c0.03,4.88 -2.2,8.94 -6.72,12.16 -1.75,1.47 -3.5,2.9 -5.27,4.37 1.77,1.78 3.55,3.58 5.33,5.39 4.54,3.27 6.83,7.79 6.86,13.49 0.02,2.03 0.02,4.06 0.02,6.09 -46.07,-4.85 -92.2,-8.89 -138.39,-12.16 -11.62,-0.82 -21.47,-4.63 -29.57,-11.4 -0.25,-0.03 -0.5,-0.05 -0.76,-0.05 -8.07,5.78 -17.89,8.29 -29.51,7.64 -8.58,-0.48 -17.18,-0.93 -25.76,-1.35 0,-1.75 -0.03,-3.5 -0.03,-5.25 1.27,0.06 2.54,0.11 3.81,0.17 7.05,0.37 13.23,-1.36 18.54,-5.16 5.27,-3.84 7.9,-8.47 7.9,-13.94 -0.17,-43.82 -0.34,-87.61 -0.51,-131.4 -0.03,-5.47 -1.3,-10.69 -3.84,-15.66 -2.54,-4.96 -6.57,-9.48 -12.13,-13.54 -0.25,-0.39 -0.51,-0.79 -0.76,-1.18 0.25,-0.2 0.51,-0.37 0.76,-0.57 10.55,-7.5 15.8,-17.15 15.74,-28.89 -0.16,-43.59 -0.33,-87.18 -0.48,-130.8 -0.02,-5.84 -2.68,-10.75 -7.98,-14.67 -5.28,-3.92 -11.46,-5.9 -18.48,-5.93 -1.27,0 -2.51,0 -3.78,0 0,-1.94 0,-3.89 0,-5.84 8.52,0 17.07,0.03 25.62,0.06 11.54,0 21.36,3.16 29.42,9.48 0.26,0.2 0.51,0.39 0.77,0.59 0,-0.2 0,-0.39 0,-0.59 7.98,-6.26 17.77,-9.4 29.34,-9.37 8.55,0.03 17.07,0.06 25.62,0.06 0,2 0.03,3.98 0.03,5.95 -1.25,0 -2.51,0 -3.76,0 -7.05,-0.03 -13.2,1.92 -18.45,5.84 -5.25,3.92 -7.87,8.83 -7.84,14.76 0.2,43.96 0.39,87.91 0.59,131.9 0.03,11.43 5.36,21.44 15.97,30.13 0.25,0.23 0.51,0.43 0.76,0.62 -0.25,0.4 -0.48,0.79 -0.73,1.19 -10.55,7.9 -15.8,17.35 -15.75,28.38 0.23,48.31 0.43,96.58 0.65,144.88 0,1.98 1.16,3.92 3.42,5.87 2.28,1.92 4.68,2.99 7.22,3.16 14.36,1.02 28.75,2.12 43.14,3.3 11.09,0.91 20.79,0.57 29.09,-1.13 8.32,-1.66 15.35,-4.12 21.13,-7.44 5.76,-3.31 10.53,-7.2 14.28,-11.71 3.75,-4.49 6.6,-9.29 8.6,-14.39 5.48,-11.66 7.65,-25.28 6.58,-40.8 3.02,0.25 6.03,0.51 9.05,0.73 0.09,15.69 0.17,31.35 0.26,47.01z"/>
   <path class="fil0" d="M1478.34 428.49c-11.08,-1.55 -21.07,-5.3 -29.82,-11.14 -8.69,3.55 -18.65,4.6 -29.74,3.21 -13.23,-1.66 -26.49,-3.24 -39.72,-4.77 -0.06,-9.67 -0.11,-19.35 -0.17,-29.03 5.95,0.65 11.91,1.3 17.86,1.98 3.33,0.36 5.98,-0.31 8.6,-2.18 3.25,-2.31 3.67,-4.48 3.67,-6.29 -0.28,-46.3 -0.53,-92.6 -0.82,-138.9 -0.02,-4.26 -0.93,-8.23 -2.79,-12.13 -1.72,-3.61 -4.49,-6.91 -8.44,-10.1 -0.67,-0.54 -1.32,-1.07 -1.97,-1.61 -2.26,-3.78 -4.51,-7.56 -6.77,-11.34 2.79,-2.12 5.61,-4.26 8.41,-6.38 7.7,-5.61 11.25,-12.5 11.2,-21.66 -0.26,-46.11 -0.54,-92.18 -0.79,-138.28 -0.03,-2.91 -1.07,-4.97 -3.47,-6.86 -2.68,-2.12 -5.45,-3.07 -8.92,-3.1 -5.92,-0.06 -11.88,-0.12 -17.83,-0.17 -0.06,-9.88 -0.11,-19.75 -0.17,-29.63 13.23,0 26.47,0 39.7,0.03 11.06,0 21.05,2.34 29.79,7.08 8.69,-4.68 18.65,-7.05 29.74,-7.05 13.2,0 26.44,0.03 39.67,0.03 0.06,10.32 0.11,20.62 0.17,30.95 -5.95,-0.09 -11.88,-0.14 -17.83,-0.2 -3.47,-0.06 -6.21,0.88 -8.86,2.99 -2.4,1.92 -3.42,4.01 -3.39,6.97 0.26,47.23 0.54,94.46 0.79,141.69 0.06,8.97 3.9,16.76 11.74,23.9 2.74,2.48 5.47,4.99 8.18,7.51 -2.14,3.52 -4.29,7.05 -6.43,10.58 -0.57,0.42 -1.1,0.84 -1.64,1.27 -7.76,5.98 -11.51,13.03 -11.45,21.55 0.25,47.46 0.53,94.89 0.79,142.34 0.03,1.87 0.48,4.21 3.72,7.37 2.65,2.59 5.31,3.95 8.64,4.4 5.95,0.79 11.87,1.61 17.8,2.45 0.06,10.1 0.11,20.2 0.17,30.3 -13.21,-2 -26.41,-3.92 -39.62,-5.78z"/>
   <path class="fil0" d="M1497.84 18.76c-7.05,-0.05 -13.17,2.03 -18.42,6.21 -5.25,4.18 -7.87,9.42 -7.82,15.74 0.26,47.01 0.54,94.04 0.79,141.05 0.09,12.24 5.42,23.08 16,32.75 0.25,0.23 0.51,0.45 0.76,0.68 -0.25,0.4 -0.48,0.82 -0.73,1.21 -10.5,8.16 -15.72,18.06 -15.66,29.85 0.28,47.24 0.56,94.47 0.82,141.7 0.03,5.89 2.71,11.4 8.01,16.53 5.28,5.16 11.45,8.24 18.48,9.23 1.24,0.17 2.51,0.34 3.75,0.5 0.03,1.92 0.03,3.84 0.03,5.76 -8.52,-1.21 -17.04,-2.4 -25.59,-3.58 -11.57,-1.58 -21.36,-6.24 -29.43,-13.94 -0.25,-0.03 -0.51,-0.09 -0.76,-0.11 -8.01,5.69 -17.8,7.76 -29.34,6.34 -8.55,-1.04 -17.1,-2.06 -25.68,-3.04 0,-1.84 0,-3.7 -0.02,-5.53 1.27,0.14 2.51,0.28 3.78,0.42 7.02,0.82 13.2,-0.65 18.45,-4.37 5.25,-3.73 7.87,-8.5 7.81,-14.31 -0.25,-46.49 -0.53,-92.96 -0.79,-139.46 -0.03,-5.81 -1.32,-11.4 -3.86,-16.76 -2.57,-5.33 -6.6,-10.27 -12.16,-14.76 -0.26,-0.42 -0.51,-0.84 -0.76,-1.27 0.25,-0.19 0.5,-0.39 0.76,-0.56 10.49,-7.62 15.71,-17.69 15.66,-30.16 -0.29,-46.27 -0.54,-92.54 -0.82,-138.84 -0.03,-6.21 -2.71,-11.43 -7.99,-15.64 -5.3,-4.17 -11.48,-6.26 -18.51,-6.29 -1.26,-0.03 -2.51,-0.03 -3.78,-0.03 0,-2.05 -0.02,-4.11 -0.02,-6.17 8.55,0.03 17.07,0.05 25.61,0.11 11.57,0.03 21.39,3.41 29.46,10.16 0.25,0.19 0.51,0.42 0.76,0.62 0,-0.2 0,-0.43 0,-0.62 7.99,-6.63 17.75,-9.96 29.32,-9.91 8.55,0.03 17.07,0.09 25.61,0.12 0,2.14 0.03,4.26 0.03,6.4 -1.24,-0.03 -2.51,-0.03 -3.75,-0.03z"/>
   <path class="fil0" d="M1697.94 293.6c-11.29,-45.06 -22.57,-89.5 -33.89,-133.31 -11.14,42.32 -22.26,84.07 -33.38,125.27 22.43,2.56 44.86,5.24 67.27,8.04zm104.78 194.42c-10.32,-2.34 -20.08,-7.28 -29.14,-14.67 -8.69,3.56 -18.68,4.12 -29.77,1.78 -12.35,-2.6 -24.71,-5.14 -37.07,-7.65 -0.06,-10.86 -0.08,-21.72 -0.11,-32.58 5.13,0.95 10.3,1.91 15.43,2.9 3.3,0.62 5.39,0.06 7.48,-2 2.08,-2.06 2.14,-3.61 1.55,-5.73 -0.06,-0.11 -0.09,-0.23 -0.11,-0.34 -8.24,-34.53 -16.51,-68.7 -24.78,-102.5 -27.87,-3.89 -55.78,-7.62 -83.68,-11.12 -8.24,30.36 -16.48,60.44 -24.72,90.23 -0.42,1.89 -0.22,3.76 2.15,6.75 2.12,2.68 4.23,3.95 7.53,4.48 7.17,1.16 14.33,2.34 21.5,3.53 0.03,10.55 0.09,21.07 0.14,31.6 -7.42,-1.36 -14.84,-2.65 -22.23,-3.95 -10.38,-1.81 -20.23,-6.04 -29.4,-12.56 -8.75,3.59 -18.76,4.43 -29.93,2.66 -9.2,-1.44 -18.37,-2.88 -27.57,-4.26 -0.06,-10.11 -0.11,-20.23 -0.17,-30.34 6.69,0.96 13.37,1.92 20.06,2.88 5.39,0.79 9.79,0.14 13.83,-2.11 4.09,-2.26 6.57,-5.22 7.81,-9.34 13.01,-47.43 26.04,-95.51 39.11,-144.32 0.84,-3.02 0.76,-6.18 -0.34,-9.65 -1.1,-3.47 -2.99,-6.49 -5.76,-9.17 -3.53,-3.38 -7.02,-6.77 -10.55,-10.13 8.86,-6.65 17.69,-13.4 26.55,-20.2 3.3,-3.33 5.42,-6.63 6.32,-9.79 13.74,-51.18 27.51,-103.15 41.3,-156.05 0.23,-1.27 -0.05,-1.86 -0.7,-2.63 -0.42,-0.53 -0.68,-0.78 -2.12,-0.81 -8.18,-0.12 -16.39,-0.23 -24.57,-0.34 -0.06,-10.78 -0.11,-21.53 -0.17,-32.31 8.21,0 16.42,0.03 24.63,0.03 10.41,0 20.29,2.62 29.48,7.9 8.78,-5.19 18.85,-7.87 30.02,-7.84 8.21,0 16.43,0 24.64,0.03 0.02,11.25 0.05,22.51 0.08,33.77 -8.46,-0.12 -16.9,-0.26 -25.36,-0.4 -1.7,0 -2.01,0.34 -2.37,0.74 -0.37,0.42 -0.63,0.73 -0.43,2 13.97,54.68 27.91,110.32 41.79,166.97 0.9,4.09 2.82,7.59 5.87,10.75 8.94,9.25 17.86,18.65 26.8,28.13 -3.67,3.1 -7.34,6.18 -11,9.23 -5.56,4.68 -7.34,10.66 -5.76,19.52 13.29,54.96 26.55,110.88 39.73,167.9 1.24,5.03 3.72,9.43 7.61,13.41 3.73,3.86 7.93,6.18 13.15,7.33 4.88,1.05 9.76,2.12 14.65,3.22 0,11.57 0,23.13 0,34.7 -13.8,-3.3 -27.6,-6.51 -41.4,-9.65z"/>
   <path class="fil0" d="M1715.68 309.12c-17.18,-69.58 -34.45,-137.58 -51.77,-204.19 -17.04,65.12 -34.03,128.83 -51.01,191.32 34.31,3.98 68.59,8.27 102.78,12.87zm114.55 164.74c0,2.2 0,4.37 0,6.57 -9.17,-2.08 -18.33,-4.14 -27.53,-6.18 -10.44,-2.28 -20.12,-8.23 -29.09,-17.69 -0.26,-0.02 -0.48,-0.08 -0.74,-0.14 -7.95,5.96 -17.63,7.65 -29.08,5.31 -7.71,-1.58 -15.44,-3.13 -23.17,-4.69 0,-2.08 0,-4.17 0,-6.26 0.48,0.11 0.99,0.2 1.5,0.31 7.47,1.47 13.54,-0.11 18.28,-4.77 4.71,-4.68 6.07,-10.52 4.06,-17.46 -9.05,-38.23 -18.14,-75.98 -27.25,-113.31 -35.21,-4.83 -70.48,-9.31 -105.78,-13.49 -9.11,33.46 -18.2,66.59 -27.28,99.37 -1.47,5.9 0.17,11.83 4.96,17.86 4.77,6.04 10.92,9.68 18.43,10.95 2.51,0.42 4.99,0.85 7.5,1.27 0,1.97 0.03,3.98 0.03,5.98 -2.76,-0.48 -5.5,-0.96 -8.27,-1.41 -10.49,-1.78 -20.25,-6.94 -29.31,-15.35 -0.25,-0.05 -0.51,-0.08 -0.76,-0.11 -7.99,5.73 -17.72,7.62 -29.23,5.84 -4.52,-0.68 -9.03,-1.38 -13.54,-2.06 0,-1.95 -0.03,-3.87 -0.03,-5.81 2,0.31 4,0.59 6.01,0.9 8.52,1.3 16.02,0.17 22.51,-3.39 6.49,-3.58 10.72,-8.69 12.67,-15.4 13.04,-47.57 26.04,-95.85 39.11,-144.85 1.46,-5.19 1.32,-10.64 -0.46,-16.34 -1.8,-5.73 -4.93,-10.78 -9.48,-15.12 5.51,-4.18 10.98,-8.35 16.48,-12.56 4.97,-4.93 8.21,-10.01 9.71,-15.26 13.79,-51.58 27.62,-104 41.47,-157.35 0.96,-4.97 -0.17,-9.43 -3.44,-13.32 -3.3,-3.89 -7.7,-5.84 -13.2,-5.9 -3.53,-0.02 -7.06,-0.05 -10.56,-0.11 -0.03,-2.23 -0.03,-4.48 -0.03,-6.71 3.5,0 7.03,0.02 10.56,0.05 10.52,0.06 20.34,3.75 29.4,11.15 0,0.22 0,0.45 0,0.67 0.25,-0.22 0.5,-0.45 0.76,-0.67 8.01,-7.2 17.77,-10.84 29.34,-10.78 3.53,0.03 7.03,0.06 10.55,0.08 0,2.32 0,4.66 0,6.97 -3.75,-0.03 -7.53,-0.08 -11.28,-0.11 -5.53,-0.06 -9.91,1.75 -13.18,5.39 -3.24,3.64 -4.37,7.98 -3.33,13.03 14,54.43 27.93,109.79 41.84,166.16 1.53,6.68 4.77,12.61 9.79,17.8 5.53,5.7 11.04,11.46 16.54,17.24 -0.26,0.23 -0.48,0.42 -0.74,0.62 -9,7.56 -12.21,17.97 -9.67,31.43 13.34,54.79 26.66,110.55 39.89,167.37 2,8.07 6.12,15.26 12.33,21.67 6.21,6.37 13.52,10.55 21.98,12.44 0.23,0.06 0.48,0.11 0.73,0.17z"/>
   <path class="fil0" d="M70.03 777.84l0 -83.85 11 0c1.58,0 2.54,0.31 3.16,0.67l0 82.5c-0.62,0.37 -1.58,0.68 -3.16,0.68l-11 0 0 0zm0 -115.28l0 -83.12 10.61 0c1.8,0 2.9,0.31 3.55,0.59l0 81.96c-0.9,0.37 -2.09,0.57 -3.55,0.57l-10.61 0 0 0zm10.61 -114.89l-22.32 0c-5.53,0 -10.75,1.13 -15.49,3.3 -4.71,-2.17 -9.93,-3.3 -15.46,-3.3l-27.37 0 0 31.77 15.66 0 0 80.35c0,3.33 -1.02,5.59 -3.53,7.79l-8.52 7.98 6.75 12.61 2.03 1.73c1.21,1.04 2,2.03 2.42,3.04 0.57,1.3 0.85,2.68 0.85,4.18l0 80.72 -15.66 0 0 31.4 27.37 0c5.53,0 10.75,-1.1 15.46,-3.3 4.74,2.2 9.96,3.3 15.49,3.3l22.32 0c7.33,0 14.41,-0.98 21.02,-2.93 6.85,-2.03 13.03,-5.02 18.36,-8.89 5.51,-3.98 9.99,-8.72 13.29,-14.02 3.75,-6.01 5.65,-12.64 5.65,-19.67l0 -9.17c0,-2.73 0.64,-4.82 2.11,-6.66l25.65 -11.99 -25.37 -11.85c-2.08,-2.76 -2.39,-5.05 -2.39,-6.82l0 -16.82c0,-4.6 -1.33,-9.31 -3.95,-14.02 -1.64,-2.91 -3.73,-5.67 -6.24,-8.21 1.92,-2.01 3.67,-4.21 5.16,-6.52 3.33,-5.11 5.03,-10.72 5.03,-16.62l0 -15.38c0,-2.73 0.64,-4.82 2.11,-6.68l17.27 -8.07 -16.03 -14.93c-2.37,-2.23 -3.35,-4.45 -3.35,-7.64l0 -9.14c0,-7.03 -1.9,-13.66 -5.65,-19.7 -3.36,-5.39 -7.9,-10.1 -13.54,-14.02 -5.19,-3.58 -11.17,-6.46 -17.83,-8.61 -6.72,-2.14 -13.88,-3.21 -21.3,-3.21l0 0zm-15.3 234.85l15.69 0c2.15,0 3.95,-0.42 5.48,-1.27l2.37 -1.35 0 -2.74 0 -82.5 0 -2.73 -2.37 -1.36c-1.53,-0.84 -3.33,-1.27 -5.48,-1.27l-11 0 -4.69 0 0 4.69 0 83.85 0 4.68zm0 -115.25l4.69 0 10.61 0c2.14,0 3.92,-0.34 5.41,-0.99l2.83 -1.21 0 -3.08 0 -81.96 0 -3.08 -2.8 -1.21c-1.49,-0.65 -3.33,-0.99 -5.44,-0.99l-10.61 0 -4.69 0 0 4.69 0 83.12 0 4.71zm15.3 -114.92c6.94,0 13.62,1.02 19.86,2.99 6.21,2.01 11.79,4.69 16.59,8.01 5.11,3.53 9.23,7.79 12.24,12.65 3.28,5.27 4.94,11.06 4.94,17.21l0 9.14c0,4.51 1.5,7.93 4.85,11.09l10.95 10.18 -10.97 5.14 -1.02 0.45 -0.68 0.87c-2.11,2.65 -3.13,5.79 -3.13,9.59l0 15.38c0,5 -1.44,9.74 -4.26,14.05 -1.35,2.09 -2.9,4.04 -4.63,5.87l-3.16 3.27 3.22 3.25c2.2,2.23 4.06,4.65 5.47,7.19 2.23,3.98 3.36,7.93 3.36,11.74l0 16.82c0,2.25 0.34,5.7 3.33,9.65l0.71 0.93 1.04 0.48 16.31 7.61 -16.56 7.73 -1.02 0.48 -0.68 0.85c-2.11,2.68 -3.13,5.81 -3.13,9.59l0 9.17c0,6.13 -1.66,11.94 -4.94,17.21 -2.99,4.8 -7.02,9.06 -12.07,12.7 -4.88,3.53 -10.58,6.29 -16.93,8.15 -6.18,1.84 -12.81,2.77 -19.69,2.77l-22.32 0c-4.85,0 -9.4,-0.96 -13.52,-2.85l-1.97 -0.9 -1.95 0.9c-4.14,1.89 -8.69,2.85 -13.51,2.85l-22.69 0 0 -22.04 10.98 0 4.68 0 0 -4.68 0 -80.72c0,-2.14 -0.39,-4.12 -1.21,-6.04 -0.73,-1.69 -1.95,-3.24 -3.72,-4.74l-1.36 -1.16 -4.6 -8.66 5.81 -5.44c3.5,-3.11 5.08,-6.6 5.08,-11.29l0 -80.35 0 -4.69 -4.68 0 -10.98 0 0 -22.4 22.69 0c4.82,0 9.37,0.96 13.51,2.88l1.95 0.9 1.97 -0.9c4.12,-1.92 8.67,-2.88 13.52,-2.88l22.32 0z"/>
   <path class="fil0" d="M98.27 692.72c0,-3.42 -1.72,-6.38 -5.11,-8.95 -3.38,-2.56 -7.44,-3.83 -12.13,-3.83l-19.58 0c-1.33,0 -2.57,0.53 -3.72,1.63 -1.19,1.1 -1.78,2.26 -1.78,3.47l0 101.74c0,1.22 0.59,2.37 1.78,3.47 1.15,1.1 2.39,1.64 3.72,1.64l19.58 0c4.69,0 8.75,-1.27 12.13,-3.84 3.39,-2.56 5.11,-5.53 5.11,-8.97l0 -86.36zm-42.32 -21.22c0,1.47 0.59,2.68 1.78,3.67 1.15,0.99 2.39,1.47 3.72,1.47l19.19 0c4.96,0 9.14,-1.22 12.52,-3.67 3.39,-2.43 5.11,-5.36 5.11,-8.78l0 -86.36c0,-3.41 -1.72,-6.35 -5.11,-8.78 -3.38,-2.45 -7.56,-3.66 -12.52,-3.66l-19.19 0c-1.33,0 -2.57,0.48 -3.72,1.46 -1.19,0.99 -1.78,2.2 -1.78,3.67l0 100.98zm68.95 45.74c0,6.85 2.6,12.95 7.82,18.31l0.79 0.36 -0.79 0.37c-5.22,4.88 -7.82,10.98 -7.82,18.28l0 9.17c0,4.38 -1.18,8.47 -3.52,12.25 -2.37,3.78 -5.56,7.14 -9.6,10.07 -4.06,2.94 -8.77,5.19 -14.1,6.77 -5.36,1.58 -11.03,2.37 -17.04,2.37l-22.32 0c-6.01,0 -11.12,-1.94 -15.29,-5.84l-0.4 0c-4.17,3.9 -9.25,5.84 -15.26,5.84l-13.32 0 0 -3.3 1.95 0c3.67,0 6.85,-1.27 9.59,-3.84 2.77,-2.56 4.12,-5.53 4.12,-8.97l0 -81.96c0,-3.41 -0.65,-6.63 -1.95,-9.71 -1.32,-3.04 -3.41,-5.78 -6.26,-8.21l-0.4 -0.73 0.4 -0.37c5.47,-4.88 8.21,-10.97 8.21,-18.31l0 -81.59c0,-3.67 -1.35,-6.72 -4.12,-9.15 -2.74,-2.45 -5.92,-3.66 -9.59,-3.66l-1.95 0 0 -3.67 13.32 0c6.01,0 11.09,1.97 15.26,5.87l0.4 0.36 0 -0.36c4.17,-3.9 9.28,-5.87 15.29,-5.87l22.32 0c6.01,0 11.68,0.87 17.04,2.57 5.33,1.72 10.04,3.97 14.1,6.77 4.04,2.79 7.23,6.09 9.6,9.87 2.34,3.78 3.52,7.87 3.52,12.28l0 9.14c0,7.08 2.6,13.06 7.82,17.91l0.79 0.74 -0.79 0.36c-5.22,4.89 -7.82,10.98 -7.82,18.31l0 15.38c0,3.16 -0.93,6.15 -2.73,8.95 -1.84,2.82 -4.12,5.3 -6.86,7.5 -2.76,2.2 -5.81,3.92 -9.22,5.14 -3.39,1.21 -6.78,1.83 -10.19,1.83 4.18,0 8.04,0.73 11.57,2.17 3.52,1.47 6.6,3.3 9.2,5.5 2.62,2.2 4.62,4.57 6.06,7.14 1.44,2.57 2.17,4.94 2.17,7.14l0 16.82z"/>
   <path class="fil0" d="M221.71 703.55l8.86 -34.87 8.72 34.87 -17.58 0 0 0zm55.13 -155.88l-19.55 0c-5.59,0 -10.87,1.15 -15.64,3.38 -4.82,-2.25 -9.95,-3.38 -15.32,-3.38l-19.52 0 0 31.77 12.67 0 -20.03 78.97c-0.09,0.28 -0.43,1.1 -1.56,2.48l-19.43 17.33 11.25 10.52c0.54,0.48 0.85,0.96 1.02,1.61 0.25,0.76 0.14,1.1 0.11,1.3l-20.79 83.14c-0.17,0.57 -0.45,1.22 -1.53,2.03 -0.7,0.54 -1.58,1.02 -3.27,1.02l-17.21 0 0 31.4 21.1 0c5.62,0 10.9,-1.13 15.64,-3.36 4.82,2.23 9.96,3.36 15.32,3.36l18.36 0 0 -31.4 -15.57 0 10.89 -42.88 33.29 0 10.58 42.88 -12.07 0 0 31.4 26.21 0c5.58,0 10.86,-1.13 15.63,-3.36 4.82,2.23 9.93,3.36 15.32,3.36l28.52 0 0 -31.4 -14.44 0c-1.58,0 -2.31,-0.4 -2.88,-0.85 -0.96,-0.76 -1.33,-1.43 -1.52,-2.17l-20.63 -82.13c-0.39,-2.34 0.2,-2.91 0.93,-3.58l11.4 -10.64 -19.61 -18.34c-0.65,-0.59 -0.84,-1.07 -0.98,-1.64l-19.73 -79.05 13.04 0 0 -31.77 0 0zm-61.17 160.57l29.62 0 -1.46 -5.82 -8.72 -34.9 -4.51 -18.03 -4.58 18.03 -8.85 34.88 -1.5 5.84zm56.48 -155.89l0 22.4 -8.35 0 -5.98 0 1.44 5.82 19.69 78.97c0.37,1.58 1.13,2.88 2.35,4l15.97 14.93 -7.73 7.2c-1.56,1.46 -3.08,3.55 -2.37,7.78l0.02 0.2 0.06 0.17 20.65 82.24c0.51,1.89 1.53,3.33 3.16,4.63 1.61,1.24 3.45,1.83 5.76,1.83l9.76 0 0 22.04 -23.84 0c-4.68,0 -9.17,-0.99 -13.35,-2.94l-1.97 -0.9 -1.98 0.9c-4.17,1.95 -8.77,2.94 -13.65,2.94l-21.53 0 0 -22.04 7.39 0 5.98 0 -1.43 -5.81 -10.59 -42.86 -0.87 -3.58 -3.67 0 -33.29 0 -3.64 0 -0.9 3.56 -10.89 42.85 -1.47 5.84 6.01 0 10.89 0 0 22.04 -13.68 0c-4.66,0 -9.15,-0.99 -13.35,-2.94l-1.97 -0.9 -1.98 0.9c-4.18,1.95 -8.75,2.94 -13.66,2.94l-16.42 0 0 -22.04 12.53 0c3.13,0 5,-1.1 6.1,-1.94 1.69,-1.27 2.7,-2.71 3.24,-4.63l20.77 -83.06c0.19,-0.79 0.42,-2.03 -0.15,-3.9 -0.42,-1.44 -1.18,-2.62 -2.28,-3.69l-7.5 -7 15.57 -13.91 0.28 -0.23 0.23 -0.28c1.24,-1.49 2.06,-2.9 2.42,-4.17l0.03 -0.09 0.03 -0.05 20.03 -78.98 1.5 -5.84 -6.04 0 -7.99 0 0 -22.4 14.84 0c4.66,0 9.15,0.99 13.35,2.94l1.97 0.93 1.98 -0.93c4.18,-1.95 8.78,-2.94 13.66,-2.94l14.86 0z"/>
   <path class="fil0" d="M257.29 717.6l-26.64 -106.48 -27.03 106.48 53.67 0zm59.92 74.29l0 3.3 -14.47 0c-5.5,0 -10.58,-1.94 -15.29,-5.84l-0.4 0c-4.17,3.9 -9.25,5.84 -15.26,5.84l-12.16 0 0 -3.3 0.79 0c3.92,0 7.11,-1.47 9.59,-4.37 2.48,-2.94 3.22,-6.1 2.17,-9.54l-14.1 -57.08 -55.25 0 -14.47 57.08c-0.79,3.44 0.06,6.6 2.54,9.54 2.48,2.9 5.67,4.37 9.59,4.37l3.92 0 0 3.3 -4.31 0c-5.48,0 -10.58,-1.94 -15.27,-5.84l-0.39 0c-4.18,3.9 -9.29,5.84 -15.3,5.84l-7.02 0 0 -3.3 3.13 0c4.43,0 8.35,-1.27 11.74,-3.84 3.38,-2.56 5.61,-5.78 6.66,-9.7l20.76 -83.07c0.79,-2.9 0.71,-5.89 -0.19,-8.94 -0.94,-3.07 -2.54,-5.7 -4.91,-7.87l8.63 -7.7c2.59,-2.91 4.32,-5.84 5.08,-8.78l21.95 -86.36c0.51,-2.68 -0.09,-5.05 -1.78,-7.14 -1.69,-2.06 -3.98,-3.1 -6.86,-3.1l-5.47 0 0 -3.67 5.47 0c5.51,0 10.59,1.97 15.3,5.87l0 0.36 0.39 -0.36c4.18,-3.9 9.26,-5.87 15.27,-5.87l5.47 0 0 3.67 -5.87 0c-2.88,0 -5.16,0.98 -6.85,2.93 -1.7,1.95 -2.29,4.26 -1.75,6.94l21.52 86.37c0.79,3.41 2.49,6.34 5.11,8.77l8.61 8.07 -0.4 0.37c-4.68,4.37 -6.4,9.98 -5.08,16.81l20.77 82.7c1.04,3.92 3.19,7.14 6.46,9.7 3.24,2.57 7.11,3.84 11.54,3.84l0.39 0z"/>
   <path class="fil0" d="M451.6 777.84l-14.16 0 0 -83.49 11 0c1.52,0 2.51,0.26 3.16,0.57l0 22.32c0,3.41 -0.99,5.84 -3.36,8.04l-8.29 7.73 6.6 12.33 1.69 1.58c2.37,2.2 3.36,4.51 3.36,7.64l0 23.28 0 0zm-14.16 -115.28l0 -83.12 10.6 0c1.81,0 2.91,0.31 3.56,0.59l0 22.32c0,3.41 -0.99,5.81 -3.36,8.01l-4.46 4.18 0 12.55 3.98 4.09c3.42,3.5 3.84,6.38 3.84,8.49l0 22.32c-0.65,0.31 -1.64,0.57 -3.16,0.57l-11 0 0 0zm10.6 -114.89l-22.31 0c-5.53,0 -10.75,1.13 -15.49,3.3 -4.72,-2.17 -9.94,-3.3 -15.47,-3.3l-27.36 0 0 31.77 15.66 0 0 80.35c0,3.33 -1.02,5.59 -3.53,7.79l-4.71 4.2 0 13.15 4.46 4.18c2.65,2.45 3.78,4.85 3.78,8.01l0 80.72 -15.66 0 0 31.4 27.36 0c5.62,0 10.81,-1.07 15.47,-3.19 4.65,2.12 9.87,3.19 15.49,3.19l27.36 0 0 -19.3c1.47,4.24 3.98,8.05 7.48,11.32 5.59,5.22 12.78,7.98 20.77,7.98l40.29 0 0 -31.4 -14.05 0c-0.65,0 -0.99,-0.08 -1.16,-0.23 0,0 -0.03,-0.02 -0.03,-0.02 -0.03,-0.09 -0.03,-0.17 -0.03,-0.31l0 -22.72c0,-3.18 0.99,-5.41 3.39,-7.64l15.97 -14.93 -17.24 -8.07c-1.47,-1.86 -2.12,-3.92 -2.12,-6.68l0 -9.15c0,-10.55 -4.31,-20.37 -12.44,-28.32 -0.45,-0.45 -0.9,-0.88 -1.38,-1.3 0.48,-0.42 0.93,-0.87 1.38,-1.3 8.13,-7.98 12.44,-17.77 12.44,-28.35l0 -9.15c0,-1.77 0.31,-4.06 2.4,-6.79l25.37 -11.88 -25.65 -11.97c-1.47,-1.86 -2.12,-3.95 -2.12,-6.68l0 -9.14c0,-7.03 -1.89,-13.66 -5.64,-19.7 -3.36,-5.39 -7.9,-10.1 -13.54,-14.02 -5.2,-3.58 -11.18,-6.46 -17.83,-8.61 -6.72,-2.14 -13.89,-3.21 -21.31,-3.21l0 0zm-15.29 119.6l15.69 0c2,0 3.67,-0.34 5.13,-1.02l2.71 -1.24 0 -3.02 0 -22.32c0,-2.76 -0.53,-6.99 -5.16,-11.76l-2.65 -2.74 0 -8.6 2.96 -2.77c3.33,-3.1 4.85,-6.74 4.85,-11.45l0 -22.32 0 -3.08 -2.79 -1.21c-1.5,-0.65 -3.33,-0.99 -5.45,-0.99l-10.6 0 -4.69 0 0 4.69 0 83.12 0 4.71zm15.29 -114.92c6.94,0 13.63,1.02 19.87,2.99 6.2,2.01 11.79,4.69 16.59,8.01 5.1,3.53 9.22,7.79 12.24,12.65 3.27,5.27 4.94,11.06 4.94,17.21l0 9.14c0,3.81 1.01,6.94 3.13,9.59l0.68 0.87 1.01 0.46 16.57 7.73 -16.31 7.61 -1.05 0.51 -0.7 0.91c-2.99,3.95 -3.33,7.39 -3.33,9.64l0 9.15c0,9.28 -3.81,17.94 -11.06,24.99 -0.4,0.4 -0.82,0.79 -1.24,1.19l-3.81 3.47 3.81 3.44c0.42,0.4 0.84,0.79 1.24,1.19 7.25,7.08 11.06,15.71 11.06,24.99l0 9.15c0,3.8 1.01,6.94 3.13,9.59l0.68 0.87 1.01 0.48 10.95 5.11 -10.92 10.21c-3.36,3.14 -4.85,6.55 -4.85,11.06l0 22.72c0,0.39 0.03,0.7 0.05,0.87l0.17 1.47 0.96 1.07 0.2 0.2 0.14 0.14 0.2 0.17 0.22 0.17c1.39,1.04 2.91,1.15 3.96,1.15l9.36 0 0 22.04 -35.6 0c-6.78,0 -12.87,-2.32 -17.58,-6.74 -2.94,-2.71 -5.02,-5.9 -6.24,-9.4l-2.03 -5.9 0.79 0 0 -4.68 0 -23.28c0,-4.45 -1.52,-7.95 -4.85,-11.09l-1.13 -1.04 -4.51 -8.46 5.64 -5.28c3.33,-3.1 4.85,-6.74 4.85,-11.45l0 -22.32 0 -2.99 -2.71 -1.27c-1.46,-0.68 -3.16,-0.99 -5.13,-0.99l-11 0 -4.69 0 0 4.68 0 83.49 0 4.68 4.69 0 10.97 0 0 7.42 0 14.62 -22.68 0c-4.94,0 -9.48,-0.93 -13.55,-2.79l-1.94 -0.88 -1.95 0.88c-4.06,1.86 -8.61,2.79 -13.52,2.79l-22.68 0 0 -22.04 10.98 0 4.68 0 0 -4.68 0 -80.72c0,-4.46 -1.67,-8.1 -5.25,-11.45l-2.99 -2.77 0 -9 3.16 -2.82c3.5,-3.11 5.08,-6.6 5.08,-11.29l0 -80.35 0 -4.69 -4.68 0 -10.98 0 0 -22.4 22.68 0c4.83,0 9.37,0.96 13.52,2.88l1.95 0.9 1.97 -0.9c4.12,-1.92 8.66,-2.88 13.52,-2.88l22.31 0z"/>
   <path class="fil0" d="M448.44 676.64c4.68,0 8.74,-1.22 12.13,-3.67 3.39,-2.43 5.11,-5.36 5.11,-8.78l0 -24.52c0,-6.82 -2.63,-12.92 -7.85,-18.31l0 -0.73c5.22,-4.85 7.85,-10.98 7.85,-18.28l0 -24.52c0,-3.41 -1.72,-6.35 -5.11,-8.78 -3.39,-2.45 -7.56,-3.66 -12.53,-3.66l-19.18 0c-1.33,0 -2.57,0.48 -3.73,1.46 -1.18,0.99 -1.77,2.2 -1.77,3.67l0 100.98c0,1.47 0.59,2.68 1.77,3.67 1.16,0.99 2.4,1.47 3.73,1.47l19.58 0zm43.87 100.64c0,4.14 1.41,7.61 4.29,10.41 2.88,2.82 6.55,4.2 10.98,4.2l0 3.3 -26.24 0c-4.43,0 -8.16,-1.41 -11.18,-4.2 -2.99,-2.8 -4.48,-6.15 -4.48,-10.07l0 -26.36c0,-7.05 -2.63,-13.03 -7.85,-17.91l-0.39 -0.74 0.39 -0.36c5.22,-4.88 7.85,-10.98 7.85,-18.31l0 -24.52c0,-3.42 -1.72,-6.32 -5.11,-8.78 -3.39,-2.42 -7.45,-3.66 -12.13,-3.66l-19.58 0c-1.33,0 -2.57,0.5 -3.73,1.46 -1.18,0.99 -1.77,2.2 -1.77,3.67l0 93.67c0,3.44 1.38,6.41 4.12,8.97 2.73,2.57 5.95,3.84 9.59,3.84l1.97 0 0 3.3 -13.31 0c-6.27,0 -11.38,-1.94 -15.3,-5.84l-0.39 0c-3.92,3.9 -9,5.84 -15.27,5.84l-13.31 0 0 -3.3 1.94 0c3.67,0 6.86,-1.27 9.6,-3.84 2.76,-2.56 4.12,-5.53 4.12,-8.97l0 -81.96c0,-7.08 -2.74,-13.18 -8.21,-18.28l0 -0.74c5.47,-4.88 8.21,-10.97 8.21,-18.31l0 -81.59c0,-3.67 -1.36,-6.72 -4.12,-9.15 -2.74,-2.45 -5.93,-3.66 -9.6,-3.66l-1.94 0 0 -3.67 13.31 0c6.01,0 11.09,1.97 15.27,5.87l0.39 0.36 0 -0.36c4.18,-3.9 9.29,-5.87 15.3,-5.87l22.31 0c6.01,0 11.68,0.87 17.04,2.57 5.34,1.72 10.05,3.97 14.11,6.77 4.04,2.79 7.22,6.09 9.6,9.87 2.34,3.78 3.52,7.87 3.52,12.28l0 9.14c0,7.3 2.6,13.43 7.82,18.28l0.79 0.37 -0.79 0.36c-5.22,5.39 -7.82,11.49 -7.82,18.31l0 9.15c0,6.82 -2.73,12.92 -8.24,18.31 -5.47,5.36 -12.52,9.14 -21.13,11.34 8.61,2.17 15.66,5.98 21.13,11.34 5.51,5.36 8.24,11.46 8.24,18.28l0 9.15c0,7.33 2.6,13.43 7.82,18.31l0.79 0.36 -0.79 0.74c-5.22,4.88 -7.82,10.86 -7.82,17.91l0 22.72z"/>
   <path class="fil0" d="M633.67 777.84l0 -83.85 11 0c1.61,0 2.54,0.31 3.19,0.67l0 82.5c-0.65,0.37 -1.61,0.68 -3.19,0.68l-11 0 0 0zm0 -115.28l0 -83.12 10.6 0c1.81,0 2.91,0.31 3.59,0.59l0 81.96c-0.91,0.37 -2.12,0.57 -3.59,0.57l-10.6 0 0 0zm10.6 -114.89l-22.31 0c-5.53,0 -10.75,1.13 -15.49,3.3 -4.72,-2.17 -9.93,-3.3 -15.47,-3.3l-27.36 0 0 31.77 15.66 0 0 80.35c0,3.33 -1.02,5.59 -3.5,7.79l-8.55 7.98 6.74 12.61 2.03 1.73c1.22,1.04 2.01,2.03 2.46,3.04 0.53,1.3 0.82,2.68 0.82,4.18l0 80.72 -15.66 0 0 31.4 27.36 0c5.54,0 10.75,-1.1 15.47,-3.3 4.74,2.2 9.96,3.3 15.49,3.3l22.31 0c7.34,0 14.42,-0.98 21.02,-2.93 6.86,-2.03 13.04,-5.02 18.37,-8.89 5.53,-3.98 9.99,-8.72 13.29,-14.02 3.75,-6.01 5.64,-12.64 5.64,-19.67l0 -9.17c0,-2.73 0.65,-4.82 2.12,-6.66l25.65 -11.99 -25.37 -11.85c-2.09,-2.76 -2.4,-5.05 -2.4,-6.82l0 -16.82c0,-4.6 -1.32,-9.31 -3.95,-14.02 -1.63,-2.91 -3.72,-5.67 -6.23,-8.21 1.94,-2.01 3.66,-4.21 5.16,-6.52 3.33,-5.11 5.02,-10.72 5.02,-16.62l0 -15.38c0,-2.73 0.65,-4.82 2.12,-6.68l17.27 -8.07 -16.03 -14.93c-2.37,-2.23 -3.36,-4.45 -3.36,-7.64l0 -9.14c0,-7.03 -1.89,-13.66 -5.64,-19.7 -3.36,-5.39 -7.9,-10.1 -13.54,-14.02 -5.19,-3.58 -11.18,-6.46 -17.83,-8.61 -6.72,-2.14 -13.89,-3.21 -21.31,-3.21l0 0zm-15.29 234.85l15.69 0c2.14,0 3.95,-0.42 5.47,-1.27l2.4 -1.35 0 -2.74 0 -82.5 0 -2.73 -2.4 -1.36c-1.52,-0.84 -3.3,-1.27 -5.47,-1.27l-11 0 -4.69 0 0 4.69 0 83.85 0 4.68zm0 -115.25l4.69 0 10.6 0c2.15,0 3.93,-0.34 5.45,-0.99l2.82 -1.21 0 -3.08 0 -81.96 0 -3.08 -2.82 -1.21c-1.5,-0.65 -3.33,-0.99 -5.45,-0.99l-10.6 0 -4.69 0 0 4.69 0 83.12 0 4.71zm15.29 -114.92c6.94,0 13.63,1.02 19.89,2.99 6.21,2.01 11.8,4.69 16.57,8.01 5.1,3.53 9.22,7.79 12.24,12.65 3.27,5.27 4.94,11.06 4.94,17.21l0 9.14c0,4.51 1.5,7.93 4.85,11.09l10.95 10.18 -10.98 5.14 -0.98 0.45 -0.71 0.87c-2.12,2.65 -3.13,5.79 -3.13,9.59l0 15.38c0,5 -1.44,9.74 -4.26,14.05 -1.36,2.09 -2.91,4.04 -4.63,5.87l-3.13 3.27 3.19 3.25c2.2,2.23 4.06,4.65 5.47,7.19 2.23,3.98 3.36,7.93 3.36,11.74l0 16.82c0,2.25 0.34,5.7 3.33,9.65l0.7 0.93 1.05 0.48 16.31 7.61 -16.57 7.73 -0.98 0.48 -0.71 0.85c-2.12,2.68 -3.13,5.81 -3.13,9.59l0 9.17c0,6.13 -1.67,11.94 -4.94,17.21 -2.99,4.8 -7.02,9.06 -12.05,12.7 -4.91,3.53 -10.6,6.29 -16.95,8.15 -6.18,1.84 -12.81,2.77 -19.7,2.77l-22.31 0c-4.86,0 -9.4,-0.96 -13.52,-2.85l-1.97 -0.9 -1.95 0.9c-4.15,1.89 -8.69,2.85 -13.52,2.85l-22.68 0 0 -22.04 10.98 0 4.68 0 0 -4.68 0 -80.72c0,-2.14 -0.4,-4.12 -1.21,-6.01 -0.74,-1.72 -1.95,-3.27 -3.7,-4.77l-1.35 -1.16 -4.63 -8.66 5.81 -5.44c3.53,-3.11 5.08,-6.6 5.08,-11.29l0 -80.35 0 -4.69 -4.68 0 -10.98 0 0 -22.4 22.68 0c4.83,0 9.37,0.96 13.52,2.88l1.95 0.9 1.97 -0.9c4.12,-1.92 8.69,-2.88 13.52,-2.88l22.31 0z"/>
   <path class="fil0" d="M661.91 692.72c0,-3.42 -1.69,-6.38 -5.11,-8.95 -3.39,-2.56 -7.42,-3.83 -12.13,-3.83l-19.58 0c-1.33,0 -2.54,0.53 -3.73,1.63 -1.18,1.1 -1.77,2.26 -1.77,3.47l0 101.74c0,1.22 0.59,2.37 1.77,3.47 1.19,1.1 2.4,1.64 3.73,1.64l19.58 0c4.71,0 8.74,-1.27 12.13,-3.84 3.42,-2.56 5.11,-5.53 5.11,-8.97l0 -86.36zm-42.32 -21.22c0,1.47 0.59,2.68 1.77,3.67 1.19,0.99 2.4,1.47 3.73,1.47l19.18 0c4.97,0 9.14,-1.22 12.53,-3.67 3.42,-2.43 5.11,-5.36 5.11,-8.78l0 -86.36c0,-3.41 -1.69,-6.35 -5.11,-8.78 -3.39,-2.45 -7.56,-3.66 -12.53,-3.66l-19.18 0c-1.33,0 -2.54,0.48 -3.73,1.46 -1.18,0.99 -1.77,2.2 -1.77,3.67l0 100.98zm68.95 45.74c0,6.85 2.6,12.95 7.85,18.31l0.76 0.36 -0.76 0.37c-5.25,4.88 -7.85,10.98 -7.85,18.28l0 9.17c0,4.38 -1.18,8.47 -3.52,12.25 -2.35,3.78 -5.56,7.14 -9.6,10.07 -4.06,2.94 -8.74,5.19 -14.11,6.77 -5.36,1.58 -11.03,2.37 -17.04,2.37l-22.31 0c-6.01,0 -11.12,-1.94 -15.3,-5.84l-0.39 0c-4.18,3.9 -9.25,5.84 -15.27,5.84l-13.31 0 0 -3.3 1.95 0c3.66,0 6.85,-1.27 9.62,-3.84 2.73,-2.56 4.09,-5.53 4.09,-8.97l0 -81.96c0,-3.41 -0.65,-6.63 -1.95,-9.71 -1.3,-3.04 -3.39,-5.78 -6.26,-8.21l-0.4 -0.73 0.4 -0.37c5.47,-4.88 8.21,-10.97 8.21,-18.31l0 -81.59c0,-3.67 -1.36,-6.72 -4.09,-9.15 -2.77,-2.45 -5.96,-3.66 -9.62,-3.66l-1.95 0 0 -3.67 13.31 0c6.02,0 11.09,1.97 15.27,5.87l0.39 0.36 0 -0.36c4.18,-3.9 9.29,-5.87 15.3,-5.87l22.31 0c6.01,0 11.68,0.87 17.04,2.57 5.37,1.72 10.05,3.97 14.11,6.77 4.04,2.79 7.25,6.09 9.6,9.87 2.34,3.78 3.52,7.87 3.52,12.28l0 9.14c0,7.08 2.6,13.06 7.85,17.91l0.76 0.74 -0.76 0.36c-5.25,4.89 -7.85,10.98 -7.85,18.31l0 15.38c0,3.16 -0.93,6.15 -2.73,8.95 -1.84,2.82 -4.12,5.3 -6.86,7.5 -2.74,2.2 -5.81,3.92 -9.23,5.14 -3.38,1.21 -6.77,1.83 -10.15,1.83 4.14,0 8.01,0.73 11.54,2.17 3.52,1.47 6.6,3.3 9.19,5.5 2.63,2.2 4.66,4.57 6.1,7.14 1.41,2.57 2.14,4.94 2.14,7.14l0 16.82z"/>
   <path class="fil0" d="M892.56 547.67l-77.51 0c-5.53,0 -10.74,1.13 -15.48,3.3 -4.72,-2.17 -9.94,-3.3 -15.47,-3.3l-27.36 0 0 31.77 15.65 0 0 80.35c0,3.33 -1.01,5.59 -3.49,7.79l-8.55 7.98 6.74 12.61 2.03 1.73c1.21,1.04 2.01,2.03 2.46,3.04 0.56,1.3 0.81,2.68 0.81,4.18l0 80.72 -15.65 0 0 31.4 27.36 0c5.53,0 10.75,-1.1 15.47,-3.3 4.74,2.2 9.95,3.3 15.48,3.3l85.75 0 0 -17.72c0,-3.92 -0.82,-7.56 -2.37,-10.77 1.55,-3.22 2.37,-6.75 2.37,-10.44l0 -42.24 -33.63 0 0.82 14.84c0.42,7.2 -0.46,13.57 -2.57,18.96l-0.14 0.37 -0.12 0.36c-0.65,1.98 -1.58,3.87 -2.85,5.76 -1.1,1.64 -2.56,3.16 -4.34,4.54 -1.75,1.36 -4.06,2.54 -6.89,3.5 -2.84,0.96 -6.4,1.44 -10.58,1.44l-13.74 0 0 -83.49 7.88 0c2.59,0 4.57,0.43 5.92,1.27l0 19.95 32.81 0 0 -26.86c0,-3.69 -0.73,-7.14 -2.11,-10.21 1.38,-3.13 2.11,-6.6 2.11,-10.3l0 -26.49 -32.81 0 0 19.58c-1.35,0.84 -3.33,1.27 -5.92,1.27l-7.88 0 0 -83.12 5.53 0c8.02,0 13.97,1.38 17.19,4 3.86,3.13 6.43,6.35 7.64,9.54l0.12 0.37 0.16 0.34c1.95,4.51 2.74,9.96 2.37,16.22l-0.9 14.92 33.69 0 0 -37.86c0,-3.86 -0.82,-7.5 -2.4,-10.78 1.58,-3.3 2.4,-6.94 2.4,-10.8l0 -17.72 0 0zm-4.68 4.68l0 13.04c0,3.13 -0.65,6.09 -1.95,8.77l-0.96 2.03 0.96 2.03c1.3,2.66 1.95,5.62 1.95,8.75l0 33.15 -24.04 0 0.62 -9.93c0.42,-7 -0.51,-13.17 -2.77,-18.39l-0.11 -0.23 -0.08 -0.23c-1.5,-4 -4.55,-7.87 -9.06,-11.54 -4.15,-3.35 -10.92,-5.05 -20.15,-5.05l-5.53 0 -4.68 0 0 4.69 0 83.12 0 4.71 4.68 0 7.88 0c3.52,0 6.26,-0.65 8.4,-2l2.2 -1.39 0 -2.59 0 -14.9 23.45 0 0 21.81c0,3.02 -0.59,5.84 -1.72,8.41l-0.88 1.92 0.91 1.94c1.13,2.46 1.69,5.22 1.69,8.24l0 22.18 -23.45 0 0 -15.27 0 -2.59 -2.2 -1.38c-2.11,-1.33 -4.88,-1.98 -8.4,-1.98l-7.88 0 -4.68 0 0 4.68 0 83.49 0 4.68 4.68 0 13.74 0c4.72,0 8.78,-0.56 12.08,-1.69 3.3,-1.13 6.09,-2.54 8.24,-4.2 2.2,-1.7 4,-3.61 5.39,-5.67 1.49,-2.23 2.62,-4.49 3.38,-6.89l0.09 -0.22 0.11 -0.26c2.34,-6.01 3.33,-13.06 2.88,-20.93l-0.54 -9.91 23.98 0 0 37.56c0,2.99 -0.64,5.81 -1.91,8.41l-0.99 2.03 0.99 2.06c1.27,2.59 1.91,5.53 1.91,8.71l0 13.04 -81.06 0c-4.82,0 -9.39,-0.96 -13.51,-2.85l-1.95 -0.9 -1.97 0.9c-4.15,1.89 -8.69,2.85 -13.52,2.85l-22.68 0 0 -22.04 10.97 0 4.69 0 0 -4.68 0 -80.72c0,-2.14 -0.4,-4.12 -1.21,-6.01 -0.74,-1.72 -1.95,-3.27 -3.7,-4.77l-1.36 -1.16 -4.62 -8.66 5.81 -5.44c3.53,-3.11 5.08,-6.6 5.08,-11.29l0 -80.35 0 -4.69 -4.69 0 -10.97 0 0 -22.4 22.68 0c4.83,0 9.37,0.96 13.52,2.88l1.95 0.9 1.97 -0.9c4.15,-1.92 8.69,-2.88 13.51,-2.88l72.83 0z"/>
   <path class="fil0" d="M886.72 770.31c0,2.93 -1.16,5.5 -3.5,7.67l-2.76 2.94 2.76 2.93c2.34,1.72 3.5,4.26 3.5,7.67l0 3.67 -71.67 0c-6,0 -11.11,-1.94 -15.29,-5.84l-0.36 0c-4.21,3.9 -9.29,5.84 -15.3,5.84l-13.31 0 0 -3.3 1.97 0c3.64,0 6.86,-1.27 9.59,-3.84 2.74,-2.56 4.1,-5.53 4.1,-8.97l0 -81.96c0,-3.41 -0.65,-6.63 -1.95,-9.71 -1.3,-3.04 -3.39,-5.78 -6.27,-8.21l-0.39 -0.73 0.39 -0.37c5.48,-4.88 8.22,-10.97 8.22,-18.31l0 -81.59c0,-3.67 -1.36,-6.72 -4.1,-9.15 -2.73,-2.45 -5.95,-3.66 -9.59,-3.66l-1.97 0 0 -3.67 13.31 0c6.01,0 11.09,1.97 15.3,5.87l0.36 0.36 0 -0.36c4.18,-3.9 9.29,-5.87 15.29,-5.87l63.46 0 0 3.67c0,3.16 -1.19,5.84 -3.53,8.04l-2.73 2.57 2.73 2.93c2.34,2.2 3.53,4.88 3.53,8.04l0 23.79 -4.71 0c0.53,-8.53 -0.65,-16.09 -3.53,-22.69 -2.09,-5.61 -6.07,-10.81 -11.93,-15.54 -5.87,-4.77 -14.56,-7.14 -26.05,-7.14l-14.1 0c-1.3,0 -2.54,0.48 -3.73,1.46 -1.18,0.99 -1.75,2.2 -1.75,3.67l0 100.98c0,1.47 0.57,2.68 1.75,3.67 1.19,0.99 2.43,1.47 3.73,1.47l16.45 0c5.75,0 10.52,-1.36 14.3,-4.04 3.78,-2.68 5.67,-5.98 5.67,-9.87l0 -6.94 4.71 0 0 12.41c0,2.93 -0.93,5.39 -2.73,7.34l-3.53 2.93 3.53 3.27c1.8,1.72 2.73,4.04 2.73,6.97l0 12.81 -4.71 0 0 -6.97c0,-4.15 -1.89,-7.56 -5.67,-10.24 -3.78,-2.68 -8.55,-4.03 -14.3,-4.03l-16.45 0c-1.3,0 -2.54,0.5 -3.73,1.46 -1.18,0.99 -1.75,2.2 -1.75,3.67l0 101.37c0,1.22 0.57,2.37 1.75,3.47 1.19,1.1 2.43,1.64 3.73,1.64l22.31 0c5.76,0 10.78,-0.73 15.1,-2.17 4.32,-1.47 7.96,-3.36 10.97,-5.7 2.99,-2.31 5.48,-4.94 7.42,-7.84 1.98,-2.94 3.48,-5.99 4.52,-9.17 2.88,-7.31 4.03,-15.61 3.53,-24.89l4.68 0 0 28.19z"/>
   <path class="fil0" d="M1034.45 777.84l-14.19 0 0 -83.49 11 0c1.53,0 2.51,0.26 3.19,0.57l0 22.32c0,3.41 -1.02,5.84 -3.39,8.04l-8.29 7.73 6.6 12.33 1.69 1.58c2.37,2.2 3.39,4.51 3.39,7.64l0 23.28 0 0zm-14.19 -115.28l0 -83.12 10.61 0c1.46,0 2.68,0.2 3.58,0.59l0 22.32c0,3.41 -1.02,5.81 -3.39,8.01l-4.45 4.18 0 12.55 3.97 4.09c3.42,3.5 3.87,6.38 3.87,8.49l0 22.32c-0.68,0.31 -1.66,0.57 -3.19,0.57l-11 0 0 0zm10.61 -114.89l-22.32 0c-5.53,0 -10.75,1.13 -15.49,3.3 -4.71,-2.17 -9.93,-3.3 -15.46,-3.3l-27.37 0 0 31.77 15.66 0 0 80.35c0,3.33 -1.02,5.59 -3.5,7.79l-4.74 4.2 0 13.15 4.49 4.18c2.62,2.45 3.75,4.85 3.75,8.01l0 80.72 -15.66 0 0 31.4 27.37 0c5.61,0 10.83,-1.07 15.46,-3.19 4.65,2.12 9.87,3.19 15.49,3.19l27.37 0 0 -19.3c1.46,4.24 3.98,8.05 7.47,11.32 5.59,5.22 12.78,7.98 20.77,7.98l40.32 0 0 -31.4 -14.08 0c-0.65,0 -0.99,-0.08 -1.16,-0.23 0,0 -0.03,-0.02 -0.03,-0.02 -0.03,-0.09 -0.03,-0.17 -0.03,-0.31l0 -22.72c0,-3.18 0.99,-5.41 3.39,-7.64l16 -14.93 -17.27 -8.07c-1.47,-1.86 -2.12,-3.92 -2.12,-6.68l0 -9.15c0,-10.55 -4.28,-20.37 -12.44,-28.35 -0.45,-0.42 -0.9,-0.85 -1.38,-1.27 0.48,-0.42 0.93,-0.87 1.38,-1.3 8.16,-7.98 12.44,-17.77 12.44,-28.35l0 -9.15c0,-1.77 0.32,-4.06 2.4,-6.79l25.4 -11.88 -25.68 -11.99c-1.47,-1.84 -2.12,-3.93 -2.12,-6.66l0 -9.14c0,-7.03 -1.88,-13.66 -5.64,-19.7 -3.35,-5.39 -7.9,-10.1 -13.54,-14.02 -5.19,-3.58 -11.17,-6.46 -17.83,-8.61 -6.72,-2.14 -13.88,-3.21 -21.3,-3.21l0 0zm-15.3 119.6l15.69 0c2,0 3.67,-0.34 5.14,-1.02l2.73 -1.27 0 -2.99 0 -22.32c0,-2.76 -0.53,-6.99 -5.19,-11.76l-2.65 -2.74 0 -8.6 2.96 -2.77c3.33,-3.1 4.88,-6.74 4.88,-11.45l0 -22.32 0 -3.08 -2.82 -1.21c-1.52,-0.68 -3.3,-0.99 -5.44,-0.99l-10.61 0 -4.69 0 0 4.69 0 83.12 0 4.71zm15.3 -114.92c6.94,0 13.62,1.02 19.89,2.99 6.2,2.01 11.76,4.69 16.56,8.01 5.11,3.53 9.23,7.79 12.24,12.65 3.28,5.27 4.94,11.06 4.94,17.21l0 9.14c0,3.78 1.02,6.94 3.13,9.59l0.71 0.85 0.99 0.48 16.59 7.73 -16.31 7.61 -1.07 0.51 -0.71 0.91c-2.99,3.95 -3.33,7.39 -3.33,9.64l0 9.15c0,9.28 -3.81,17.94 -11.03,24.99 -0.42,0.4 -0.85,0.79 -1.27,1.19l-3.78 3.47 3.78 3.44c0.42,0.4 0.85,0.79 1.27,1.19 7.22,7.08 11.03,15.71 11.03,24.99l0 9.15c0,3.8 1.02,6.94 3.13,9.59l0.68 0.87 1.02 0.48 10.97 5.11 -10.95 10.21c-3.35,3.14 -4.85,6.55 -4.85,11.06l0 22.72c0,0.36 0.03,0.65 0.06,0.81l0.2 1.81 1.24 1.1 0.17 0.17 0.28 0.23c1.38,1.01 2.93,1.12 3.95,1.12l9.39 0 0 22.04 -35.63 0c-6.77,0 -12.87,-2.32 -17.58,-6.74 -2.9,-2.71 -5.02,-5.9 -6.23,-9.4l-2.04 -5.9 0.82 0 0 -4.68 0 -23.28c0,-4.45 -1.55,-7.95 -4.88,-11.09l-1.13 -1.04 -4.51 -8.46 5.67 -5.28c3.3,-3.1 4.85,-6.74 4.85,-11.45l0 -22.32 0 -2.99 -2.73 -1.27c-1.47,-0.68 -3.14,-0.99 -5.14,-0.99l-11 0 -4.69 0 0 4.68 0 83.49 0 4.68 4.69 0 10.97 0 0 7.42 0 14.62 -22.68 0c-4.91,0 -9.48,-0.93 -13.54,-2.79l-1.95 -0.88 -1.92 0.88c-4.06,1.86 -8.63,2.79 -13.54,2.79l-22.69 0 0 -22.04 10.98 0 4.68 0 0 -4.68 0 -80.72c0,-4.46 -1.66,-8.1 -5.25,-11.45l-2.96 -2.77 0 -9 3.13 -2.82c3.53,-3.11 5.08,-6.6 5.08,-11.29l0 -80.35 0 -4.69 -4.68 0 -10.98 0 0 -22.4 22.69 0c4.82,0 9.37,0.96 13.51,2.88l1.95 0.9 1.97 -0.9c4.12,-1.92 8.69,-2.88 13.52,-2.88l22.32 0z"/>
   <path class="fil0" d="M1031.26 676.64c4.71,0 8.75,-1.22 12.13,-3.67 3.42,-2.43 5.11,-5.36 5.11,-8.78l0 -24.52c0,-6.82 -2.62,-12.92 -7.84,-18.31l0 -0.73c5.22,-4.85 7.84,-10.98 7.84,-18.28l0 -24.52c0,-3.41 -1.69,-6.35 -5.11,-8.78 -3.38,-2.45 -7.56,-3.66 -12.52,-3.66l-19.19 0c-1.33,0 -2.54,0.48 -3.72,1.46 -1.19,0.99 -1.75,2.2 -1.75,3.67l0 100.98c0,1.47 0.56,2.68 1.75,3.67 1.18,0.99 2.39,1.47 3.72,1.47l19.58 0zm43.87 100.64c0,4.14 1.44,7.61 4.32,10.41 2.85,2.82 6.52,4.2 10.95,4.2l0 3.3 -26.24 0c-4.43,0 -8.15,-1.41 -11.15,-4.2 -3.01,-2.8 -4.51,-6.15 -4.51,-10.07l0 -26.36c0,-7.05 -2.62,-13.03 -7.84,-17.91l-0.4 -0.74 0.4 -0.36c5.22,-4.88 7.84,-10.98 7.84,-18.31l0 -24.52c0,-3.42 -1.69,-6.32 -5.11,-8.78 -3.38,-2.42 -7.42,-3.66 -12.13,-3.66l-19.58 0c-1.33,0 -2.54,0.5 -3.72,1.46 -1.19,0.99 -1.75,2.2 -1.75,3.67l0 93.67c0,3.44 1.35,6.41 4.09,8.97 2.74,2.57 5.95,3.84 9.59,3.84l1.98 0 0 3.3 -13.32 0c-6.26,0 -11.37,-1.94 -15.29,-5.84l-0.37 0c-3.92,3.9 -9.03,5.84 -15.29,5.84l-13.32 0 0 -3.3 1.95 0c3.66,0 6.85,-1.27 9.62,-3.84 2.73,-2.56 4.09,-5.53 4.09,-8.97l0 -81.96c0,-7.08 -2.74,-13.18 -8.21,-18.28l0 -0.74c5.47,-4.88 8.21,-10.97 8.21,-18.31l0 -81.59c0,-3.67 -1.36,-6.72 -4.09,-9.15 -2.77,-2.45 -5.96,-3.66 -9.62,-3.66l-1.95 0 0 -3.67 13.32 0c6.01,0 11.09,1.97 15.29,5.87l0.37 0.36 0 -0.36c4.17,-3.9 9.28,-5.87 15.29,-5.87l22.32 0c6.01,0 11.68,0.87 17.04,2.57 5.36,1.72 10.04,3.97 14.1,6.77 4.04,2.79 7.26,6.09 9.6,9.87 2.34,3.78 3.52,7.87 3.52,12.28l0 9.14c0,7.3 2.6,13.43 7.85,18.28l0.76 0.37 -0.76 0.36c-5.25,5.39 -7.85,11.49 -7.85,18.31l0 9.15c0,6.82 -2.73,12.92 -8.23,18.31 -5.48,5.36 -12.53,9.14 -21.14,11.34 8.61,2.17 15.66,5.98 21.14,11.34 5.5,5.36 8.23,11.46 8.23,18.28l0 9.15c0,7.33 2.6,13.43 7.85,18.31l0.76 0.36 -0.76 0.74c-5.25,4.88 -7.85,10.86 -7.85,17.91l0 22.72z"/>
   <path class="fil0" d="M1221.23 547.67l-7.06 0c-7.42,0 -14.58,1.07 -21.3,3.21 -6.71,2.15 -12.72,5.08 -17.83,8.75 -5.42,3.87 -9.82,8.55 -13.15,13.88 -3.75,6.04 -5.64,12.67 -5.64,19.7l0 46.46c0,8.13 2.54,15.78 7.56,22.69 4.57,6.32 10.81,11.51 18.54,15.46l0.2 0.11 2.11 0.99c2.88,1.64 4.6,3.73 5.53,6.72l0.4 1.24 6.49 12.1 12.1 -3.75c1.27,-0.37 2.48,-0.54 3.7,-0.54 1.91,0 3.83,0.48 5.84,1.41l6.46 3.56 0 77.36c-0.73,0.42 -1.81,0.82 -3.56,0.82l-7.05 0c-4.32,0 -10.1,-0.59 -13.26,-3.47 -3.81,-3.47 -6.55,-7.14 -8.32,-11.14 -2.21,-5.05 -3.53,-11.07 -3.95,-17.92l-0.79 -13.2 -32 0 0 37.83c0,3.95 0.79,7.65 2.34,10.98 -1.55,3.32 -2.34,7.02 -2.34,10.97l0 14.08 32.81 0 0 -1.16c1.98,0.71 4.04,1.36 6.15,1.95 6.16,1.66 12.53,2.48 18.96,2.48l7.06 0c7.62,0 14.81,-0.98 21.41,-2.93 6.94,-2.06 13.09,-5.08 18.34,-9 5.31,-3.98 9.65,-8.66 12.92,-13.91 3.76,-6.01 5.65,-12.64 5.65,-19.67l0 -66.61c0,-8.1 -2.54,-15.74 -7.56,-22.71 -4.57,-6.29 -10.81,-11.49 -18.51,-15.44l-9.06 -4.4c-2.51,-1.32 -4.18,-2.93 -5.22,-5.05l0 -16.87 -18.68 5.81c-1.21,0.23 -2.37,0.31 -3.47,0.31 -2.23,0 -4.34,-0.42 -6.43,-1.3l0 -57.44c0.9,-0.39 2.09,-0.59 3.55,-0.59l7.06 0c6.32,0 10.89,1.21 13.57,3.58 3.75,3.33 6.4,6.86 7.93,10.5l0.08 0.17c2.2,5.05 3.53,11.08 3.95,17.94l0.82 13.2 31.97 0 0 -37.86c0,-3.86 -0.82,-7.5 -2.4,-10.78 1.58,-3.3 2.4,-6.94 2.4,-10.8l0 -14.42 -32.82 0 0 1.3c-7.87,-3.05 -16.42,-4.6 -25.5,-4.6l0 0zm0 4.68c8.49,0 16.48,1.44 23.81,4.26l6.38 2.48 0 -3.44 23.44 0 0 9.74c0,3.13 -0.65,6.09 -1.94,8.77l-0.96 2.03 0.96 2.03c1.29,2.66 1.94,5.62 1.94,8.75l0 33.15 -22.88 0 -0.53 -8.77c-0.48,-7.42 -1.92,-14 -4.35,-19.53l-0.06 -0.14c-1.77,-4.26 -4.85,-8.35 -9.14,-12.16 -3.61,-3.21 -9.05,-4.77 -16.67,-4.77l-7.06 0c-2.14,0 -3.92,0.34 -5.44,0.99l-2.79 1.21 0 3.08 0 57.44 0 3.11 2.85 1.21c2.68,1.13 5.38,1.69 8.26,1.69 1.38,0 2.82,-0.14 4.29,-0.42l0.28 -0.03 0.28 -0.08 12.62 -3.95 0 10.52 0 1.07 0.48 0.99c1.46,2.99 3.83,5.33 7.22,7.14l0.08 0.03 0.09 0.03 8.94 4.37c7.06,3.61 12.73,8.32 16.85,14.02 4.43,6.12 6.68,12.84 6.68,19.95l0 66.61c0,6.15 -1.66,11.94 -4.93,17.21 -2.97,4.74 -6.92,8.98 -11.77,12.62 -4.77,3.58 -10.44,6.34 -16.84,8.23 -6.18,1.84 -12.95,2.77 -20.09,2.77l-7.06 0c-6.03,0 -11.99,-0.79 -17.71,-2.34 -2.01,-0.54 -3.95,-1.13 -5.79,-1.81l-6.29 -2.31 0 3.19 -23.45 0 0 -9.4c0,-3.24 0.65,-6.26 1.92,-9l0.9 -1.97 -0.9 -1.98c-1.27,-2.71 -1.92,-5.76 -1.92,-9l0 -33.15 22.89 0 0.53 8.8c0.45,7.39 1.92,13.97 4.35,19.53 2.06,4.65 5.16,8.8 9.45,12.72 3.41,3.1 8.94,4.68 16.42,4.68l7.05 0c2.32,0 4.24,-0.48 5.93,-1.46l2.31 -1.36 0 -2.68 0 -77.36 0 -2.79 -2.42 -1.33 -6.47 -3.56 -0.11 -0.05 -0.17 -0.09c-2.65,-1.24 -5.22,-1.83 -7.81,-1.83 -1.64,0 -3.28,0.23 -5.11,0.73l-8.38 2.63 -4.46 -8.33 -0.25 -0.81c-1.33,-4.1 -3.84,-7.17 -7.68,-9.4l-0.16 -0.08 -0.2 -0.09 -1.95 -0.9 -0.23 -0.12c-7.05,-3.61 -12.72,-8.32 -16.87,-14.05 -4.4,-6.09 -6.66,-12.81 -6.66,-19.92l0 -46.46c0,-6.15 1.67,-11.94 4.94,-17.21 2.99,-4.83 7,-9.03 11.91,-12.56 4.71,-3.36 10.27,-6.09 16.5,-8.07 6.27,-2 12.95,-3.02 19.89,-3.02l7.06 0z"/>
   <path class="fil0" d="M1265.5 565.39c0,3.16 -1.19,5.84 -3.53,8.04l-2.74 2.57 2.74 2.93c2.34,2.2 3.53,4.88 3.53,8.04l0 23.79 -4.71 0c-0.54,-8.53 -2.23,-16.09 -5.08,-22.69 -2.37,-5.61 -6.21,-10.81 -11.57,-15.54 -5.36,-4.77 -12.98,-7.14 -22.91,-7.14l-7.06 0c-4.96,0 -9.14,1.21 -12.52,3.66 -3.42,2.43 -5.11,5.37 -5.11,8.78l0 61.84c0,4.15 2.48,7.57 7.45,10.25 6.26,2.93 12.92,3.66 19.97,2.2l1.19 -0.37 0 0.37c2.09,6.57 6.38,11.59 12.92,15.01l9 4.37c5.76,2.93 10.24,6.66 13.52,11.17 3.27,4.52 4.91,9.34 4.91,14.45l0 66.61c0,4.38 -1.19,8.47 -3.53,12.25 -2.34,3.78 -5.5,7.14 -9.4,10.07 -3.92,2.94 -8.57,5.19 -13.91,6.77 -5.36,1.58 -11.17,2.37 -17.43,2.37l-7.06 0c-5.22,0 -10.32,-0.67 -15.26,-2 -4.96,-1.36 -9.28,-3.13 -12.92,-5.31 -1.07,-0.73 -2.51,-1.1 -4.32,-1.1 -1.83,0 -3.41,0.43 -4.71,1.27 -1.3,0.88 -1.95,2.01 -1.95,3.47l0 0.37 -4.71 0c0,-3.41 1.19,-6.21 3.53,-8.41l2.74 -2.56 -2.74 -2.57c-2.34,-2.17 -3.53,-5 -3.53,-8.41l0 -23.78 4.71 0c0.51,8.54 2.2,16.11 5.08,22.68 2.62,5.87 6.52,11.17 11.77,15.91 5.22,4.77 12.78,7.14 22.71,7.14l7.05 0c4.69,0 8.81,-1.27 12.33,-3.84 3.53,-2.56 5.31,-5.53 5.31,-8.97l0 -81.59c0,-4.63 -2.49,-8.04 -7.45,-10.25l-6.66 -3.66c-6.55,-3.16 -13.2,-3.78 -19.98,-1.84l-1.18 0.37 -0.4 -0.73c-2.08,-6.58 -6.26,-11.57 -12.52,-14.99l-2.34 -1.1c-5.76,-2.93 -10.28,-6.66 -13.52,-11.17 -3.27,-4.51 -4.91,-9.34 -4.91,-14.45l0 -46.46c0,-4.41 1.19,-8.5 3.53,-12.28 2.34,-3.78 5.47,-7.08 9.39,-9.87 3.92,-2.8 8.55,-5.05 13.91,-6.77 5.36,-1.7 11.03,-2.57 17.04,-2.57l7.06 0c10.69,0 20.23,2.57 28.58,7.7 1.33,0.73 2.76,1.1 4.32,1.1 1.83,0 3.38,-0.42 4.71,-1.3 1.3,-0.84 1.95,-2 1.95,-3.47l0 -0.73 4.71 0 0 0.37z"/>
   <path class="fil0" d="M1404.93 777.84l-1.61 0 0 -83.49 14.2 0 0 83.49 -12.59 0 0 0zm-1.61 -115.28l0 -83.12 14.2 0 0 83.12 -14.2 0 0 0zm84.62 -114.89l-27.4 0c-5.59,0 -10.86,1.15 -15.63,3.38 -4.82,-2.25 -9.93,-3.38 -15.29,-3.38l-38.01 0c-5.53,0 -10.75,1.13 -15.49,3.3 -4.71,-2.17 -9.93,-3.3 -15.46,-3.3l-27.36 0 0 31.77 15.65 0 0 80.35c0,3.33 -1.01,5.59 -3.49,7.79l-4.72 4.2 0 13.15 4.46 4.18c2.63,2.45 3.75,4.85 3.75,8.01l0 75.39c0,3.05 -0.36,4.65 -0.59,5.33l-15.06 0 0 31.4 27.36 0c5.53,0 10.75,-1.1 15.46,-3.3 4.74,2.2 9.96,3.3 15.49,3.3l38.01 0c5.36,0 10.47,-1.13 15.29,-3.36 4.77,2.23 10.04,3.36 15.63,3.36l27.4 0 0 -31.4 -15.69 0 0 -80.72c0,-3.16 1.02,-5.45 3.39,-7.65l15.99 -14.95 -17.26 -8.04c-1.47,-1.86 -2.12,-3.95 -2.12,-6.69l0 -80.35 15.69 0 0 -31.77 0 0zm-83.01 234.85l0 0 0 0 17.27 0 0 -4.68 0 -83.49 0 -4.68 -4.68 0 -14.2 0 -4.68 0 0 4.68 0 83.49 0 4.68 4.68 0 1.61 0zm-6.29 -115.25l4.68 0 14.2 0 4.68 0 0 -4.71 0 -83.12 0 -4.69 -4.68 0 -14.2 0 -4.68 0 0 4.69 0 83.12 0 4.71zm84.59 -114.92l0 22.4 -10.98 0 -4.68 0 0 4.69 0 80.35c0,3.81 1.01,6.94 3.13,9.59l0.7 0.88 0.99 0.45 10.98 5.14 -10.95 10.18c-3.3,3.1 -4.85,6.63 -4.85,11.09l0 80.72 0 4.68 4.68 0 10.98 0 0 22.04 -22.69 0c-4.88,0 -9.48,-0.99 -13.65,-2.94l-1.98 -0.93 -1.97 0.93c-4.18,1.95 -8.66,2.94 -13.32,2.94l-38.01 0c-4.82,0 -9.39,-0.96 -13.51,-2.85l-1.98 -0.9 -1.94 0.9c-4.15,1.89 -8.69,2.85 -13.52,2.85l-22.68 0 0 -22.04 10.38 0 3.42 0 1.04 -3.24c0.37,-1.16 0.82,-3.27 0.82,-6.77l0 -75.39c0,-4.46 -1.67,-8.1 -5.25,-11.45l-2.96 -2.77 0 -9 3.13 -2.82c3.53,-3.11 5.08,-6.6 5.08,-11.29l0 -80.35 0 -4.69 -4.69 0 -10.97 0 0 -22.4 22.68 0c4.83,0 9.37,0.96 13.52,2.88l1.94 0.9 1.98 -0.9c4.15,-1.92 8.69,-2.88 13.51,-2.88l38.01 0c4.63,0 9.11,0.99 13.32,2.94l1.97 0.93 1.98 -0.93c4.17,-1.95 8.77,-2.94 13.65,-2.94l22.69 0z"/>
   <path class="fil0" d="M1471.91 565.39c-3.67,0 -6.85,1.21 -9.59,3.66 -2.74,2.43 -4.12,5.48 -4.12,9.15l0 81.59c0,7.34 2.6,13.43 7.84,18.31l0.77 0.37 -0.77 0.73c-5.24,4.88 -7.84,10.84 -7.84,17.92l0 81.96c0,3.44 1.38,6.41 4.12,8.97 2.74,2.57 5.92,3.84 9.59,3.84l1.95 0 0 3.3 -13.32 0c-6.01,0 -11.09,-1.94 -15.26,-5.84l-0.4 0c-4.71,3.9 -9.79,5.84 -15.26,5.84l-13.35 0 0 -3.3 1.58 0c3.93,0 7.2,-1.27 9.79,-3.84 2.63,-2.56 3.93,-5.53 3.93,-8.97l0 -93.67c0,-3.41 -1.84,-5.13 -5.48,-5.13l-31.34 0c-1.3,0 -2.54,0.5 -3.73,1.46 -1.18,0.99 -1.75,2.2 -1.75,3.67l0 93.67c0,3.44 1.36,6.41 4.09,8.97 2.77,2.57 5.96,3.84 9.6,3.84l1.97 0 0 3.3 -13.32 0c-6,0 -11.11,-1.94 -15.29,-5.84l-0.36 0c-4.21,3.9 -9.29,5.84 -15.3,5.84l-13.31 0 0 -3.3 1.97 0c3.64,0 6.83,-1.52 9.59,-4.57 2.74,-3.05 4.1,-7.98 4.1,-14.81l0 -75.39c0,-7.08 -2.74,-13.18 -8.22,-18.28l0 -0.74c5.48,-4.88 8.22,-10.97 8.22,-18.31l0 -81.59c0,-3.67 -1.36,-6.72 -4.1,-9.15 -2.76,-2.45 -5.95,-3.66 -9.59,-3.66l-1.97 0 0 -3.67 13.31 0c6.01,0 11.09,1.97 15.3,5.87l0.36 0.36 0 -0.36c4.18,-3.9 9.29,-5.87 15.29,-5.87l13.32 0 0 3.67 -1.97 0c-3.64,0 -6.83,1.21 -9.6,3.66 -2.73,2.43 -4.09,5.48 -4.09,9.15l0 93.3c0,1.47 0.57,2.68 1.75,3.67 1.19,0.99 2.43,1.47 3.73,1.47l31.34 0c3.64,0 5.48,-1.73 5.48,-5.14l0 -93.3c0,-3.67 -1.3,-6.72 -3.93,-9.15 -2.59,-2.45 -5.86,-3.66 -9.79,-3.66l-1.58 0 0 -3.67 13.35 0c5.47,0 10.55,1.97 15.26,5.87l0 0.36 0.4 -0.36c4.17,-3.9 9.25,-5.87 15.26,-5.87l13.32 0 0 3.67 -1.95 0z"/>
   <path class="fil0" d="M1596.08 777.84c-1.94,0 -2.99,-0.37 -3.58,-0.68l0 -80.04c0,-2.03 0.45,-4.54 3.78,-7.65l1.69 -1.61 1.84 -3.38 1.8 3.38 1.7 1.61c2.37,2.2 3.38,4.49 3.38,7.65l0 80.04c-0.59,0.31 -1.63,0.68 -3.55,0.68l-7.06 0 0 0zm3.73 -106.73l-3.53 -3.28c-2.65,-2.48 -3.78,-4.88 -3.78,-8.04l0 -79.76c0.9,-0.39 2.09,-0.59 3.58,-0.59l7.06 0c1.8,0 2.9,0.31 3.55,0.59l0 79.76c0,3.42 -1.01,5.81 -3.38,8.04l-3.5 3.28 0 0zm3.33 -123.44l-7.06 0c-7.42,0 -14.61,1.07 -21.33,3.21 -6.71,2.15 -12.69,5.08 -17.8,8.75 -5.42,3.87 -9.85,8.55 -13.18,13.88 -3.72,6.04 -5.64,12.67 -5.64,19.7l0 66.58c0,3.16 -1.13,5.56 -3.75,8.04l-4.46 4.15 0 12.58 4.01 4.1c3.78,3.86 4.2,6.68 4.2,8.46l0 66.61c0,7.03 1.92,13.66 5.64,19.67 3.28,5.25 7.62,9.93 12.93,13.91 5.24,3.92 11.42,6.94 18.34,8.97 6.6,1.98 13.68,2.96 21.04,2.96l7.06 0c7.33,0 14.41,-0.98 21.02,-2.93 6.82,-2.03 13,-5.02 18.34,-8.89 5.53,-3.98 10.01,-8.72 13.29,-14.02 3.75,-6.01 5.67,-12.64 5.67,-19.67l0 -66.61c0,-1.75 0.28,-4.06 2.37,-6.8l25.36 -11.85 -25.62 -11.99c-1.47,-1.86 -2.11,-3.95 -2.11,-6.69l0 -66.58c0,-7.03 -1.92,-13.66 -5.65,-19.7 -3.35,-5.39 -7.92,-10.1 -13.54,-14.02 -5.19,-3.58 -11.2,-6.46 -17.86,-8.61 -6.71,-2.14 -13.88,-3.21 -21.27,-3.21l0 0zm-4.4 128.85l-3.08 5.73 -1.47 2.74 -1.13 1.04c-4.71,4.4 -5.24,8.44 -5.24,11.09l0 80.04 0 2.8 2.48 1.32c1.52,0.82 3.47,1.24 5.78,1.24l7.06 0c2.28,0 4.23,-0.42 5.75,-1.24l2.49 -1.32 0 -2.8 0 -80.04c0,-4.46 -1.56,-7.99 -4.86,-11.09l-1.15 -1.04 -1.44 -2.74 -3.05 -5.73 2.12 -1.97 3.49 -3.27c3.33,-3.14 4.89,-6.78 4.89,-11.49l0 -79.76 0 -3.08 -2.83 -1.21c-1.46,-0.65 -3.3,-0.99 -5.41,-0.99l-7.06 0c-2.14,0 -3.92,0.34 -5.44,0.99l-2.82 1.21 0 3.08 0 79.76c0,4.46 1.66,8.1 5.24,11.46l3.53 3.3 2.15 1.97zm4.4 -124.17c6.91,0 13.6,1.02 19.86,2.99 6.21,2.01 11.79,4.69 16.59,8.01 5.11,3.53 9.23,7.79 12.22,12.65 3.3,5.27 4.93,11.06 4.93,17.21l0 66.58c0,3.81 1.05,6.94 3.16,9.59l0.68 0.88 0.99 0.45 16.56 7.76 -16.28 7.59 -1.04 0.51 -0.71 0.93c-2.99,3.95 -3.36,7.39 -3.36,9.62l0 66.61c0,6.15 -1.63,11.94 -4.93,17.21 -2.97,4.77 -7.03,9.06 -12.05,12.7 -4.91,3.53 -10.61,6.29 -16.93,8.15 -6.18,1.84 -12.81,2.77 -19.69,2.77l-7.06 0c-6.91,0 -13.54,-0.93 -19.72,-2.77 -6.37,-1.89 -12.05,-4.65 -16.84,-8.23 -4.86,-3.62 -8.81,-7.88 -11.77,-12.64 -3.27,-5.25 -4.94,-11.06 -4.94,-17.19l0 -66.61c0,-4.06 -1.8,-7.93 -5.53,-11.74l-2.67 -2.73 0 -8.64 2.96 -2.76c3.58,-3.36 5.24,-7 5.24,-11.46l0 -66.58c0,-6.15 1.67,-11.94 4.94,-17.21 3.02,-4.83 7.03,-9.03 11.91,-12.56 4.71,-3.36 10.27,-6.09 16.53,-8.07 6.24,-2 12.95,-3.02 19.89,-3.02l7.06 0z"/>
   <path class="fil0" d="M1612.93 678.1c5.22,-4.88 7.81,-10.97 7.81,-18.31l0 -81.96c0,-3.41 -1.69,-6.35 -5.08,-8.78 -3.41,-2.45 -7.59,-3.66 -12.52,-3.66l-7.06 0c-4.96,0 -9.17,1.21 -12.55,3.66 -3.39,2.43 -5.08,5.37 -5.08,8.78l0 81.96c0,7.08 2.74,13.18 8.21,18.31l0.39 0.37 -0.39 0.73c-5.47,5.11 -8.21,11.09 -8.21,17.92l0 81.96c0,3.44 1.69,6.41 5.08,8.97 3.38,2.57 7.59,3.84 12.55,3.84l7.06 0c4.93,0 9.11,-1.27 12.52,-3.84 3.39,-2.56 5.08,-5.53 5.08,-8.97l0 -81.96c0,-7.08 -2.59,-13.04 -7.81,-17.92l-0.4 -0.73 0.4 -0.37zm43.08 0.37l-0.79 0.37c-5.22,5.36 -7.84,11.45 -7.84,18.28l0 66.61c0,4.38 -1.16,8.47 -3.53,12.25 -2.34,3.78 -5.53,7.14 -9.59,10.07 -4.04,2.94 -8.75,5.19 -14.11,6.77 -5.33,1.58 -11.03,2.37 -17.01,2.37l-7.06 0c-6.01,0 -11.71,-0.79 -17.04,-2.37 -5.36,-1.58 -9.99,-3.83 -13.91,-6.77 -3.92,-2.93 -7.05,-6.29 -9.39,-10.07 -2.37,-3.78 -3.53,-7.87 -3.53,-12.25l0 -66.61c0,-6.57 -2.74,-12.67 -8.24,-18.28l0 -0.74c5.5,-5.13 8.24,-11.23 8.24,-18.31l0 -66.58c0,-4.41 1.16,-8.5 3.53,-12.28 2.34,-3.78 5.47,-7.08 9.39,-9.87 3.92,-2.8 8.55,-5.05 13.91,-6.77 5.33,-1.7 11.03,-2.57 17.04,-2.57l7.06 0c5.98,0 11.68,0.87 17.01,2.57 5.36,1.72 10.07,3.97 14.11,6.77 4.06,2.79 7.25,6.09 9.59,9.87 2.37,3.78 3.53,7.87 3.53,12.28l0 66.58c0,7.34 2.62,13.43 7.84,18.31l0.79 0.37z"/>
   <path class="fil0" d="M1754.28 662.56l0 -83.12 10.61 0c1.47,0 2.68,0.2 3.55,0.59l0 22.32c0,3.41 -0.98,5.81 -3.35,8.01l-4.46 4.18 0 12.55 3.98 4.09c3.41,3.5 3.83,6.38 3.83,8.49l0 22.32c-0.9,0.37 -2.08,0.57 -3.55,0.57l-10.61 0 0 0zm10.61 -114.89l-22.32 0c-5.53,0 -10.75,1.13 -15.49,3.3 -4.71,-2.17 -9.93,-3.3 -15.46,-3.3l-27.37 0 0 31.77 15.66 0 0 80.35c0,3.33 -1.01,5.59 -3.5,7.79l-4.74 4.2 0 13.15 4.46 4.18c2.65,2.45 3.78,4.85 3.78,8.01l0 80.72 -15.66 0 0 31.4 27.37 0c5.62,0 10.81,-1.07 15.46,-3.19 4.66,2.12 9.88,3.19 15.49,3.19l27.37 0 0 -31.4 -15.66 0 0 -83.49 10.61 0c7.45,0 14.61,-1.1 21.3,-3.21 6.66,-2.15 12.67,-5.02 17.83,-8.64 5.65,-3.86 10.19,-8.6 13.55,-13.99 3.75,-6.04 5.64,-12.67 5.64,-19.69l0 -9.15c0,-1.77 0.31,-4.06 2.4,-6.79l25.39 -11.88 -25.68 -11.99c-1.46,-1.84 -2.11,-3.93 -2.11,-6.66l0 -9.14c0,-7.03 -1.89,-13.66 -5.64,-19.7 -3.36,-5.39 -7.9,-10.1 -13.55,-14.02 -5.19,-3.58 -11.17,-6.46 -17.83,-8.61 -6.71,-2.14 -13.88,-3.21 -21.3,-3.21l0 0zm-15.29 119.6l15.29 0c2.14,0 3.92,-0.34 5.42,-0.99l2.82 -1.21 0 -3.08 0 -22.32c0,-2.76 -0.54,-6.99 -5.17,-11.76l-2.65 -2.74 0 -8.6 2.97 -2.77c3.32,-3.1 4.85,-6.74 4.85,-11.45l0 -22.32 0 -3.08 -2.8 -1.21c-1.52,-0.65 -3.3,-0.99 -5.44,-0.99l-10.61 0 -4.68 0 0 4.69 0 83.12 0 4.71zm15.29 -114.92c6.94,0 13.63,1.02 19.86,2.99 6.21,2.01 11.8,4.69 16.59,8.01 5.11,3.53 9.23,7.79 12.25,12.65 3.27,5.27 4.94,11.06 4.94,17.21l0 9.14c0,3.78 1.01,6.94 3.13,9.59l0.67 0.85 1.02 0.48 16.56 7.73 -16.31 7.61 -1.04 0.51 -0.71 0.91c-2.99,3.95 -3.32,7.39 -3.32,9.64l0 9.15c0,6.15 -1.67,11.93 -4.94,17.21 -3.02,4.85 -7.14,9.11 -12.22,12.64 -4.8,3.33 -10.38,6.01 -16.59,7.98 -6.26,2.01 -12.95,3.02 -19.89,3.02l-10.61 0 -4.68 0 0 4.68 0 83.49 0 4.68 4.68 0 10.98 0 0 22.04 -22.69 0c-4.94,0 -9.48,-0.93 -13.54,-2.79l-1.95 -0.88 -1.95 0.88c-4.06,1.86 -8.6,2.79 -13.51,2.79l-22.68 0 0 -22.04 10.97 0 4.69 0 0 -4.68 0 -80.72c0,-4.46 -1.67,-8.1 -5.25,-11.45l-2.99 -2.77 0 -9 3.16 -2.82c3.5,-3.11 5.08,-6.6 5.08,-11.29l0 -80.35 0 -4.69 -4.69 0 -10.97 0 0 -22.4 22.68 0c4.83,0 9.37,0.96 13.51,2.88l1.95 0.9 1.98 -0.9c4.12,-1.92 8.66,-2.88 13.51,-2.88l22.32 0z"/>
   <path class="fil0" d="M1774.68 620.63c5.22,-4.85 7.84,-10.98 7.84,-18.28l0 -24.52c0,-3.41 -1.72,-6.35 -5.1,-8.78 -3.39,-2.45 -7.56,-3.66 -12.53,-3.66l-19.19 0c-1.32,0 -2.56,0.48 -3.72,1.46 -1.18,0.99 -1.78,2.2 -1.78,3.67l0 100.98c0,1.47 0.6,2.68 1.78,3.67 1.16,0.99 2.4,1.47 3.72,1.47l19.19 0c4.97,0 9.14,-1.22 12.53,-3.67 3.38,-2.43 5.1,-5.36 5.1,-8.78l0 -24.52c0,-6.82 -2.62,-12.92 -7.84,-18.31l0 -0.73zm43.08 0.37l-0.79 0.36c-5.22,5.39 -7.81,11.49 -7.81,18.31l0 9.15c0,4.4 -1.19,8.49 -3.53,12.27 -2.37,3.78 -5.56,7.05 -9.59,9.87 -4.07,2.8 -8.78,5.05 -14.11,6.78 -5.36,1.69 -11.03,2.54 -17.04,2.54l-19.19 0c-1.32,0 -2.56,0.5 -3.72,1.46 -1.18,0.99 -1.78,2.2 -1.78,3.67l0 93.67c0,3.44 1.38,6.41 4.12,8.97 2.74,2.57 5.95,3.84 9.59,3.84l1.98 0 0 3.3 -13.32 0c-6.29,0 -11.37,-1.94 -15.29,-5.84l-0.39 0c-3.93,3.9 -9.01,5.84 -15.27,5.84l-13.32 0 0 -3.3 1.95 0c3.67,0 6.86,-1.27 9.59,-3.84 2.77,-2.56 4.12,-5.53 4.12,-8.97l0 -81.96c0,-7.08 -2.73,-13.18 -8.21,-18.28l0 -0.74c5.48,-4.88 8.21,-10.97 8.21,-18.31l0 -81.59c0,-3.67 -1.35,-6.72 -4.12,-9.15 -2.73,-2.45 -5.92,-3.66 -9.59,-3.66l-1.95 0 0 -3.67 13.32 0c6.01,0 11.09,1.97 15.27,5.87l0.39 0.36 0 -0.36c4.18,-3.9 9.28,-5.87 15.29,-5.87l22.32 0c6.01,0 11.68,0.87 17.04,2.57 5.33,1.72 10.04,3.97 14.11,6.77 4.03,2.79 7.22,6.09 9.59,9.87 2.34,3.78 3.53,7.87 3.53,12.28l0 9.14c0,7.3 2.59,13.43 7.81,18.28l0.79 0.37z"/>
   <line class="fil1" x1="645.71" y1="492.2" x2="322.43" y2= "492.2" />
   <line class="fil1" x1="1505.29" y1="492.2" x2="1182.01" y2= "492.2" />
   <path class="fil0" d="M692.29 493.55c0,-6.51 -2,7.71 -5.92,1.67 -1.19,-1.84 -2.57,-3.64 -4.09,-5.36 6.6,-7.45 10.01,-15.86 10.01,-24.66 0,-1.55 0,-3.08 0,-4.6 0.63,1.52 0.94,3.1 0.94,4.79 0,-0.08 0,-0.14 0,-0.22 0,8.83 3.41,17.07 9.98,24.46 -1.52,1.78 -2.87,3.58 -4.09,5.47 -3.92,6.13 -5.89,-8.09 -5.89,-1.55 0,4.12 0,8.24 0,12.39 0,1.52 -0.31,3.05 -0.94,4.51 0,-5.61 0,-11.25 0,-16.9z"/>
   <path class="fil0" d="M1138.5 493.55c0,-6.54 -2,7.68 -5.89,1.55 -1.22,-1.86 -2.6,-3.69 -4.12,-5.47 6.6,-7.39 10.01,-15.66 10.01,-24.46 0,-1.52 0,-3.05 0,-4.6 0.62,1.55 0.94,3.16 0.94,4.85 0,-0.08 0,-0.17 0,-0.22 0,8.8 3.41,17.21 9.98,24.66 -1.52,1.72 -2.88,3.5 -4.06,5.36 -3.95,6.06 -5.92,-8.18 -5.92,-1.67 0,4.15 0,8.27 0,12.39 0,1.52 -0.32,3.05 -0.94,4.51 0,-5.61 0,-11.25 0,-16.9z"/>
   <polygon class="fil0" points="750.59,460.4 750.59,475.35 765.71,475.35 765.71,487.29 750.59,487.29 750.59,502.1 771.52,502.1 771.52,514.01 738.28,514.01 738.28,448.49 771.52,448.49 771.52,460.4 "/>
   <path class="fil0" d="M783.29 502.36c-0.65,-1.42 -1.08,-2.77 -1.3,-4.07 -0.23,-1.29 -0.34,-2.71 -0.34,-4.2 0,-0.68 0.06,-1.55 0.14,-2.54 0.08,-1.02 0.23,-2.12 0.4,-3.36l12.3 2.12c-0.99,5.42 0.08,9.08 3.24,11 0.99,0.71 2.12,1.19 3.33,1.44 1.21,0.25 2.48,0.4 3.84,0.4 2.54,0 4.79,-0.62 6.83,-1.84 2.03,-1.24 2.9,-3.1 2.65,-5.64 -0.2,-0.96 -0.54,-1.83 -1.02,-2.63 -0.51,-0.79 -1.35,-1.58 -2.57,-2.37 -1.24,-0.76 -2.87,-1.63 -4.93,-2.59 -2.09,-0.99 -4.74,-2.14 -7.99,-3.56 -4.85,-2.25 -8.52,-5.07 -10.95,-8.43 -2.42,-3.39 -3.63,-6.63 -3.63,-9.76 0,-3.76 1.15,-7.23 3.49,-10.36 2.35,-3.16 5.42,-5.39 9.2,-6.69 1.36,-0.53 2.77,-0.93 4.26,-1.18 1.5,-0.25 2.91,-0.4 4.26,-0.4 3.25,0 6.41,0.65 9.45,1.98 3.08,1.3 5.51,3.13 7.31,5.5 1.36,1.84 2.26,3.98 2.77,6.41 0.48,2.45 0.48,5.1 -0.06,8.01l-12.05 -2.12c0.28,-2.79 -0.48,-4.82 -2.23,-6.09 -1.75,-1.24 -3.66,-1.89 -5.72,-1.89 -0.74,0 -1.39,0.05 -1.98,0.14 -0.59,0.08 -1.13,0.2 -1.69,0.39 -1.24,0.51 -2.26,1.33 -3.02,2.4 -0.79,1.1 -1.16,2.32 -1.16,3.61 0,1.33 0.48,2.57 1.5,3.81 1.33,1.58 3.1,2.91 5.33,4.01 2.2,1.07 4.43,2.12 6.69,3.07 1.97,0.88 3.95,1.78 5.95,2.69 1.98,0.93 3.78,2.03 5.39,3.35 1.64,1.3 2.96,2.85 4.01,4.63 1.01,1.81 1.66,4.01 1.94,6.63 0.37,3.75 -0.22,7.17 -1.75,10.21 -1.55,3.08 -3.92,5.59 -7.16,7.62 -3.9,2.17 -8.16,3.27 -12.84,3.27 -2.34,0 -4.63,-0.28 -6.83,-0.84 -2.2,-0.57 -4.29,-1.41 -6.21,-2.51 -1.94,-1.08 -3.69,-2.43 -5.22,-4.07 -1.52,-1.6 -2.73,-3.47 -3.63,-5.55z"/>
   <polygon class="fil0" points="880.46,460.4 863.84,460.4 863.84,514.01 851.54,514.01 851.54,460.4 835.57,460.4 835.57,448.49 880.46,448.49 "/>
   <path class="fil0" d="M923.65 495.92c-2.34,1.58 -4,3.22 -4.96,4.94 -0.96,1.72 -1.56,3.44 -1.78,5.14l30.53 0 0 8.01 -39.11 0c0,-2.85 0.09,-5.45 0.28,-7.76 0.17,-2.34 0.62,-4.49 1.3,-6.43 0.68,-1.95 1.75,-3.78 3.16,-5.51 1.41,-1.72 3.39,-3.38 5.9,-5.02 1.75,-1.1 3.78,-2.51 6.09,-4.23 2.29,-1.72 4.49,-3.64 6.58,-5.73 2.06,-2.08 3.81,-4.34 5.27,-6.77 1.44,-2.42 2.15,-4.88 2.15,-7.39 0,-0.57 -0.03,-1.16 -0.09,-1.75 -0.05,-0.56 -0.22,-1.18 -0.45,-1.83 -0.68,-1.92 -1.92,-3.33 -3.78,-4.26 -1.86,-0.96 -3.87,-1.42 -6.04,-1.42 -1.92,0 -3.78,0.37 -5.58,1.11 -1.81,0.73 -3.19,1.83 -4.15,3.35 -0.48,0.65 -0.79,1.33 -0.96,2.06 -0.14,0.71 -0.23,1.44 -0.23,2.15 0,1.69 0.57,3.24 1.64,4.71l-7.11 4.29c-0.96,-1.47 -1.66,-2.97 -2.12,-4.46 -0.45,-1.52 -0.67,-3.05 -0.67,-4.54 0,-3.05 0.79,-5.87 2.42,-8.5 1.92,-2.79 4.4,-4.88 7.42,-6.29 3.05,-1.38 6.18,-2.09 9.43,-2.09 2.45,0 4.88,0.4 7.22,1.22 2.34,0.82 4.4,2 6.15,3.58 1.78,1.58 3.16,3.53 4.12,5.87 0.96,2.31 1.3,5.02 1.07,8.13 -0.31,3.18 -1.18,6.2 -2.65,9 -1.47,2.79 -3.33,5.39 -5.56,7.81 -2.2,2.43 -4.68,4.66 -7.36,6.77 -2.71,2.09 -5.42,4.04 -8.13,5.84z"/>
   <path class="fil0" d="M986.26 468.92c0,-1.78 -0.2,-3.47 -0.57,-5.02 -0.39,-1.52 -1.04,-2.88 -1.94,-4.01 -0.91,-1.13 -2.06,-2.03 -3.53,-2.68 -1.44,-0.62 -3.19,-0.96 -5.3,-0.96 -4.09,0 -6.97,1.16 -8.64,3.42 -1.69,2.28 -2.59,5.36 -2.71,9.25l0 24.92c0,1.63 0.2,3.21 0.57,4.71 0.39,1.52 1.04,2.85 1.95,4.03 0.9,1.16 2.08,2.09 3.52,2.79 1.44,0.71 3.19,1.05 5.31,1.05 4.09,0 6.97,-1.13 8.66,-3.42 1.66,-2.25 2.57,-5.33 2.68,-9.16l0 -24.92zm-11.34 -20.71c6.49,0 11.34,1.84 14.56,5.5 3.21,3.7 4.93,8.75 5.16,15.21l0 24.92c0,6.57 -1.58,11.68 -4.77,15.29 -3.19,3.61 -8.18,5.41 -15.04,5.41 -3.19,0 -5.95,-0.48 -8.35,-1.43 -2.37,-0.96 -4.34,-2.35 -5.92,-4.12 -1.61,-1.78 -2.83,-3.93 -3.7,-6.46 -0.87,-2.54 -1.44,-5.39 -1.66,-8.61l0 -25c0.05,-6.15 1.69,-11.11 4.9,-14.89 3.22,-3.76 8.16,-5.68 14.82,-5.82z"/>
   <path class="fil0" d="M1019.16 495.92c-2.34,1.58 -4.01,3.22 -4.97,4.94 -0.96,1.72 -1.55,3.44 -1.78,5.14l30.53 0 0 8.01 -39.1 0c0,-2.85 0.08,-5.45 0.28,-7.76 0.17,-2.34 0.62,-4.49 1.3,-6.43 0.67,-1.95 1.75,-3.78 3.16,-5.51 1.41,-1.72 3.38,-3.38 5.89,-5.02 1.75,-1.1 3.78,-2.51 6.1,-4.23 2.28,-1.72 4.48,-3.64 6.57,-5.73 2.06,-2.08 3.81,-4.34 5.28,-6.77 1.44,-2.42 2.14,-4.88 2.14,-7.39 0,-0.57 -0.03,-1.16 -0.08,-1.75 -0.06,-0.56 -0.23,-1.18 -0.45,-1.83 -0.68,-1.92 -1.92,-3.33 -3.79,-4.26 -1.86,-0.96 -3.86,-1.42 -6.03,-1.42 -1.92,0 -3.78,0.37 -5.59,1.11 -1.8,0.73 -3.19,1.83 -4.15,3.35 -0.48,0.65 -0.79,1.33 -0.96,2.06 -0.14,0.71 -0.22,1.44 -0.22,2.15 0,1.69 0.56,3.24 1.63,4.71l-7.11 4.29c-0.95,-1.47 -1.66,-2.97 -2.11,-4.46 -0.45,-1.52 -0.68,-3.05 -0.68,-4.54 0,-3.05 0.79,-5.87 2.43,-8.5 1.92,-2.79 4.4,-4.88 7.42,-6.29 3.05,-1.38 6.18,-2.09 9.42,-2.09 2.46,0 4.88,0.4 7.23,1.22 2.34,0.82 4.4,2 6.15,3.58 1.77,1.58 3.16,3.53 4.12,5.87 0.95,2.31 1.29,5.02 1.07,8.13 -0.31,3.18 -1.19,6.2 -2.66,9 -1.46,2.79 -3.32,5.39 -5.55,7.81 -2.2,2.43 -4.69,4.66 -7.37,6.77 -2.71,2.09 -5.41,4.04 -8.12,5.84z"/>
   <path class="fil0" d="M1075.3 488.08l0 -22.91c-2.11,3.44 -4.4,7.11 -6.85,10.97 -2.46,3.87 -5.02,7.85 -7.68,11.94l14.53 0zm13.24 8.12l-4.86 0 0 17.81 -8.38 0 0 -17.81 -24.6 0 0 -7.53c1.81,-2.68 3.67,-5.53 5.59,-8.6 1.92,-3.05 3.81,-6.1 5.67,-9.09 1.86,-2.99 3.64,-5.87 5.3,-8.63 1.7,-2.77 3.16,-5.22 4.43,-7.31l3.95 -6.46 8.04 0 0 39.5 4.86 0 0 8.12z"/>
  </g>
 </g>
</svg>
