<?xml version="1.0" encoding="UTF-8"?>
<!DOCTYPE svg PUBLIC "-//W3C//DTD SVG 1.1//EN" "http://www.w3.org/Graphics/SVG/1.1/DTD/svg11.dtd">
<!-- Creator: CorelDRAW 2021 (64-Bit) -->
<svg xmlns="http://www.w3.org/2000/svg" xml:space="preserve" width="2080px" height="2080px" version="1.1" style="shape-rendering:geometricPrecision; text-rendering:geometricPrecision; image-rendering:optimizeQuality; fill-rule:evenodd; clip-rule:evenodd"
viewBox="0 0 2080 2080"
 xmlns:xlink="http://www.w3.org/1999/xlink"
 xmlns:xodm="http://www.corel.com/coreldraw/odm/2003">
 <defs>
  <style type="text/css">
   <![CDATA[
    .fil0 {fill:#494A4B;fill-rule:nonzero}
   ]]>
  </style>
 </defs>
 <g id="Layer_x0020_1">
  <metadata id="CorelCorpID_0Corel-Layer"/>
  <g id="_2306141350848">
   <path class="fil0" d="M727.9 767.92c6.92,0 13.83,0.22 20.75,-0.06 3.94,-0.19 5.88,1.13 7.47,4.85 14.49,33.57 37.24,59.82 69.9,76.66 47.12,24.31 102.66,16.99 143.08,-18.21 18.81,-16.37 33.14,-35.92 42.8,-58.86 1.38,-3.19 2.94,-4.63 6.64,-4.56 14.36,0.21 28.75,0.21 43.11,0.03 3.66,-0.06 5.26,1.34 6.67,4.53 14.55,33.73 37.14,60.52 70.21,77 45.65,22.75 89.98,18.65 131.97,-9.85 24.25,-16.46 41.52,-38.96 53.1,-65.77 1.94,-4.5 4.25,-6.01 9.04,-5.88 13.48,0.34 26.97,0.34 40.45,0.03 5.2,-0.09 5.45,1.69 4.1,5.91 -27.25,85.42 -101.18,137.95 -188.66,134.26 -59.64,-2.5 -107.67,-27.82 -143.59,-75.65 -4.85,-6.42 -4.88,-6.51 -9.82,0.22 -29.13,39.26 -67.77,63.48 -115.74,72.52 -89.98,16.96 -175.87,-30.04 -210.19,-114.67 -2.47,-6.07 -4.6,-12.27 -6.63,-18.49 -1.03,-3.19 -0.28,-4.1 2.97,-4.04 7.45,0.16 14.89,0.03 22.37,0.03z"/>
   <path class="fil0" d="M882.37 578.51c6.92,0 13.86,0.12 20.78,-0.07 3.66,-0.12 5.5,0.97 6.97,4.66 14.87,37.39 39.3,66.4 76.03,83.83 48.16,22.8 104.79,12.98 143.71,-23.97 17.93,-17.05 31.41,-36.95 40.36,-59.92 1.32,-3.31 2.79,-4.66 6.48,-4.6 14.02,0.22 28.03,0.19 42.05,0 4.25,-0.03 5.19,1.1 3.91,5.26 -18.27,59.95 -53.94,105.03 -113.57,127.31 -60.14,22.47 -118.71,17.05 -173.15,-17.93 -40.46,-25.97 -65.02,-63.98 -78.51,-109.63 -1.06,-3.63 -0.53,-5.13 3.66,-5.01 7.08,0.28 14.18,0.1 21.28,0.1 0,-0.03 0,-0.03 0,-0.03z"/>
   <polygon class="fil0" points="757.47,1103.05 699.34,1103.05 699.34,1215.66 757.47,1215.66 "/>
   <polygon class="fil0" points="936.69,1103.05 880.96,1103.05 880.96,1215.66 936.69,1215.66 "/>
   <path class="fil0" d="M1194.6 1103.05l-59.36 0 0 266.39 59.36 0 0 -145.37c5.31,-18.39 25.25,-64.7 90.89,-64.7l0 -56.91c-38.74,0 -68.49,11.23 -90.89,27.41l0 -26.82z"/>
   <path class="fil0" d="M407.01 1033.81c-19.77,23.03 -24.78,50.5 -25.53,69.24l-33.29 0 0 55.69 32.69 0 0 210.7 59.36 0 0 -210.7 60.54 0 0 -55.69 -62.26 0c0.68,-9.6 3.31,-22.62 11.86,-32.41 9.85,-11.27 26.78,-16.96 50.4,-16.96l0 -56.92c-41.11,0 -72.68,12.46 -93.77,37.05z"/>
   <path class="fil0" d="M1603.09 1158.9c31.73,0 58.92,20.49 70.15,49.5l58.29 0c-13.2,-60.29 -65.77,-105.47 -128.44,-105.47 -62.67,0 -115.2,45.18 -128.43,105.47l58.29 0c11.23,-29.01 38.45,-49.5 70.14,-49.5z"/>
   <path class="fil0" d="M1673.71 1266.5c-10.95,29.66 -38.45,50.72 -70.62,50.72 -32.13,0 -59.66,-21.06 -70.61,-50.72l-58.07 0c12.76,60.92 65.61,106.72 128.68,106.72 63.11,0 115.96,-45.8 128.72,-106.72l-58.1 0z"/>
   <path class="fil0" d="M936.69 1281.96l0 -21.5 -55.73 0 0 28.76c-8.6,13.86 -27,31.1 -65.36,31.1 -56.44,0 -57.63,-48.44 -58.13,-58.11l-7.98 0.35 -48.34 -0.16c1.38,36.55 28.91,107.73 114.45,107.73 26.78,0 48.28,-6.04 65.36,-15.21l0 14.52 55.73 0 0 -86.23c0.06,-0.41 0.15,-0.82 0.25,-1.22l-0.25 -0.03z"/>
   <path class="fil0" d="M568.68 1501.57c-3.29,0 -6.39,-0.5 -9.39,-1.5 -2.97,-1 -5.32,-2.29 -7.01,-3.88l2.25 -4.76c1.63,1.41 3.73,2.6 6.23,3.54 2.53,0.94 5.16,1.4 7.92,1.4 2.47,0 4.47,-0.28 6.03,-0.84 1.54,-0.56 2.69,-1.38 3.42,-2.38 0.75,-0.97 1.12,-2.13 1.12,-3.38 0,-1.47 -0.5,-2.66 -1.44,-3.53 -0.97,-0.91 -2.22,-1.63 -3.75,-2.19 -1.51,-0.54 -3.19,-1.04 -5.04,-1.44 -1.81,-0.41 -3.66,-0.88 -5.54,-1.41 -1.84,-0.56 -3.53,-1.28 -5.07,-2.13 -1.53,-0.84 -2.75,-2 -3.69,-3.44 -0.94,-1.47 -1.41,-3.32 -1.41,-5.6 0,-2.22 0.6,-4.22 1.76,-6.1 1.15,-1.85 2.94,-3.32 5.38,-4.44 2.41,-1.13 5.5,-1.69 9.26,-1.69 2.47,0 4.94,0.31 7.38,0.97 2.44,0.65 4.57,1.59 6.35,2.81l-2 4.88c-1.84,-1.22 -3.78,-2.09 -5.82,-2.66 -2.03,-0.53 -4,-0.81 -5.91,-0.81 -2.41,0 -4.38,0.31 -5.95,0.91 -1.53,0.62 -2.69,1.44 -3.38,2.47 -0.71,1 -1.09,2.16 -1.09,3.41 0,1.5 0.5,2.72 1.44,3.6 0.97,0.91 2.22,1.62 3.75,2.16 1.51,0.53 3.19,1 5.04,1.44 1.81,0.4 3.66,0.9 5.54,1.43 1.84,0.51 3.53,1.22 5.07,2.07 1.53,0.84 2.75,2 3.69,3.41 0.94,1.44 1.41,3.28 1.41,5.51 0,2.16 -0.6,4.19 -1.79,6.04 -1.15,1.84 -3,3.34 -5.44,4.44 -2.47,1.12 -5.6,1.69 -9.32,1.69z"/>
   <path class="fil0" d="M691.36 1501.57c-5.6,0 -10.05,-1.6 -13.27,-4.82 -3.19,-3.22 -4.82,-7.95 -4.82,-14.14l0 -24.31 6.1 0 0 24.09c0,4.75 1.07,8.23 3.16,10.45 2.1,2.19 5.07,3.28 8.89,3.28 3.88,0 6.88,-1.09 8.98,-3.28 2.1,-2.22 3.13,-5.7 3.13,-10.45l0 -24.09 5.94 0 0 24.31c0,6.19 -1.59,10.92 -4.82,14.14 -3.19,3.22 -7.6,4.82 -13.29,4.82z"/>
   <path class="fil0" d="M813.98 1501.57c-3.29,0 -6.39,-0.5 -9.36,-1.5 -3,-1 -5.32,-2.29 -7.04,-3.88l2.25 -4.76c1.63,1.41 3.73,2.6 6.23,3.54 2.53,0.94 5.16,1.4 7.92,1.4 2.47,0 4.47,-0.28 6.03,-0.84 1.54,-0.56 2.69,-1.38 3.41,-2.38 0.75,-0.97 1.13,-2.13 1.13,-3.38 0,-1.47 -0.5,-2.66 -1.44,-3.53 -0.97,-0.91 -2.22,-1.63 -3.75,-2.19 -1.51,-0.54 -3.19,-1.04 -5.04,-1.44 -1.81,-0.41 -3.66,-0.88 -5.54,-1.41 -1.84,-0.56 -3.53,-1.28 -5.07,-2.13 -1.53,-0.84 -2.75,-2 -3.69,-3.44 -0.94,-1.47 -1.41,-3.32 -1.41,-5.6 0,-2.22 0.6,-4.22 1.75,-6.1 1.16,-1.85 2.95,-3.32 5.39,-4.44 2.41,-1.13 5.5,-1.69 9.26,-1.69 2.47,0 4.94,0.31 7.38,0.97 2.44,0.65 4.57,1.59 6.35,2.81l-2 4.88c-1.84,-1.22 -3.79,-2.09 -5.82,-2.66 -2.03,-0.53 -4,-0.81 -5.91,-0.81 -2.41,0 -4.38,0.31 -5.95,0.91 -1.53,0.62 -2.66,1.44 -3.38,2.47 -0.72,1 -1.06,2.16 -1.06,3.41 0,1.5 0.47,2.72 1.41,3.6 0.97,0.91 2.22,1.62 3.75,2.16 1.54,0.53 3.19,1 5.04,1.44 1.85,0.4 3.66,0.9 5.54,1.43 1.84,0.51 3.53,1.22 5.07,2.07 1.53,0.84 2.75,2 3.69,3.41 0.94,1.44 1.41,3.28 1.41,5.51 0,2.16 -0.6,4.19 -1.79,6.04 -1.16,1.84 -3,3.34 -5.44,4.44 -2.47,1.12 -5.6,1.69 -9.32,1.69z"/>
   <path class="fil0" d="M949.64 1458.3l6.1 0 0 42.8 -6.1 0 0 -42.8zm0.53 23.71l-25.72 0 0 -5.32 25.72 0 0 5.32zm-25.12 19.09l-6.1 0 0 -42.8 6.1 0 0 42.8z"/>
   <polygon class="fil0" points="1048.07,1501.1 1048.07,1458.3 1054.17,1458.3 1054.17,1501.1 "/>
   <path class="fil0" d="M1248.57 1496.12l14.05 0c3.38,0 5.97,-0.56 7.76,-1.68 1.81,-1.16 2.69,-2.95 2.69,-5.39 0,-2.5 -0.88,-4.31 -2.69,-5.44 -1.79,-1.16 -4.38,-1.72 -7.76,-1.72l-14.61 0 0 -4.95 13.07 0c3.1,0 5.51,-0.59 7.23,-1.72 1.72,-1.15 2.57,-2.84 2.57,-5.13 0,-2.28 -0.85,-4 -2.57,-5.13 -1.72,-1.16 -4.13,-1.72 -7.23,-1.72l-12.51 0 0 32.88zm-6.13 4.98l0 -42.8 19.21 0c4.91,0 8.73,0.97 11.35,2.94 2.66,2 3.98,4.69 3.98,8.1 0,2.35 -0.5,4.29 -1.54,5.88 -1.06,1.6 -2.44,2.82 -4.19,3.66 -1.75,0.88 -3.66,1.29 -5.69,1.29l1.09 -1.82c2.44,0 4.6,0.41 6.48,1.28 1.88,0.85 3.38,2.1 4.47,3.76 1.1,1.66 1.66,3.69 1.66,6.13 0,3.66 -1.38,6.51 -4.13,8.54 -2.75,2.01 -6.85,3.04 -12.26,3.04l-20.43 0z"/>
   <path class="fil0" d="M1370 1490.4l1.62 -4.91 24.1 0 1.78 4.91 -27.5 0zm-8.26 10.7l19.36 -42.8 6.07 0 19.43 42.8 -6.41 0 -17.3 -39.39 2.44 0 -17.3 39.39 -6.29 0z"/>
   <path class="fil0" d="M1521.06 1501.1l-10.86 -15.55 6.54 0 10.98 15.55 -6.66 0zm-22.5 -15.24l-2.75 -3 13.14 0c3.94,0 6.88,-0.85 8.91,-2.54 2.01,-1.69 3.01,-4.06 3.01,-7.13 0,-3.03 -1,-5.41 -3.01,-7.07 -2.03,-1.69 -4.97,-2.5 -8.91,-2.5l-13.14 0 2.75 -3.07 0 25.31zm-6.1 15.24l0 -42.8 16.68 0c3.75,0 6.94,0.59 9.6,1.75 2.66,1.19 4.69,2.91 6.13,5.13 1.41,2.25 2.13,4.91 2.13,8.01 0,3.1 -0.72,5.79 -2.13,8.01 -1.44,2.19 -3.47,3.91 -6.13,5.1 -2.66,1.16 -5.85,1.75 -9.6,1.75l-13.33 0 2.75 -2.81 0 15.86 -6.1 0z"/>
  </g>
 </g>
</svg>
