<?xml version="1.0" encoding="UTF-8"?>
<!DOCTYPE svg PUBLIC "-//W3C//DTD SVG 1.1//EN" "http://www.w3.org/Graphics/SVG/1.1/DTD/svg11.dtd">
<!-- Creator: CorelDRAW 2021 (64-Bit) -->
<svg xmlns="http://www.w3.org/2000/svg" xml:space="preserve" width="2080px" height="2080px" version="1.1" style="shape-rendering:geometricPrecision; text-rendering:geometricPrecision; image-rendering:optimizeQuality; fill-rule:evenodd; clip-rule:evenodd"
viewBox="0 0 2080 2080"
 xmlns:xlink="http://www.w3.org/1999/xlink"
 xmlns:xodm="http://www.corel.com/coreldraw/odm/2003">
 <defs>
  <style type="text/css">
   <![CDATA[
    .fil1 {fill:#FEFEFE;fill-rule:nonzero}
    .fil0 {fill:#494A4B;fill-rule:nonzero}
   ]]>
  </style>
 </defs>
 <g id="Layer_x0020_1">
  <metadata id="CorelCorpID_0Corel-Layer"/>
  <g id="_2306241379920">
   <path class="fil0" d="M771.71 544.77l134.41 0c80.63,0 145.98,65.38 145.98,146l0 115.25 -134.38 0c-80.63,0 -146.01,-65.36 -146.01,-146l0 -115.25z"/>
   <path class="fil0" d="M1182.31 707.31c0,-43.08 34.93,-78.03 78.03,-78.03l7.28 0 0 -84.51 -25.62 0c-80.63,0 -145.98,65.38 -145.98,146l0 115.25 86.29 0 0 -98.71z"/>
   <path class="fil0" d="M1122.42 843.17l-202.83 0c-80.72,0 -146.14,65.42 -146.14,146.12l0 21.57c0,81.33 44.41,152.21 110.25,189.9 31.95,20.78 81.5,34.18 137.29,34.18 55.82,0 105.36,-13.4 137.31,-34.18 65.85,-37.69 110.26,-108.57 110.26,-189.9l0 -21.57c0,-80.7 -65.42,-146.12 -146.14,-146.12z"/>
   <path class="fil1" d="M832.59 1002.08l0 15.01c0,59.34 32.07,114.52 83.65,144.06 25.53,16.61 63.64,26.05 104.75,26.05 41.14,0 79.22,-9.44 104.54,-25.91 51.82,-29.68 83.89,-84.86 83.89,-144.2l0 -15.01 -376.83 0zm188.4 194.16c-42.82,0 -82.71,-9.98 -109.46,-27.36 -54.18,-31.01 -87.98,-89.22 -87.98,-151.79l0 -16.82c0,-0.61 0.02,-1.17 0.07,-1.78l0.14 -5.46 394.42 0 0.18 5.39c0.05,0.61 0.1,1.24 0.1,1.85l0 16.82c0,62.57 -33.8,120.78 -88.22,151.91 -26.51,17.26 -66.41,27.24 -109.25,27.24z"/>
   <path class="fil1" d="M1020.99 1196.24c-2.48,0 -4.52,-2.02 -4.52,-4.52l0 -183.01 -127.43 130.98c-1.73,1.81 -4.59,1.83 -6.39,0.1 -1.78,-1.76 -1.83,-4.62 -0.09,-6.4l135.2 -138.97c1.29,-1.34 3.23,-1.74 4.94,-1.06 1.71,0.71 2.84,2.37 2.84,4.2l0 194.16c0,2.5 -2.04,4.52 -4.55,4.52z"/>
   <path class="fil1" d="M1020.99 1196.24c-2.48,0 -4.52,-2.02 -4.52,-4.52l0 -194.16c0,-1.83 1.13,-3.49 2.84,-4.2 1.68,-0.7 3.65,-0.28 4.94,1.06l135.18 138.97c1.73,1.78 1.71,4.64 -0.09,6.4 -1.79,1.73 -4.64,1.71 -6.4,-0.1l-127.4 -130.98 0 183.01c0,2.5 -2.04,4.52 -4.55,4.52z"/>
   <polygon class="fil0" points="529.25,1531.69 603.76,1531.69 603.76,1319.19 529.25,1319.19 "/>
   <path class="fil0" d="M972.9 1325.66c-12.93,-6.68 -27.64,-10 -44.11,-10 -19.86,0 -37.45,4.89 -52.72,14.71 -8.13,5.2 -15.06,11.52 -21.01,18.8 -4.88,-7.63 -10.94,-13.91 -18.2,-18.8 -14.53,-9.82 -31.32,-14.71 -50.39,-14.71 -16.75,0 -31.9,3.86 -45.49,11.57 -6.72,3.79 -12.72,8.55 -18.04,14.17l0 -22.21 -70.97 0 0 212.5 74.51 0 0 -105.47c0,-10.99 1.62,-19.94 4.9,-26.85 3.25,-6.93 7.7,-12.08 13.33,-15.5 5.62,-3.4 12.08,-5.09 19.41,-5.09 10.19,0 18.09,3.47 23.71,10.38 5.62,6.93 8.43,17.99 8.43,33.14l0 109.39 74.51 0 0 -105.47c0,-10.99 1.55,-19.94 4.69,-26.85 3.14,-6.93 7.59,-12.08 13.35,-15.5 5.74,-3.4 12.16,-5.09 19.21,-5.09 9.93,0 17.75,3.47 23.52,10.38 5.73,6.93 8.62,17.99 8.62,33.14l0 109.39 74.51 0 0 -121.54c0,-21.97 -3.73,-39.87 -11.18,-53.71 -7.44,-13.87 -17.66,-24.13 -30.59,-30.78z"/>
   <path class="fil0" d="M1210.7 1421.51c0,11.76 -1.82,21.38 -5.48,28.83 -3.67,7.45 -8.5,12.86 -14.52,16.26 -6,3.4 -12.67,5.11 -19.98,5.11 -11.24,0 -19.93,-3.54 -26.07,-10.59 -6.16,-7.05 -9.23,-18.83 -9.23,-35.28l0 -106.65 -74.49 0 0 118.78c0,22.23 3.84,40.6 11.57,55.1 7.71,14.52 18.41,25.16 32.14,31.95 13.73,6.79 29.23,10.21 46.47,10.21 16.21,0 31.23,-3.86 45.09,-11.57 6.82,-3.79 12.82,-8.57 18.04,-14.29l0 22.32 70.95 0 0 -212.5 -74.49 0 0 102.32z"/>
   <path class="fil0" d="M1547.71 1356.44c-7.73,-13.87 -18.25,-24.13 -31.58,-30.78 -13.33,-6.68 -28.23,-10 -44.69,-10 -17.78,0 -33.71,3.86 -47.84,11.57 -7.35,4.03 -13.86,9.15 -19.6,15.27l0 -23.31 -70.98 0 0 212.5 74.52 0 0 -102.73c0,-11.76 1.8,-21.3 5.48,-28.6 3.65,-7.34 8.76,-12.77 15.29,-16.28 6.54,-3.54 13.73,-5.3 21.55,-5.3 10.99,0 19.54,3.47 25.7,10.38 6.14,6.93 9.2,17.99 9.2,33.14l0 109.39 74.52 0 0 -121.54c0,-21.97 -3.87,-39.87 -11.57,-53.71z"/>
   <path class="fil0" d="M585.26 1211.56l-37.5 0c-14.95,0 -27.04,12.08 -27.04,27.03l0 3.98c0,15.04 8.2,28.16 20.38,35.11 5.91,3.85 15.09,6.33 25.4,6.33 10.33,0 19.48,-2.48 25.39,-6.33 12.18,-6.95 20.4,-20.07 20.4,-35.11l0 -3.98c0,-14.95 -12.11,-27.03 -27.03,-27.03z"/>
  </g>
 </g>
</svg>
