<?xml version="1.0" encoding="UTF-8"?>
<!DOCTYPE svg PUBLIC "-//W3C//DTD SVG 1.1//EN" "http://www.w3.org/Graphics/SVG/1.1/DTD/svg11.dtd">
<!-- Creator: CorelDRAW 2021 (64-Bit) -->
<svg xmlns="http://www.w3.org/2000/svg" xml:space="preserve" width="2080px" height="2080px" version="1.1" style="shape-rendering:geometricPrecision; text-rendering:geometricPrecision; image-rendering:optimizeQuality; fill-rule:evenodd; clip-rule:evenodd"
viewBox="0 0 2080 2080"
 xmlns:xlink="http://www.w3.org/1999/xlink"
 xmlns:xodm="http://www.corel.com/coreldraw/odm/2003">
 <defs>
  <style type="text/css">
   <![CDATA[
    .fil0 {fill:#494A4B;fill-rule:nonzero}
   ]]>
  </style>
 </defs>
 <g id="Layer_x0020_1">
  <metadata id="CorelCorpID_0Corel-Layer"/>
  <g id="_2306132295264">
   <path class="fil0" d="M492.46 1096.05c0,-82.94 -0.78,-165.9 0.21,-248.82 1.28,-108.9 33.03,-208.67 94.39,-298.72 58.7,-86.16 136.08,-150.22 231.22,-192.57 52.52,-23.37 107.58,-37.46 165,-42.97 86.27,-8.28 169.57,3.28 250.05,34.94 59.14,23.24 112.4,56.25 160.12,98.31 62.22,54.83 109.38,120.42 141.96,196.48 18.56,43.31 30.8,88.45 37.51,135.18 4.93,34.27 5.72,68.68 5.72,103.17 0,162.28 0,324.58 0,486.86 0,10.91 0,10.91 -10.51,10.91 -38.14,0 -76.3,-0.22 -114.44,0.18 -7.54,0.09 -9.05,-2.18 -9.05,-9.29 0.2,-175.85 0.47,-351.67 -0.02,-527.52 -0.16,-53.64 -12.87,-104.94 -34.63,-153.95 -22.01,-49.61 -52.56,-93.42 -91.96,-130.64 -65.39,-61.77 -142.46,-100.04 -232.21,-110.59 -119.42,-14.04 -225.42,18.27 -316.68,96.3 -75.2,64.29 -120.97,145.9 -137.73,243.64 -3.18,18.54 -5.07,37.13 -5.07,55.92 0,174.99 0,350 0,524.99 0,10.96 0,10.96 -11.27,10.96 -37.87,0 -75.74,-0.2 -113.63,0.18 -7.38,0.07 -9.16,-1.98 -9.14,-9.25 0.25,-91.24 0.16,-182.46 0.16,-273.7z"/>
   <path class="fil0" d="M1305.88 1094.39c0,91.51 -0.09,183.02 0.2,274.53 0.02,7.97 -1.96,10.19 -10.04,10.08 -37.87,-0.43 -75.73,-0.4 -113.6,0 -7.68,0.09 -9.61,-2.05 -9.59,-9.63 0.2,-175.84 0.2,-351.67 0.16,-527.49 -0.02,-67.64 -52,-125.74 -119.08,-133.34 -74,-8.4 -140.65,45.04 -148.98,119.16 -0.79,6.91 -1.08,13.75 -1.08,20.64 -0.02,173.34 -0.06,346.69 0.16,520.02 0,7.99 -1.39,10.82 -10.22,10.71 -37.86,-0.59 -75.76,-0.43 -113.63,-0.11 -6.93,0.06 -9.4,-1.26 -9.4,-8.96 0.27,-180.79 -0.09,-361.61 0.52,-542.41 0.13,-36.32 10.57,-70.97 27.02,-103.28 33.01,-64.87 83.43,-111.27 152.54,-134.76 89.84,-30.53 174.02,-16.67 249.76,40.26 60.57,45.56 94.41,107.57 104.27,182.64 0.74,5.73 0.87,11.58 0.87,17.37 0.07,88.18 0.05,176.38 0.05,264.57 0.02,0 0.04,0 0.07,0z"/>
   <path class="fil0" d="M1104.81 1608.72c0,-8.04 -0.18,-16.05 0.02,-24.06 0.4,-14.31 -5.92,-24.89 -17.55,-32.69 -16.67,-11.23 -35.04,-12.96 -53.96,-8.4 -20.81,5.05 -38.45,18.64 -36.56,46.74 0.94,14.04 0.38,28.19 0.11,42.28 -0.34,17.59 8.44,29.18 23.45,36.83 15.23,7.79 31.45,8.28 47.68,4.75 19.46,-4.23 39.42,-18.61 36.9,-45.56 -0.63,-6.57 -0.09,-13.26 -0.09,-19.89zm40.95 2.94c-0.77,10.08 0.7,22.48 -0.9,34.92 -4.19,33.01 -23.2,54.12 -53.73,63.93 -29.93,9.61 -60.71,9.56 -89.83,-3.53 -28.66,-12.87 -44.44,-35.46 -44.51,-67.71 -0.04,-19.64 0.28,-39.29 -0.08,-58.91 -0.54,-28.87 13.47,-49.63 36.63,-64.62 32.94,-21.31 90.16,-19.42 122.04,3.22 20.79,14.78 29.68,35.66 30.33,60.53 0.25,9.94 0.05,19.91 0.05,32.17z"/>
   <path class="fil0" d="M1546.05 1609.41c0,-8.84 -0.15,-17.68 0.05,-26.53 0.29,-11.72 -4.68,-20.74 -13.52,-27.99 -18.43,-15.12 -49.46,-18.15 -70.39,-6.86 -13.99,7.54 -23.78,17.89 -23.74,34.97 0.03,17.14 0.03,34.29 0,51.41 -0.02,15.39 7.45,26.44 20.52,33.53 19.38,10.51 39.81,11.32 59.97,3.1 17.8,-7.26 28.85,-20.02 27.2,-40.9 -0.51,-6.87 -0.06,-13.82 -0.09,-20.73zm-147.9 -0.83c-0.02,-7.74 0.27,-15.48 -0.06,-23.2 -1.65,-37.42 17.05,-62.39 49.9,-76.19 30.11,-12.64 61.68,-11.38 91.99,0.52 28.46,11.21 44.93,33.1 46.6,63.63 1.35,24.71 2.25,49.66 -0.77,74.39 -4.32,35.31 -26.19,55.9 -59.02,64.49 -29.11,7.61 -58.77,7.29 -86.45,-6.3 -27.22,-13.39 -42.09,-35.62 -42.19,-66.69 -0.02,-10.22 0,-20.43 0,-30.65z"/>
   <path class="fil0" d="M736.1 1628.81c0,-17.96 0.43,-35.93 -0.09,-53.89 -0.74,-26.89 11.14,-46.78 34.27,-58.77 39.92,-20.7 80.22,-20.14 118.97,3.35 19.89,12.06 29.27,31.14 29.43,54.29 0.27,38.41 0.09,76.82 0.07,115.23 0,10.94 -3.85,17.19 -13.1,20.82 -9.79,3.82 -19.04,2.13 -27.38,-3.94 -4.03,-2.93 -3.9,-7.59 -3.9,-12.11 0.07,-35.91 -0.87,-71.87 0.32,-107.76 1.12,-34.72 -27.9,-45.56 -51.19,-44.82 -6.55,0.2 -13.14,1.64 -19.31,4.28 -13.75,5.87 -22.95,15.3 -23.76,30.94 -1.96,38.09 -0.83,76.23 -1.1,114.37 -0.14,15.37 -5.81,21.01 -21.56,21.06 -13,0.05 -21.58,-8.42 -21.64,-21.71 -0.09,-20.43 -0.03,-40.89 -0.03,-61.34z"/>
   <path class="fil0" d="M693.4 1629.21c0,20.19 -0.25,40.37 0.11,60.53 0.16,9.9 -3.96,16.43 -12.89,20.03 -9.81,3.94 -19.02,2.11 -27.43,-3.87 -3.83,-2.75 -3.51,-7.16 -3.51,-11.37 0.04,-35.1 0.04,-70.22 -0.03,-105.32 -0.02,-24.37 -7.53,-36.95 -26.16,-44.06 -22.03,-8.39 -46.42,-3.58 -60.44,11.88 -7.45,8.19 -8.6,18.43 -8.69,28.64 -0.33,35.67 -0.24,71.33 -0.29,107 -0.02,13.25 -4.5,17.66 -19.26,18.99 -11.25,1.01 -21.94,-6.19 -23.85,-16.14 -0.25,-1.34 -0.41,-2.74 -0.41,-4.11 0,-39.83 -0.27,-79.63 0.12,-119.44 0.24,-25.92 13.02,-45.29 35.7,-56.52 39.86,-19.76 79.93,-19.42 118.25,4.45 19.12,11.91 28.71,30.11 28.75,52.9 0.05,18.81 0.03,37.6 0.03,56.41z"/>
   <path class="fil0" d="M1233.29 1567c1.48,41.2 -1.49,82.35 -1.08,123.53 0.11,12.4 -5.85,19.53 -16.83,20.66 -11.95,1.23 -22.19,-5.25 -24.17,-16.52 -2.5,-14.22 -1.03,-28.67 -0.88,-43.02 0.59,-56.12 0.61,-112.21 -0.04,-168.33 -0.14,-12.45 -0.43,-24.91 -0.05,-37.33 0.41,-12.85 7.34,-20.68 18.9,-22.59 13.17,-2.21 23.09,5.85 23.05,19.21 -0.18,41.47 2.58,82.9 1.1,124.39z"/>
   <path class="fil0" d="M1346.33 1509.28c4.46,0.9 12,-2.72 14.14,3.69 1.77,5.31 -4.39,9.5 -7.99,13.53 -18.05,20.14 -38.46,38.18 -54.57,60.03 -12.46,16.87 -10.69,16.61 -0.07,30.85 18.34,24.57 40.51,45.97 59.7,69.86 3.62,4.5 6.82,9.39 9.95,14.25 2.31,3.64 1.48,6.14 -3.2,6.95 -10.35,1.85 -20.77,2.92 -31.23,1.31 -4.66,-0.72 -9.07,-2.5 -12.47,-6.06 -21.71,-22.79 -44.21,-44.87 -61.94,-71.12 -16.25,-24.08 -16.47,-32.47 0.16,-56.05 14.69,-20.8 32.24,-39.2 49.54,-57.83 9.14,-9.83 21.22,-7.4 32.29,-9.38 1.62,-0.27 3.33,-0.03 5.69,-0.03z"/>
   <path class="fil0" d="M1515.29 1750.54c-0.15,10.46 -9.47,19.4 -19.91,19.06 -10.3,-0.34 -18.61,-9.18 -18.29,-19.44 0.33,-10.62 8.71,-18.72 19.21,-18.59 10.31,0.16 19.13,8.96 18.99,18.97z"/>
   <path class="fil0" d="M1035.08 1750.67c-0.05,-10.64 8.05,-18.92 18.65,-19.12 10.87,-0.18 19.33,8.26 19.26,19.26 -0.04,10.35 -8.62,18.86 -18.95,18.81 -10.3,-0.02 -18.92,-8.66 -18.96,-18.95z"/>
  </g>
 </g>
</svg>
