<?xml version="1.0" encoding="UTF-8"?>
<!DOCTYPE svg PUBLIC "-//W3C//DTD SVG 1.1//EN" "http://www.w3.org/Graphics/SVG/1.1/DTD/svg11.dtd">
<!-- Creator: CorelDRAW 2021 (64-Bit) -->
<svg xmlns="http://www.w3.org/2000/svg" xml:space="preserve" width="1553px" height="1227px" version="1.1" style="shape-rendering:geometricPrecision; text-rendering:geometricPrecision; image-rendering:optimizeQuality; fill-rule:evenodd; clip-rule:evenodd"
viewBox="0 0 1553 1226.82"
 xmlns:xlink="http://www.w3.org/1999/xlink"
 xmlns:xodm="http://www.corel.com/coreldraw/odm/2003">
 <defs>
  <style type="text/css">
   <![CDATA[
    .fil0 {fill:#494A4B;fill-rule:nonzero}
   ]]>
  </style>
 </defs>
 <g id="Layer_x0020_1">
  <metadata id="CorelCorpID_0Corel-Layer"/>
  <g id="_2306110495424">
   <path class="fil0" d="M685.6 107.85c0,0 0.04,0.04 0.04,0.08 0.05,-0.04 0.09,-0.12 0.09,-0.16 -0.04,0.04 -0.09,0.04 -0.13,0.08z"/>
   <path class="fil0" d="M833.28 106.89c-0.29,-1.16 -0.58,-2.29 -0.83,-3.45 6.49,-0.21 13.04,-0.42 19.58,-0.59 -6.25,1.34 -12.5,2.71 -18.75,4.04zm-42.99 15.83c1.04,-2.2 2.08,-4.37 3.66,-7.83 3.17,3.92 4.63,5.75 7.55,9.37 -4.88,-0.66 -8.05,-1.08 -11.21,-1.54zm-15.87 15.21c-0.84,-0.17 -1.75,-0.21 -2.79,-0.21l0 -2.67c0.83,-2.12 1.75,-3.54 2.79,-4.41l0 7.29zm2.96 209.58l-8.67 0c1.5,-1.21 2.62,-2.21 2.83,-2.33l0.09 -201.25c0.91,-0.59 1.83,-1.17 2.79,-1.75l0 203c0.29,0.12 1.46,1.12 2.96,2.33zm-51.79 -220.33c3.21,-5.54 14.88,-8.33 28.79,-4.87 -9.62,1.62 -19.29,3.25 -28.79,4.87zm-7.08 12.25c-0.41,-0.63 -0.83,-1.29 -1.25,-1.96 5.92,-2.12 11.87,-4.25 19.21,-6.83 -3.09,9.95 -12.63,5.71 -17.96,8.79zm-9.45 8.45c-0.3,-0.58 -0.59,-1.12 -0.88,-1.66 5.96,-2.08 11.96,-4.21 17.91,-6.33 0.46,0.91 0.92,1.79 1.38,2.7 -6.13,1.75 -12.29,3.5 -18.41,5.29zm-18.37 28.54c1.87,-7.37 8.03,-9.75 14.91,-11.41 0.58,0.79 1.21,1.54 1.79,2.33 -5.58,3 -11.12,6.04 -16.7,9.08zm16.78 -91.23c4,-5.29 18.29,-7.67 26.66,-4.29 -9.24,1.5 -17.7,2.83 -26.66,4.29zm149.18 40.82c1.83,-0.95 3.54,-2.41 5.58,-2.7 4.21,-0.59 8.58,-0.5 12.92,-0.75 -0.09,-0.5 -0.17,-1 -0.3,-1.55 -5.91,0.05 -11.87,0.09 -17.78,0.13 -0.05,-0.54 -0.09,-1.12 -0.17,-1.67 6,-0.04 12,-0.04 17.87,-0.08 -5.83,-5.71 -16.33,2.37 -22.37,-7.66 5.17,-0.3 8.75,-0.5 12.29,-0.67 -0.04,-0.42 -0.08,-0.88 -0.13,-1.29 -7.08,-0.21 -14.16,-0.46 -21.24,-0.71 -0.08,-0.79 -0.17,-1.63 -0.25,-2.42 5.54,-0.96 11.08,-1.87 16.62,-2.83 -0.04,-0.25 -0.04,-0.46 -0.04,-0.67 -2.38,-0.16 -4.71,-0.29 -7.08,-0.41 0,0 0,0 0,0 -1.92,-1 -3.84,-2.63 -5.75,-2.79 -8.58,-0.79 -16.58,0.58 -23.87,4.33 -3.38,1.71 -7.37,2.58 -11.12,3.87 -0.34,-0.66 -0.71,-1.29 -1.05,-1.95 5.67,-2.92 11.38,-5.8 17.08,-8.75 -10.33,1.33 -20.62,2.66 -30.95,4 -0.21,-0.8 -0.41,-1.63 -0.62,-2.46 7.95,-1.09 15.87,-2.21 23.78,-3.29 0,-0.42 0,-0.84 0,-1.25 -5.24,0.08 -10.49,0.12 -15.74,0.16 -0.04,-0.66 -0.09,-1.33 -0.09,-2.04 7.5,0.13 15.04,0.29 22.58,0.42 0.09,-0.38 0.17,-0.71 0.25,-1.08 -4.37,-0.8 -8.7,-1.59 -13.04,-2.42 0.05,-0.5 0.13,-1 0.17,-1.54 7.46,0.46 14.91,0.92 22.37,1.37 0.04,-0.54 0.08,-1.12 0.12,-1.66 -5.03,-0.75 -10.03,-1.5 -15.07,-2.25 0.04,-0.5 0.04,-1.04 0.04,-1.59 5.25,0.25 10.58,-0.04 15.78,0.88 5,0.87 8.92,0.62 11.71,-2.42 -4.37,-1.83 -8.58,-3.54 -14,-5.75 4.25,-2.75 7.54,-4.87 10.79,-6.99 0.3,0.33 0.55,0.62 0.84,0.95 -1.67,2.21 -3.34,4.46 -4.96,6.67 0.37,0.25 0.75,0.46 1.12,0.71 3.21,-2.96 6.42,-5.92 10.04,-9.25 -7.79,-4.12 -11.29,2.12 -17.62,3.71 2.34,-3.21 4.04,-5.54 5.79,-7.83 -0.54,-0.38 -1.04,-0.71 -1.58,-1.05 -5,6 -10,12 -15,18 -0.75,-0.5 -1.5,-1.04 -2.2,-1.54 3.79,-5 7.62,-9.96 11.41,-14.91 -0.58,-0.42 -1.21,-0.84 -1.79,-1.21 -4.29,5.25 -8.62,10.45 -12.92,15.7 -0.2,-0.12 -0.45,-0.25 -0.7,-0.37 1.33,-3.59 2.66,-7.17 4,-10.75 -0.59,-0.21 -1.17,-0.42 -1.75,-0.67 -1.67,3.63 -3.46,7.21 -4.96,10.92 -1.58,3.91 -2.83,8.04 -9.29,8.16 2.41,-6.45 4.66,-12.49 6.91,-18.53 -0.75,-0.26 -1.54,-0.55 -2.29,-0.8 -2.12,7 -4.2,14.04 -6.33,21.04 -0.46,-0.12 -0.92,-0.25 -1.37,-0.37 1.16,-5.55 2.37,-11.04 3.54,-16.54 -0.75,-0.21 -1.5,-0.38 -2.25,-0.59 -2.34,7.67 -4.63,15.29 -6.92,22.96 -0.41,-0.13 -0.83,-0.29 -1.29,-0.42 0.33,-4.08 0.67,-8.12 1,-12.16 -0.67,-0.09 -1.33,-0.17 -2,-0.25 -0.5,3.58 -0.79,7.2 -1.54,10.7 -0.75,3.38 -1.96,6.67 -2.96,10 -0.87,-0.25 -1.75,-0.5 -2.62,-0.75 0.12,-4.16 0.25,-8.33 0.41,-13.91 -6.83,6.87 1.75,16.95 -8.33,22.83 0.63,-6.04 1.09,-10.63 1.54,-14.92 -0.41,0.13 -1.41,0.46 -2.83,0.88 0.75,-3.29 1.38,-6.29 2.04,-9.25 -0.5,-0.17 -1,-0.33 -1.54,-0.46 -1.96,5 -3.92,10 -5.87,15.04 1.37,-19.5 -1.38,-28.08 -10.21,-32.04 2.58,7.38 5.46,15.58 8.33,23.75 -1.46,0.54 -2.95,1.04 -4.45,1.54 -4.67,-8 -9.34,-16 -14.04,-24.04 -0.05,0.09 -0.13,0.13 -0.21,0.17 1.04,2.08 2.04,4.17 3.62,7.5 -12.58,-11.83 -12.58,-11.83 -15.99,-11.79 2.33,2.04 4.74,4.12 8.04,6.92 -7.29,-1.3 -13.13,-2.34 -18.96,-3.42 -0.12,0.71 -0.21,1.37 -0.33,2.04 5.58,1.25 11.12,2.5 16.7,3.75 -0.08,0.58 -0.21,1.12 -0.29,1.71 -1.62,-0.17 -3.25,-0.54 -4.79,-0.42 -10.62,0.75 -21.29,1.46 -31.87,2.63 -1.83,0.2 -4.83,3.12 -4.45,4 2.33,5.16 -1.5,7.08 -4.84,9.37 -6.12,4.12 -10.62,9.2 -14.2,14.83 6.75,-2.38 13.5,-4.75 20.2,-7.08 0.46,0.79 0.88,1.58 1.33,2.37 -6.83,2.33 -13.66,4.63 -20.45,6.92 -0.37,-0.67 -0.79,-1.38 -1.17,-2.05 -2.95,4.75 -5.24,9.92 -7.08,15.33 5.04,-3.08 10.08,-6.12 15.12,-9.2 0.55,0.54 1.09,1.12 1.59,1.66 -3.08,2.38 -6.29,4.67 -9.21,7.21 -2.91,2.54 -5.46,5.42 -8.16,8.12 0.33,0.13 0.7,0.3 1.04,0.42 5.71,-3.62 11.41,-7.21 17.12,-10.83 1,0.29 2,0.54 3,0.83 0.25,1.96 0.54,3.88 0.83,5.83 0.63,-0.2 1.29,-0.41 1.96,-0.66 -0.46,-3.63 -1.13,-7.29 -1.17,-10.87 -0.04,-1 1.92,-1.84 2.96,-2.71 0.83,0.96 2.17,1.87 2.38,2.91 0.49,2.67 0.54,5.38 0.74,8.04 0.38,0 0.8,0.05 1.21,0.05 2.38,-7.92 4.75,-15.83 7.13,-23.75 0.75,0.17 1.5,0.33 2.25,0.5 -0.8,5.21 -1.63,10.46 -2.46,15.71 0.54,0.08 1.08,0.2 1.66,0.29 1.05,-3.46 2.09,-6.92 2.92,-9.79 13.58,-0.96 16.04,-11.87 23.12,-18.21 0.54,0.3 1.08,0.59 1.63,0.92 -3.13,5.67 -6.25,11.33 -9.38,17 12.37,-3.09 19.42,-10.25 24.71,-20.08 -3.84,0.25 -6.3,0.41 -10.21,0.66 1.54,-2.91 2.46,-4.66 4.17,-7.87 4.29,4.58 7.58,8 10.66,11.25 -6.04,5.46 -11.17,10.12 -16.25,14.75 0.42,0.41 0.88,0.79 1.34,1.2 1.75,-1.12 3.45,-2.29 5.2,-3.41 0.17,0.16 0.38,0.33 0.55,0.54 -1.05,1.42 -2.09,2.87 -3.13,4.33 0.29,0.21 0.58,0.46 0.92,0.71 4.95,-3.54 9.95,-7.04 15.99,-11.29 0.5,12.46 -9.29,13.66 -20.58,15.2 7.67,2.3 13,3.88 18.33,5.5 -3.08,1.09 -5.79,0.34 -8.41,0.46 -9.25,0.38 -18.5,0.67 -27.58,1.79 -2.66,0.3 -5.08,2.88 -6.96,4.92 -5.45,6 -10.58,12.29 -15.91,18.41 -3.87,4.5 -7.79,8.92 -11.79,13.46 8.42,-3.79 16.17,-7.29 23.91,-10.79 0.59,0.79 1.17,1.54 1.75,2.33 -2.58,1.96 -4.75,5.12 -7.79,5.67 -19.99,3.66 -26.12,17.28 -30.37,31.86 4.8,-3.95 9.96,-8.24 16.04,-13.28 2.29,7.79 4.04,13.62 5.75,19.49 2.67,-7.45 -4.25,-16.41 4.54,-23.08 0.09,3.5 0.04,6.29 0.34,9.13 0.25,2.75 0.87,5.45 1.54,9.49 4.2,-12.33 1.62,-24.95 10.91,-36.11 0.25,5.83 0.42,9.79 0.58,13.74 0.55,0.05 1.09,0.13 1.63,0.17 0.67,-6.37 1.33,-12.79 2,-19.2 0.75,0.12 1.5,0.25 2.25,0.37 0.33,3.58 0.71,7.13 1.04,10.67 1.83,-3.63 1.75,-7.34 2.33,-10.92 0.5,-3.17 1.79,-6.21 2.71,-9.29 0.75,0.21 1.5,0.46 2.29,0.71 -0.62,3.71 -1.21,7.37 -2,12.25 6.79,-6.84 2.46,-17.54 14.17,-22.71 -2.05,6.84 -3.59,12 -5.13,17.13 0.63,0.24 1.29,0.45 1.96,0.66 4.5,-6.16 9,-12.33 13.46,-18.49 0.37,0.16 0.75,0.37 1.12,0.54 -1.92,4.37 -3.83,8.75 -5.75,13.08 3.13,-2.29 4.63,-5.29 6.42,-8.17 1.62,-2.66 3.5,-5.21 5.29,-7.79 0.33,0.21 0.62,0.42 0.91,0.63 -2.54,4.66 -5.08,9.37 -7.58,14.04 0.54,0.25 1.13,0.54 1.71,0.79 1.29,-2.17 2.46,-4.46 3.92,-6.54 1,-1.46 2.16,-2.84 3.33,-4.21l0 4.92c-4,5.83 -8.04,11.66 -12.08,17.53 0.12,0.25 0.25,0.55 0.37,0.84 3.88,-2.42 7.79,-4.88 11.71,-7.29l-0.04 163.25 0.04 0 0 35c-0.59,0.33 -1.21,0.79 -2.04,1.33l-5.34 4.37 22.5 0 -5.37 -4.37c-0.75,-0.54 -1.46,-1 -2.09,-1.33l0 -45.79c0.05,0 0.09,0.05 0.17,0.05l0 -0.21c0,0.04 -0.08,0.04 -0.17,0.08l0 -7.5c0.05,0 0.05,0 0.05,0l0 -0.16c0,0.04 0,0.04 -0.05,0.04l0 -147.05c0.96,1.87 2.17,4.29 3.59,7.12 0.37,-6.67 -0.59,-10.12 -3.59,-11.62l0 -9c1.84,-0.13 4.17,0.54 7.46,1.83 -0.42,6.5 -0.83,13.04 -1.25,19.62 0.54,0.09 1.12,0.17 1.71,0.25 1,-6.21 1.96,-12.37 3,-18.83 3.08,1.21 5,1.88 6.79,2.71 5.7,2.71 9.87,5.54 4.95,11.58 -2.58,3.21 -3.45,7.5 -5.12,11.33 0.67,0.29 1.33,0.59 2,0.88 2.63,-5 5.21,-9.96 7.87,-15.04 9.13,7.08 -1.83,12.2 0.63,19.33 2.21,-3.71 4,-6.67 5.75,-9.58 0.58,0.25 1.12,0.5 1.66,0.75 -2.16,5.58 -4.33,11.12 -6.54,16.7 0.46,0.17 0.92,0.33 1.38,0.5 2.17,-3.96 4.37,-7.87 6.54,-11.83 0.87,0.38 1.79,0.75 2.67,1.13 -1.92,5.16 -3.8,10.37 -5.67,15.58 0.37,0.12 0.75,0.24 1.12,0.37 1.46,-2 2.92,-4 4.38,-6 0.21,0.08 0.41,0.21 0.62,0.33 -1.83,4.29 -3.62,8.63 -5.41,12.92 0.54,0.25 1.08,0.46 1.66,0.66 1.75,-3.12 3.5,-6.2 5.29,-9.33 0.63,0.25 1.25,0.5 1.88,0.79 -1.79,5.88 -3.54,11.71 -5.29,17.58 0.42,0.13 0.79,0.21 1.21,0.34 1.41,-3.17 2.79,-6.29 4.2,-9.46 0.59,0.21 1.17,0.38 1.71,0.58 -0.91,5.38 -1.87,10.79 -2.83,16.21 0.67,0.12 1.33,0.25 2,0.42 1.87,-6.21 3.75,-12.42 5.75,-19.12 5.45,2.49 10.54,4.83 15.58,7.16 0.75,-8.33 -5.88,-10.08 -12.58,-11.83 -3.92,-1 -8.25,-1.75 -6.83,-7.33 6.37,1.33 12.74,2.66 19.24,4.04 -3.83,-6.96 -10,-9.08 -17.41,-9.79 -1.92,-0.17 -4.71,-1.75 -5.58,-3.29 -2.67,-4.58 -4.54,-9.42 -7.25,-15.29 6.5,0.67 12.33,1.29 18.2,1.87 0.04,-0.62 0.08,-1.25 0.13,-1.87 -7.17,-1 -14.29,-2 -21.42,-3 0.05,-0.58 0.09,-1.17 0.13,-1.75 4.87,0.33 9.75,0.63 14.04,0.88 -5.17,-7.04 -12.67,-7.63 -20.75,-7.67 -3.16,-0.04 -6.54,-2.5 -10.95,-4.33 8.95,1.25 16.2,2.29 23.45,3.29 0.08,-0.67 0.17,-1.33 0.21,-2 -5.75,-0.79 -11.54,-1.58 -17.33,-2.38 0,-0.7 0,-1.45 0,-2.16 5.33,0.04 10.71,0.12 16.75,0.21 -3.3,-4.63 -6.63,-9.33 -9.92,-13.92 4,-3.29 6.62,-2.41 9.21,1.46 2.29,3.46 5.16,6.67 7.83,9.96 0.5,-0.29 1,-0.54 1.5,-0.84 -2.96,-4.37 -5.96,-8.7 -9.17,-13.41 2.25,-0.46 4,-0.79 5.96,-1.17 2.79,5.54 5.33,10.63 7.87,15.71 0.67,-0.21 1.34,-0.42 2,-0.58 -2.25,-5.25 -4.5,-10.46 -6.79,-15.75 13.21,-1.54 15,-0.21 15.17,11.04 0.08,4.12 -0.21,8.21 -0.29,12.29 0.75,0.16 1.5,0.33 2.24,0.5 1.63,-5.29 3,-10.67 4.92,-15.87 0.54,-1.38 2.58,-2.25 3.92,-3.38 0.95,1.46 2.95,3.21 2.66,4.29 -1.21,4.63 -3.08,9.08 -4.87,13.54 -1.21,2.92 -2.67,5.75 -4.04,8.62 0.5,0.25 1.04,0.46 1.58,0.71 2.37,-2.66 4.79,-5.33 7.17,-8.04 0.62,0.34 1.29,0.67 1.91,0.96 -1.41,4.83 -2.87,9.67 -4.33,14.46 3.54,-3.38 8.08,-7.25 7.71,-11.13 -0.92,-8.62 5.37,-6.62 10.58,-6.83 1.95,-0.08 4,0.21 6,0.38 0,-0.54 0,-1.09 0,-1.59 -3.59,-0.29 -7.21,-0.33 -10.79,-0.87 -2.04,-0.33 -3.96,-1.42 -5.96,-2.13z"/>
   <path class="fil0" d="M828.45 189.38c-0.42,6.2 -0.79,11.7 -1.17,17.2 0.5,0.04 1.04,0.08 1.58,0.13 1.09,-3.71 2.21,-7.46 3.59,-11.96 2.79,2.87 4.79,5 6.79,7.08 0.25,-6.62 -4.46,-9.66 -10.79,-12.45z"/>
   <path class="fil0" d="M776.5 2.25c-82.4,0 -149.47,87.85 -149.47,195.87 0,108.02 67.07,195.92 149.47,195.92 82.44,0 149.51,-87.9 149.51,-195.92 0,-108.02 -67.07,-195.87 -149.51,-195.87zm0 393.37c-83.27,0 -151.05,-88.6 -151.05,-197.5 0,-108.89 67.78,-197.45 151.05,-197.45 83.32,0 151.09,88.56 151.09,197.45 0,108.9 -67.77,197.5 -151.09,197.5z"/>
   <path class="fil0" d="M776.5 2.87c-82.07,0 -148.84,87.61 -148.84,195.25 0,107.69 66.77,195.25 148.84,195.25 82.11,0 148.84,-87.56 148.84,-195.25 0,-107.64 -66.73,-195.25 -148.84,-195.25zm0 391.79c-82.77,0 -150.09,-88.14 -150.09,-196.54 0,-108.35 67.32,-196.54 150.09,-196.54 82.77,0 150.13,88.19 150.13,196.54 0,108.4 -67.36,196.54 -150.13,196.54zm0 -393.37c-82.94,0 -150.43,88.32 -150.43,196.83 0,108.56 67.49,196.88 150.43,196.88 82.98,0 150.47,-88.32 150.47,-196.88 0,-108.51 -67.49,-196.83 -150.47,-196.83zm0 394.96c-83.65,0 -151.68,-88.86 -151.68,-198.13 0,-109.22 68.03,-198.12 151.68,-198.12 83.69,0 151.72,88.9 151.72,198.12 0,109.27 -68.03,198.13 -151.72,198.13z"/>
   <path class="fil0" d="M776.5 13c-76.07,0 -137.97,83.02 -137.97,185.12 0,102.11 61.9,185.17 137.97,185.17 76.11,0 138.01,-83.06 138.01,-185.17 0,-102.1 -61.9,-185.12 -138.01,-185.12zm0 371.88c-76.94,0 -139.55,-83.78 -139.55,-186.76 0,-102.97 62.61,-186.75 139.55,-186.75 76.98,0 139.6,83.78 139.6,186.75 0,102.98 -62.62,186.76 -139.6,186.76z"/>
   <path class="fil0" d="M776.5 13.62c-75.73,0 -137.35,82.78 -137.35,184.5 0,101.77 61.62,184.55 137.35,184.55 75.78,0 137.39,-82.78 137.39,-184.55 0,-101.72 -61.61,-184.5 -137.39,-184.5zm0 370.3c-76.44,0 -138.6,-83.32 -138.6,-185.8 0,-102.43 62.16,-185.79 138.6,-185.79 76.44,0 138.64,83.36 138.64,185.79 0,102.48 -62.2,185.8 -138.64,185.8zm0 -371.88c-76.61,0 -138.93,83.48 -138.93,186.08 0,102.65 62.32,186.13 138.93,186.13 76.65,0 138.97,-83.48 138.97,-186.13 0,-102.6 -62.32,-186.08 -138.97,-186.08zm0 373.5c-77.32,0 -140.22,-84.06 -140.22,-187.42 0,-103.31 62.9,-187.37 140.22,-187.37 77.36,0 140.22,84.06 140.22,187.37 0,103.36 -62.86,187.42 -140.22,187.42z"/>
   <path class="fil0" d="M675.6 848.4c3.13,1.12 16,6.25 32.92,19.87l-97.15 0c17.04,-13.75 29.95,-18.83 32.95,-19.87l-0.04 -262.15c-3.13,-1.13 -16,-6.21 -32.91,-19.83l97.15 0c-17.04,13.66 -29.96,18.79 -32.96,19.87l0.04 262.11z"/>
   <path class="fil0" d="M450.32 868.23l41.91 0 -0.79 -3.87c-1.8,-8.96 -2.59,-15.79 -2.59,-22.17 0,-6.41 0.79,-13.37 2.59,-21.7l47.99 -202.79c0.04,-0.08 1.75,-7.54 5,-16.5 0.16,-0.41 0.33,-0.87 0.49,-1.33 3.92,-9.08 11.21,-16.29 20.13,-20.54 5.99,-2.83 13.62,-7.08 20.87,-12.91l-44.74 0 -1.59 0 -4.45 0 -1.8 0 -44.57 0c0,0 7.91,5.83 15.04,10.04 17.37,10.25 22.33,28.45 20.91,48.28 -0.79,11.29 -2.71,23.7 -5.67,36.78l-37.99 159.51 -43.82 -184.33 -0.71 -2.38c0,0 -8.58,-36.28 -11.54,-48.95 -0.16,-0.75 -0.25,-1.45 -0.21,-2.16l-0.16 0c6.04,-2.96 15.12,-8.17 25.83,-16.79l-44.74 0 -1.59 0 -4.46 0 -1.79 0 -44.53 0c13.08,10.54 23.75,16 29.33,18.41l67.65 283.4z"/>
   <path class="fil0" d="M767.92 849.82c-2.79,1.16 -6.83,3.16 -11.92,6.2 -4.99,2.96 -10.91,6.96 -17.45,12.21l97.15 0 94.52 0c5.7,0 6,-3.92 6,-4.71 0,-0.62 -0.13,-1.25 -0.34,-1.83 0.13,0.04 0.21,0.08 0.34,0.08 -8.63,-46.61 -34.21,-70.48 -35,-71.19 0.5,1.08 9.71,21.83 6.25,51.45 -0.79,6.87 -6.75,11.99 -13.66,11.99l-33.74 0 -40.66 -0.04 -16.62 -12.08 0 -129.3 -0.05 0 0 -126.31c0.3,-0.13 0.75,-0.29 1.3,-0.5 3.41,-1.33 10.95,-4.66 20.91,-11.41 3.33,-2.25 6.95,-4.92 10.75,-7.96l-97.15 0c3.83,3.08 7.46,5.71 10.79,7.96 9.87,6.7 17.41,10.03 20.79,11.41 0.54,0.17 1,0.33 1.33,0.46l0 6.7 0 124.35 0 0 0.04 0 0 131.06c-0.67,0.25 -1.87,0.71 -3.58,1.46z"/>
   <path class="fil0" d="M992.79 849.82c-2.79,1.16 -6.83,3.16 -11.92,6.2 -5,2.96 -10.91,6.96 -17.45,12.21l97.14 0 94.52 0c5.71,0 6,-3.92 6,-4.71 0,-0.62 -0.12,-1.25 -0.33,-1.83 0.13,0.04 0.21,0.08 0.33,0.08 -8.62,-46.61 -34.2,-70.48 -34.99,-71.19 0.5,1.08 9.71,21.83 6.25,51.45 -0.79,6.87 -6.75,11.99 -13.66,11.99l-33.75 0 -40.65 -0.04 -16.63 -12.08 0 3.71c0,0 0,0 0,0l0 -133.01 -0.04 0 0 -126.31c0.29,-0.13 0.75,-0.29 1.29,-0.5 3.42,-1.33 10.96,-4.66 20.92,-11.41 3.33,-2.25 6.95,-4.92 10.74,-7.96l-97.14 0c3.83,3.08 7.45,5.71 10.79,7.96 9.87,6.7 17.41,10.03 20.78,11.41 0.55,0.17 1,0.33 1.34,0.46l0 6.7 0 124.35 0 0 0.04 0 0 131.06c-0.67,0.25 -1.87,0.71 -3.58,1.46z"/>
   <path class="fil0" d="M216.37 1132.34l0.17 -3.17 0 0c3.37,-1.29 12.37,-5.45 27.45,-17.58l-147.09 0 86.48 17.75 0 58.45c0,6.12 -0.59,10.54 -1.88,13.2 -0.04,0.13 -0.12,0.25 -0.16,0.38 -1.13,2.2 -3.21,3.58 -6.5,4.33 -1.71,0.33 -3.88,0.62 -6.54,0.87 -3.5,0.34 -7.83,0.59 -13.12,0.71l-12.17 0.38c-7.41,0 -17.54,-1.13 -30.08,-3.38 -12.12,-2.12 -23.32,-6.5 -33.32,-12.91 -11.29,-7.37 -21.71,-19.29 -31.08,-35.41 -9.29,-16.08 -14.04,-37.99 -14.04,-65.11 0,-16.71 2.21,-33.24 6.67,-49.12 4.45,-15.91 10.91,-30.07 19.29,-42.15 8.24,-12.04 18.66,-21.75 31.03,-28.79 12.21,-6.96 26,-10.5 40.91,-10.5 15.87,0 30.78,3.75 44.32,11.04 8.46,4.63 15.83,10.04 22.08,16.12 0,0.05 0,0.05 0,0.05 0.58,23.78 -6.54,39.78 -6.96,40.7 0.46,-0.42 10.25,-9.54 19.71,-27.25l0 0c1.41,-2.5 2.75,-5.21 4.04,-8.12l0 0c3.66,-8 7.04,-17.37 9.58,-28.04l-18.7 0 -0.88 -0.46c-25.2,-11.58 -49.7,-17.49 -72.86,-17.49 -20.24,0 -38.95,4.16 -55.61,12.37 -16.5,8.12 -30.7,19.08 -42.24,32.7 -11.37,13.46 -20.12,28.45 -26,44.45 -5.87,16.04 -8.87,31.91 -8.87,47.16 0,22.49 5.58,44.28 16.5,64.77 10.95,20.5 25.82,37.62 44.15,50.83 8.96,6.62 18.33,11.66 27.87,14.91 9.33,3.21 17.87,5.21 25.25,5.92 7.04,0.75 14.95,1.16 23.45,1.16l9.58 0 83.65 0 13.5 0c-11.17,-9.04 -20.62,-14.33 -26.58,-17.2 -0.58,-2.71 -1,-6.54 -1,-12l0 -57.49c0,-0.71 0,-1.41 0,-2.08z"/>
   <path class="fil0" d="M1553 950.84l-74.61 0c16.5,14.37 27.08,19.2 28.74,19.95 0.3,2 0.46,4.46 0.46,7.62l0 177.26 -152.76 -187.09 -9.33 -11.45c-3.33,-4 -8.12,-6.29 -13.04,-6.29l-40.03 0 -6.91 0c1.5,1.2 2.99,2.33 4.45,3.41 0.79,0.63 1.63,1.25 2.46,1.79 1.88,1.42 3.71,2.67 5.5,3.84 2.29,1.5 4.46,2.83 6.46,4 7.24,4.2 12.37,6.16 14.08,6.83 0.25,0.46 0.41,1 0.62,1.54 0.96,2.62 1.79,5.5 2.46,8.58l0 0.04c1.87,8.08 2.79,17.5 2.79,28l0 178.54c0,6.08 -0.12,10.66 -0.37,13.91 -2.71,1.25 -13,6.38 -28.33,19.75l11.12 0 0 0.04 50.53 0 0 -0.04 12.96 0c-17.92,-15.62 -29,-20.08 -29.08,-20.08 -0.25,-2.37 -0.37,-5.25 -0.37,-8.75l0 -186.25 183.04 220.83 0 -245.91c0,-4.41 0.25,-7.7 0.67,-10.24 2.41,-1.09 12.87,-6.17 28.49,-19.83z"/>
   <path class="fil0" d="M356.17 1085.85l26.46 -76.82 26.45 76.82 -52.91 0zm140.56 122.06c-1.59,-0.84 -3.17,-1.54 -4.59,-2.21 -1.62,-0.71 -3.12,-1.33 -4.54,-1.88 -2.54,-4.62 -6.41,-13.16 -6.91,-14.66 -0.67,-1.87 -83.28,-237.74 -84.11,-240.16 -0.46,-1.25 -1.71,-2.12 -3.04,-2.12l-3.92 0c-1.33,0 -2.58,0.87 -2.99,2.12 0,0 -86.19,249.28 -87.49,251.99 0,0 -22.07,4.42 -41.53,20.12l97.15 0c-18.58,-14.95 -36.58,-19.66 -38.29,-20.08 0.17,-0.54 0.5,-1.66 1.25,-3.79l34 -97.56 62.44 0 36.49 103.85c0.17,0.42 0.13,0.84 -0.08,1.21 -3.67,1.25 -7.21,2.5 -8.75,3.17 -0.08,0.08 -0.16,0.12 -0.25,0.12 -4.83,2.25 -10.16,5.13 -15.41,8.71 -0.88,0.58 -1.75,1.21 -2.58,1.83 -1.13,0.83 -2.21,1.67 -3.29,2.54l8.7 0 79.44 0 8.96 0c-0.46,-0.41 -0.96,-0.79 -1.46,-1.16 -6.79,-5.29 -13.45,-9.21 -19.2,-12.04z"/>
   <path class="fil0" d="M1043.86 1138.59c-5.79,16.2 -13.41,29.53 -22.7,39.66 -6.3,6.87 -13.38,12.49 -21.04,16.7 -7.54,4.25 -16.41,7.42 -26.41,9.5 -9.92,2.12 -21.54,3.21 -34.62,3.21 -17.16,0 -30.16,-1.63 -38.62,-4.92 -8.16,-3.08 -13.41,-7.41 -16.08,-13.25 -2.75,-6.12 -4.12,-14.58 -4.12,-25.16l0 -200.08 0 -1.46 12.54 0 19.41 0c25.12,0 46.91,3.67 64.95,10.96 13.58,5.25 25.49,12.5 35.36,21.62 9.83,9.08 17.71,18.99 23.33,29.37 5.67,10.41 9.92,21.24 12.66,32.2 2.67,10.95 4,22.04 4,32.87 0,16.2 -2.91,32.61 -8.66,48.78zm34.57 -102.69l0 -0.04c-3.91,-13.21 -9.37,-24.99 -16.28,-35.03 -6.92,-10.04 -14.83,-18.46 -23.58,-24.96 -10.04,-7.66 -22.41,-13.79 -36.66,-18.24 -14.41,-4.58 -34.87,-6.79 -62.53,-6.79l-29.49 0 -75.86 0 -21.25 0c15,12.08 26.87,17.49 31.5,19.33 1.37,0.54 2.12,0.75 2.12,0.75l0.25 0c0.13,1.12 0.25,2.45 0.38,3.95 0.04,0.59 0.04,1.21 0.08,1.84l0.08 1.87c0.05,0.42 0.05,0.88 0.05,1.33 0,0.17 0,0.38 0.04,0.54 0.04,2.09 0.08,4.34 0.08,6.75l0 192.13c0,3.46 -0.04,6.62 -0.12,9.45 -0.21,5.25 -0.59,9.42 -1.13,12.54 0,0.05 0,0.05 0,0.09 -3.79,1.41 -16.25,6.66 -32.45,19.7l44.78 0 1.54 0 4.5 0 1.79 0 44.53 0c0,0 0,0 0,0l31.04 0c18.95,0 34.83,-1.16 47.16,-3.5 12.54,-2.33 23.41,-6.54 32.24,-12.45 8.29,-5.54 16.25,-12.54 23.66,-20.87 7.33,-8.25 14.08,-18.12 20.08,-29.41 6,-11.21 10.79,-23.42 14.16,-36.25 3.38,-12.83 5.04,-26.41 5.04,-40.49 0,-14.83 -1.91,-29.07 -5.75,-42.24z"/>
   <path class="fil0" d="M650.69 1074.73c-3.2,1.95 -7.99,3.58 -14.28,4.83 -6.75,1.37 -12.21,2 -16.58,2l-20.79 0 0 -111.23 0 -6.08 12.5 0 3.16 0c10.29,0 18.62,1.29 24.83,3.87 6.21,2.55 11.66,6.46 16.2,11.71 3.8,4.29 6.96,9.25 9.42,14.71 2.42,5.58 4.25,11.45 5.41,17.49 1.25,6.42 1.84,11.92 1.84,16.87 0,11.42 -2.13,21.08 -6.29,28.62 -4.21,7.54 -9.38,13.33 -15.42,17.21zm131.98 125.18c-2,1.29 -3.71,2.25 -5.17,2.96 -4.12,2.24 -8.83,3.37 -14.04,3.37 -3.71,0 -7.21,-0.5 -10.54,-1.5 -3.41,-1.08 -6.62,-2.67 -9.75,-4.75 -6.33,-4.33 -11.41,-9 -15.16,-13.83 -8.37,-11.12 -17.83,-25.2 -28.87,-42.99 -10.83,-17.54 -16.99,-27.99 -18.99,-32.16l-16.17 -28.62c6.5,-4.41 12.58,-9.83 18.08,-16.08 6.38,-7.16 11.54,-15.5 15.29,-24.7 3.83,-9.33 5.79,-19.16 5.79,-29.2 0,-14.5 -3.21,-26.79 -9.58,-36.41 -6.37,-9.67 -15.04,-16.5 -25.7,-20.16 -5.75,-2.21 -12.04,-3.63 -18.71,-4.21 -4.29,-0.38 -10.37,-0.59 -18.16,-0.71 0,-0.04 0.08,-0.08 0.13,-0.08l-13.17 0 -65.11 0 -18.83 0c15,12.08 26.87,17.49 31.49,19.33 0.38,2.41 0.63,5.79 0.63,10.41l0 220.95c-4.13,1.54 -16.37,6.88 -32.16,19.58l44.78 0 1.58 0 4.46 0 1.79 0 44.54 0c-15.71,-12.66 -27.92,-17.95 -32.08,-19.58l0 -106.77 15.33 0c8.08,0 10.87,-0.12 12.2,-0.33l6.38 -0.25 21.95 38.87c0.17,0.37 0.29,0.66 0.38,0.87 0.04,0.42 0.2,0.84 0.37,1.21 13.87,23.91 27.04,44.57 39.12,61.49 4.91,7 10.24,12.54 15.91,16.62 5.67,4.04 11.17,6.87 16.33,8.29 5.17,1.37 10.29,2.08 15.29,2.08 4.66,0 9.46,-0.42 14.29,-1.25 1.25,-0.12 2.46,-0.37 3.71,-0.62 5.87,-1.21 10.66,-2.63 14.37,-4.21 4.2,-1.96 8.33,-4.42 12.33,-7.37 0.33,-0.3 0.66,-0.59 1,-0.88 2.12,-1.79 4.08,-3.54 5.87,-5.25 10.08,-9.58 14.75,-17.24 15,-17.7 -0.54,0.37 -3.79,2.62 -15.91,6.91 -0.09,0.04 -8.25,5.34 -10.29,6.67z"/>
   <path class="fil0" d="M1265.73 1163.42l-1.67 6.04 -0.46 1.75c-0.04,0.04 -0.83,3.08 -2.66,7.24 -0.38,0.92 -0.79,1.8 -1.25,2.75 0,0 0,0 0,0.09 -0.13,0.12 -0.17,0.29 -0.29,0.46 -0.67,1.5 -1.5,3.12 -2.46,4.74 -0.96,1.75 -2.13,3.5 -3.42,5.25 0,0.09 -0.04,0.17 -0.21,0.34 -1.16,1.58 -2.41,3.12 -3.87,4.62 -0.38,0.42 -0.67,0.71 -1.17,1.08 -1.37,1.34 -2.83,2.63 -4.41,3.67 -3.04,2.12 -6.42,3.66 -10.29,4.29 -0.13,0.04 -0.21,0.04 -0.33,0.04 -2.92,0.13 -6.25,0.17 -9.92,0.17l-40.49 0c-8.62,0 -14.91,-0.63 -18.75,-1.96 -3.12,-1 -5.45,-3.71 -7.16,-8.25 -1.88,-5.08 -2.79,-13.62 -2.79,-25.33l0 -74.77 68.32 0c0.54,0.08 1.12,0.25 1.62,0.5 0.17,0 0.33,0.12 0.5,0.17 0.25,0.12 0.5,0.29 0.79,0.41 2.92,1.67 4.88,4.75 6.13,7.33 1.24,2.38 1.75,4.38 1.75,4.46l1.79 7.04 0 -11.21 0 -35.65 0 -11.13 -1.79 6.59c0,0.04 -0.59,2.16 -1.92,4.66 -1.13,2.29 -2.88,5 -5.37,6.75 -0.63,0.46 -1.34,0.87 -2.13,1.12 -0.96,0.5 -2,0.75 -3.25,0.75l-66.44 0 0 -106.6c1.75,-0.71 4.25,-1.83 7.29,-3.46l59.53 0c3.87,0.63 7.24,2.17 10.29,4.3 1.58,1.08 3.08,2.33 4.45,3.66 0.46,0.38 0.79,0.67 1.17,1.13 1.42,1.45 2.71,3 3.87,4.58 0.13,0.16 0.21,0.29 0.21,0.33 1.25,1.75 2.42,3.5 3.38,5.25 0.95,1.63 1.79,3.29 2.5,4.75 0.58,1.17 1.08,2.25 1.54,3.29 1.79,4.17 2.58,7.21 2.62,7.25l0.5 1.75 1.63 6.04 2.58 9.58 0 -24.62 0 -42.66 -126.89 0 -23.83 0 0 0.04 -17.54 0c17.33,13.88 30.41,18.88 33.08,19.83 0,0 0,0 0,0 0.17,1.17 0.29,2.54 0.37,4.13 0.09,0.71 0.13,1.41 0.17,2.21 0,0.87 0.04,1.83 0.04,2.79l0 0.37c0.09,0.96 0.09,2 0.09,3.13l0 212.12c0,1.71 -0.09,3.2 -0.17,4.45 -0.58,0.17 -14.5,4.71 -33.58,20l17.54 0 0 0.04 36.41 0 126.93 0 0 -42.66 0 -24.62 -2.58 9.59z"/>
  </g>
 </g>
</svg>
