<?xml version="1.0" encoding="utf-8"?>
<!-- Generator: Adobe Illustrator 25.4.1, SVG Export Plug-In . SVG Version: 6.00 Build 0)  -->
<svg version="1.1" id="Layer_1" xmlns="http://www.w3.org/2000/svg" xmlns:xlink="http://www.w3.org/1999/xlink" x="0px" y="0px"
	 viewBox="0 0 223 145" style="enable-background:new 0 0 223 145;" xml:space="preserve">
<style type="text/css">
	.st0{fill:#231F20;}
</style>
<g>
	<g>
		<g>
			<path class="st0" d="M56.7,92.4c0-2.2,1.5-3.7,3.8-3.7c1.1,0,1.6,0.5,2,0.5c0.2,0,0.4-0.1,0.5-0.4V91l0,0c-0.2-0.8-0.6-2-2.4-2
				c-1.4,0-2.3,1.4-2.3,3.5c0,2,0.9,3.3,2.3,3.3c1.3,0,2.4-0.8,2.8-2h0.1L63,95.4c-0.5,0.4-1.5,0.6-2.5,0.6
				C58.3,96,56.7,94.5,56.7,92.4z"/>
			<path class="st0" d="M71.3,95.8h-1.1c-0.9,0-1.2-0.3-1.8-1.5c-0.3-0.7-0.4-1.6-1.4-1.6h-0.2v2.2c0,0.5,0.4,0.8,0.9,0.8v0.1h-3.4
				v-0.1c0.6,0,0.9-0.3,0.9-0.8v-5.2c0-0.5-0.4-0.8-0.9-0.8v-0.1h3.8c1.5,0,2.4,0.7,2.4,1.8c0,1.1-0.7,1.9-1.8,2.1
				c0.5,0,0.8,0.5,1,1.1C70.1,94.8,70.6,95.8,71.3,95.8L71.3,95.8L71.3,95.8z M67.7,89h-0.9v3.5h1c0.8-0.1,1.3-0.9,1.3-2
				C69.1,89.7,68.5,89,67.7,89z"/>
			<path class="st0" d="M77.1,95.6c0.7,0,1.4-1,1.6-1.9h0.1l-0.2,2.1h-6.3v-0.1c0.6,0,0.9-0.2,1-0.8v-5.2c0-0.6-0.4-0.8-0.9-0.8
				v-0.1h6.2l0.1,1.9h-0.1C78.3,90.1,77.9,89,77,89h-2.2v3.3h1.8c0.5,0,0.9-0.4,0.9-0.9h0.1v2.1h-0.1c0-0.5-0.4-0.9-0.9-0.9h-1.8
				v3.1L77.1,95.6L77.1,95.6z"/>
			<path class="st0" d="M86.6,94.9c0.3,0.7,0.4,0.8,1,0.8v0.1h-3.5v-0.1c0.5,0,1-0.1,1-0.6c0-0.1,0-0.2,0-0.2s-0.2-0.6-0.5-1.2h-2.2
				L82,94.9c-0.1,0.2-0.1,0.4-0.1,0.5c0,0.2,0.2,0.3,0.6,0.3v0.1h-1.6v-0.1c0.5,0,0.7-0.1,1-0.8l2.3-6.1h0.2L86.6,94.9z M82.4,93.5
				h2.1c-0.5-1.2-1.1-2.6-1.1-2.6L82.4,93.5z"/>
			<path class="st0" d="M89.3,89c-0.9,0-1.4,1.1-1.6,1.7h-0.1l0.1-1.9H95l0.1,1.9H95c-0.2-0.6-0.7-1.7-1.6-1.7H92v5.9
				c0,0.5,0.4,0.8,0.9,0.8v0.1h-3.4v-0.1c0.6,0,1-0.3,1-0.8V89H89.3z"/>
			<path class="st0" d="M99.7,88.8L99.7,88.8c-0.5,0.1-0.9,0.3-0.9,0.8v5.3c0,0.5,0.4,0.8,0.9,0.8v0.1h-3.4v-0.1
				c0.6,0,0.9-0.3,0.9-0.8v-5.2c0-0.6-0.4-0.8-1-0.8v-0.1H99.7z"/>
			<path class="st0" d="M101.9,89.7c-0.3-0.7-0.4-0.8-1-0.8v-0.1h3.5v0.1c-0.5,0-1,0.1-1,0.6c0,0.1,0,0.2,0,0.2c0,0.1,1.7,4,1.7,4
				l1.5-4c0.1-0.2,0.1-0.4,0.1-0.5c0-0.2-0.2-0.3-0.6-0.3v-0.1h1.6v0.1c-0.5,0-0.7,0.1-1,0.8l-2.3,6.1h-0.2L101.9,89.7z"/>
			<path class="st0" d="M113.9,95.6c0.7,0,1.4-1,1.6-1.9h0.1l-0.2,2.1h-6.3v-0.1c0.6,0,0.9-0.2,1-0.8v-5.2c0-0.6-0.4-0.8-0.9-0.8
				v-0.1h6.2l0.1,1.9h-0.1c-0.2-0.6-0.6-1.7-1.5-1.7h-2.2v3.3h1.8c0.5,0,0.9-0.4,0.9-0.9h0.1v2.1h-0.1c0-0.5-0.4-0.9-0.9-0.9h-1.8
				v3.1L113.9,95.6L113.9,95.6z"/>
			<path class="st0" d="M126.1,89.1c0.2,0,0.4-0.2,0.4-0.4V91h-0.2c-0.3-1.2-1.2-2.1-2.3-2.1c-0.8,0-1.3,0.5-1.3,1.2
				c0,1.8,4,1.8,4,4.1c0,1.1-1.1,1.9-2.7,1.9c-0.8,0-1.5-0.3-2-0.3c-0.2,0-0.5,0-0.6,0.1v-2.2h0.1c0.3,1.1,1.3,2.1,2.4,2.1
				c0.8,0,1.3-0.6,1.3-1.2c0-1.4-4-1.7-4-4c0-1.2,1.1-2,2.6-2C125.2,88.6,125.6,89.1,126.1,89.1z"/>
			<path class="st0" d="M129.8,89c-0.9,0-1.4,1.1-1.6,1.7h-0.1l0.1-1.9h7.3l0.1,1.9h-0.1c-0.2-0.6-0.7-1.7-1.6-1.7h-1.4v5.9
				c0,0.5,0.4,0.8,0.9,0.8v0.1H130v-0.1c0.6,0,1-0.3,1-0.8V89H129.8z"/>
			<path class="st0" d="M139.6,93.7c0,1.3,0.7,2.2,1.7,2.2c1.5,0,2.4-0.9,2.4-2.2v-4c0-0.5-0.4-0.8-0.9-0.8v-0.1h2.1v0.1
				c-0.5,0-0.9,0.3-0.9,0.8v4c0,1.4-1.1,2.4-2.6,2.4c-1.9,0-3.2-1-3.2-2.4v-4c0-0.6-0.4-0.8-0.9-0.8v-0.1h3.4v0.1
				c-0.5,0-0.9,0.2-0.9,0.7v4.1H139.6z"/>
			<path class="st0" d="M146.1,95.8L146.1,95.8c0.6-0.1,0.9-0.3,1-0.9v-5.2c0-0.6-0.4-0.8-0.9-0.8v-0.1h3.5c1.9,0,3.2,1.3,3.2,3.2
				c0,2.3-1.3,3.8-3.2,3.8H146.1z M148.6,95.6h0.8c1.2,0,2-1.1,2-3.6c0-2.1-0.6-3-2-3h-0.8V95.6z"/>
			<path class="st0" d="M157,88.8L157,88.8c-0.5,0.1-0.9,0.3-0.9,0.8v5.3c0,0.5,0.4,0.8,0.9,0.8v0.1h-3.4v-0.1
				c0.6,0,0.9-0.3,0.9-0.8v-5.2c0-0.6-0.4-0.8-1-0.8v-0.1H157z"/>
			<path class="st0" d="M158,92.4c0-2.2,1.5-3.7,3.5-3.7c1.9,0,3.4,1.5,3.4,3.7s-1.5,3.7-3.5,3.7C159.5,96,158,94.6,158,92.4z
				 M159.5,92.4c0,2.1,0.8,3.5,1.9,3.5c1.2,0,2-1.4,2-3.5s-0.8-3.5-1.9-3.5C160.3,88.9,159.5,90.3,159.5,92.4z"/>
		</g>
	</g>
	<g>
		<path class="st0" d="M65.6,82.2H47.3v-0.5c2.7,0,4.5-1,4.5-3.8V53.1c0-2.7-1.8-3.8-4.5-3.8V49h17.9c6.9,0,11.5,3.1,11.5,7.8
			c0,3.9-2.7,7-6.6,7.7c4.8,0.2,8.3,3.2,8.3,7.5C78.5,78.1,73.4,82.2,65.6,82.2z M63.1,49.9H59V64h4.5c2.5-0.2,6.5-2.2,6.5-7.2
			C69.9,52.7,68.3,49.9,63.1,49.9z M71.4,72.1c-0.2-4.3-3.5-6.9-7-7.1H59v16.3h5.4C68.7,81.3,71.7,77.8,71.4,72.1z"/>
		<path class="st0" d="M142.6,82.2h-5.4c-4.4,0-5.8-1.2-8.5-7c-1.6-3.4-2-7.5-6.5-7.5h-1V78c0,2.3,1.7,3.8,4.4,3.8v0.5h-16.1v-0.5
			c2.7,0,4.5-1.5,4.5-3.8V53.2c0-2.3-1.7-3.8-4.5-3.8V49h18.1c6.9,0,11.5,3.4,11.5,8.4s-3.5,9-8.7,10.1c2.2,0,3.7,2.1,4.8,5
			c1.8,4.6,4.4,9.3,7.3,9.3L142.6,82.2L142.6,82.2z M125.5,49.9h-4.3v16.8h4.6c3.9-0.2,6.3-4,6.3-9.4
			C132.1,53,129.5,49.9,125.5,49.9z"/>
		<path class="st0" d="M171.2,77.9c1.3,3.3,2,3.8,4.5,3.8v0.5H159v-0.5c2.3,0,4.7-0.6,4.7-2.6c0-0.3,0-0.7-0.2-1.1
			c-0.1-0.2-1.1-2.7-2.4-5.8h-10.6l-2.1,5.5c-0.4,1.1-0.7,1.9-0.7,2.6c0,1.1,0.8,1.5,2.7,1.5v0.5h-7.8v-0.5c2.6,0,3.4-0.6,4.7-3.9
			l11-28.8h1L171.2,77.9z M150.9,71.2h9.8c-2.2-5.5-5.1-12.4-5.1-12.4L150.9,71.2z"/>
		<path class="st0" d="M105.5,78L93.6,49h-1L82.4,75.7l0,0l0,0l-0.8,2.1c-0.1,0.2-0.2,0.4-0.3,0.7l-1.5,3.8h4.8v-0.5
			c-1.9,0-2.7-0.4-2.7-1.5c0-0.6,0.2-1.4,0.7-2.6l2.1-5.5h10.6c1.3,3.1,2.3,5.7,2.4,5.8c0.1,0.4,0.2,0.8,0.2,1.1
			c0,2-2.4,2.6-4.7,2.6v0.5H110v-0.5C107.5,81.8,106.8,81.3,105.5,78z M85.2,71.2l4.7-12.4c0,0,2.9,6.8,5.1,12.4H85.2z"/>
	</g>
</g>
</svg>
