<?xml version="1.0" encoding="UTF-8"?>
<!DOCTYPE svg PUBLIC "-//W3C//DTD SVG 1.1//EN" "http://www.w3.org/Graphics/SVG/1.1/DTD/svg11.dtd">
<!-- Creator: CorelDRAW 2021 (64-Bit) -->
<svg xmlns="http://www.w3.org/2000/svg" xml:space="preserve" width="1301px" height="1301px" version="1.1" style="shape-rendering:geometricPrecision; text-rendering:geometricPrecision; image-rendering:optimizeQuality; fill-rule:evenodd; clip-rule:evenodd"
viewBox="0 0 1301 1301"
 xmlns:xlink="http://www.w3.org/1999/xlink"
 xmlns:xodm="http://www.corel.com/coreldraw/odm/2003">
 <defs>
  <style type="text/css">
   <![CDATA[
    .fil0 {fill:#454545}
   ]]>
  </style>
 </defs>
 <g id="Layer_x0020_1">
  <metadata id="CorelCorpID_0Corel-Layer"/>
  <g id="_2175071356368">
   <path class="fil0" d="M1105.85 1084.17l86.74 0 0 86.73 -86.74 0 0 -86.73zm-997.44 0l86.74 0 0 86.73 -86.74 0 0 -86.73zm694.55 119.93l-77.23 -75.9 140.93 -142.28 77.23 75.9 -140.93 142.28zm-239.86 -411.99l146.24 21.8c12.61,1.84 35.45,7.03 49.58,7.35 0,28.55 11.11,64.39 19.72,85.98 15.52,38.95 21.96,39.72 37.2,68.51l-100.96 99.62c-26.04,-12.99 -28.87,-21 -67.84,-36.53 -21.59,-8.6 -57.43,-19.72 -85.98,-19.72 -0.51,-22.52 -27.13,-162.91 -29.82,-195.15l106.38 105.03c-12.46,0.93 -15.46,3.38 -30.49,3.38l0 43.37 18.98 0c45.59,0 89.44,-43.86 89.44,-89.44l0 -18.98 -43.37 0c0,15.03 -2.44,18.03 -2.71,29.82l-106.37 -105.04zm-86.07 -35.9c0,19.35 4.84,42.87 7.74,60.02 3.43,20.26 6.11,38.15 8.98,58.78 2.37,17.06 23.61,166.01 29.28,176.71 7.65,14.4 32.68,11.45 53.58,14.18 27.5,3.59 85.68,22.75 98.28,39.95l-436.37 0c0,-71.66 6.61,-65.05 -65.05,-65.05l0 -780.6c71.66,0 65.05,6.61 65.05,-65.05l823.97 0c0,71.66 -6.62,65.05 65.05,65.05l0 780.6c-71.67,0 -65.05,-6.61 -65.05,65.05l-97.58 0c8.36,-12.48 32.53,-25.89 32.53,-43.36 0,-16.04 -47.54,-57.03 -60.31,-69.8 -11.51,-11.5 -21.02,-21.02 -32.53,-32.52 -43.7,-43.7 -34.08,-26.29 -58.95,-19.65 -3.6,-13.48 -26.12,-31.45 -38.73,-96.8 -14.7,-76.22 31.73,-55.35 -187.38,-89.08l-120.82 -17.41c-11.6,0 -21.69,8.36 -21.69,18.98zm628.82 -626.11l86.74 0 0 86.73 -86.74 0 0 -86.73zm-997.44 0l86.74 0 0 86.73 -86.74 0 0 -86.73zm21.69 -43.37c-71.67,0 -65.05,-6.61 -65.05,65.05l-65.05 0 0 43.37 65.05 0c0,71.66 -6.62,65.05 65.05,65.05l0 780.6c-71.67,0 -65.05,-6.61 -65.05,65.05l-65.05 0 0 43.37 65.05 0c0,71.67 -6.62,65.05 65.05,65.05l0 86.73 43.37 0 0 -86.73c71.66,0 65.05,6.62 65.05,-65.05l441.79 0c16.91,0 97.06,108.42 121.97,108.42 15.34,0 45.78,-36.29 61.67,-52.18 8.54,-8.54 52.38,-56.24 60.3,-56.24l138.24 0c0,71.67 -6.62,65.05 65.05,65.05l0 86.73 43.36 0 0 -86.73c71.67,0 65.05,6.62 65.05,-65.05l65.05 0 0 -43.37 -65.05 0c0,-71.66 6.62,-65.05 -65.05,-65.05l0 -780.6c71.67,0 65.05,6.61 65.05,-65.05l65.05 0 0 -43.37 -65.05 0c0,-71.66 6.62,-65.05 -65.05,-65.05l0 -86.73 -43.36 0 0 86.73c-71.67,0 -65.05,-6.61 -65.05,65.05l-823.97 0c0,-71.66 6.61,-65.05 -65.05,-65.05l0 -86.73 -43.37 0 0 86.73z"/>
   <path class="fil0" d="M737.23 498.72l0 195.15 43.37 0 0 -97.58c19.7,22.67 35.91,97.58 65.05,97.58 13.11,0 21.68,-8.57 21.68,-21.69l0 -195.15 -43.36 0 0 97.58c-19.7,-22.66 -35.91,-97.58 -65.05,-97.58 -13.11,0 -21.69,8.57 -21.69,21.69z"/>
   <path class="fil0" d="M344.22 650.5l-18.97 0 0 -43.37 18.97 0c12.09,0 24.4,10.98 24.4,21.69 0,10.7 -12.31,21.68 -24.4,21.68zm0 -86.73l-18.97 0 0 -43.37 18.97 0c12.09,0 24.4,10.98 24.4,21.68 0,10.71 -12.31,21.69 -24.4,21.69zm-62.34 -65.05l0 173.46c0,28.89 34.37,21.69 70.47,21.69 33.18,0 59.63,-28.49 59.63,-70.48 0,-19.91 -13.55,-31.13 -13.55,-37.94 0,-10.62 13.55,-8.92 13.55,-48.79 0,-29.81 -29.81,-59.63 -59.63,-59.63 -36.1,0 -70.47,-7.2 -70.47,21.69z"/>
   <path class="fil0" d="M496.01 563.77l-18.98 0 0 -43.37 18.98 0c12.08,0 24.39,10.98 24.39,21.68 0,10.71 -12.31,21.69 -24.39,21.69zm-62.34 -65.05l0 195.15 43.36 0 0 -86.74c2.6,0 5.22,-0.25 7.73,0.41 5.94,1.56 7.02,2.95 12.92,11.47 13.91,20.04 22.72,48.68 22.72,74.86l43.37 0c0,-23.6 -0.78,-38.9 -9.23,-61.25l-17.88 -39.04c21.08,-5.63 27.11,-37.13 27.11,-56.92 0,-29.81 -29.82,-59.63 -59.63,-59.63 -36.1,0 -70.47,-7.2 -70.47,21.69z"/>
   <path class="fil0" d="M628.82 544.79c0,-12.08 10.97,-24.39 21.68,-24.39 10.71,0 21.68,12.31 21.68,24.39l0 40.66 -43.36 0 0 -40.66zm-43.37 -8.13l0 157.21 43.37 0 0 -65.05 43.36 0 0 65.05 43.37 0 0 -157.21c0,-33.18 -28.49,-59.63 -70.47,-59.63 -29.82,0 -59.63,29.82 -59.63,59.63z"/>
   <path class="fil0" d="M951.36 650.5l-18.98 0 0 -130.1c52.98,0 43.37,7.31 43.37,105.71 0,13.39 -11,24.39 -24.39,24.39zm-62.34 -151.78l0 173.46c0,28.89 34.37,21.69 70.47,21.69 29.82,0 59.63,-29.82 59.63,-59.63l0 -97.58c0,-29.81 -29.81,-59.63 -59.63,-59.63 -36.1,0 -70.47,-7.2 -70.47,21.69z"/>
  </g>
 </g>
</svg>
