<?xml version="1.0" encoding="UTF-8"?>
<!DOCTYPE svg PUBLIC "-//W3C//DTD SVG 1.1//EN" "http://www.w3.org/Graphics/SVG/1.1/DTD/svg11.dtd">
<!-- Creator: CorelDRAW 2021 (64-Bit) -->
<svg xmlns="http://www.w3.org/2000/svg" xml:space="preserve" width="1223px" height="1223px" version="1.1" style="shape-rendering:geometricPrecision; text-rendering:geometricPrecision; image-rendering:optimizeQuality; fill-rule:evenodd; clip-rule:evenodd"
viewBox="0 0 1223 1223"
 xmlns:xlink="http://www.w3.org/1999/xlink"
 xmlns:xodm="http://www.corel.com/coreldraw/odm/2003">
 <defs>
  <style type="text/css">
   <![CDATA[
    .fil0 {fill:#454545}
   ]]>
  </style>
 </defs>
 <g id="Layer_x0020_1">
  <metadata id="CorelCorpID_0Corel-Layer"/>
  <g id="_2174434551456">
   <path class="fil0" d="M355.07 1163.82l512.87 0 0 19.73 -512.87 0 0 -19.73zm133.15 -138.08l246.57 0c0.95,11.48 9.51,35.76 13.18,48.46 5.06,17.5 9.96,33.08 13.94,50.17l-300.82 0c3.87,-16.62 8.52,-31.11 13.4,-48.25l13.73 -50.38zm-448.77 -73.97l0 -44.38 1144.1 0c0,37.61 7.83,78.9 -34.52,78.9l-1075.06 0c-21.57,0 -34.52,-12.95 -34.52,-34.52zm0 -739.72c0,-21.57 12.95,-34.52 34.52,-34.52l1075.06 0c21.57,0 34.52,12.95 34.52,34.52l0 655.89 -1144.1 0 0 -655.89zm-39.45 -12.33l0 764.38c0,30.66 32.93,61.1 63.99,61.76 117.61,2.49 262.5,-0.12 382.31,-0.12 -3.88,16.62 -8.52,31.11 -13.4,48.25l-13.73 50.38c-20.54,0 -41.09,0.05 -61.64,0 -49.59,-0.13 -41.92,-1.18 -41.92,78.9 0,11.93 7.8,19.73 19.73,19.73l552.32 0c27.61,0 19.73,-36.87 19.73,-78.9 0,-22.46 -19.71,-19.79 -41.92,-19.73 -20.54,0.05 -41.1,0 -61.64,0l-27.13 -98.63 379.84 0.12c32.98,-0.19 66.46,-30.07 66.46,-61.76l0 -764.38c0,-28.9 -32.74,-61.64 -61.64,-61.64l-1099.72 0c-28.9,0 -61.64,32.74 -61.64,61.64z"/>
   <path class="fil0" d="M437.29 651.38c26.69,-0.43 47.16,-6.32 65.72,-15.22l36.99 73.97 -130.69 0 27.98 -58.75zm20.93 -44.4l7.1 -10.98c2.98,-5.83 4.15,-7.69 5.63,-14.09l4.93 0c2.2,9.41 5.21,10.32 7.4,19.73 -6.48,0.54 -6.86,0.84 -12.17,2.61l-12.89 2.73zm-142.61 -113.83c0,-101.52 125.77,-159.11 201.62,-83.27 57.09,57.1 31.98,143.61 0.57,164.63 -14.51,-27.43 -23.88,-61.64 -44.38,-61.64 -16.31,0 -19.74,13.53 -28.57,30.61l-19.92 39.25c-4.78,9.58 -8.53,17.57 -13.15,26.3 -16.06,-7.7 -66.1,-15.03 -86.68,-71.12 -3.83,-10.4 -9.49,-30.24 -9.49,-44.76zm-39.45 -9.87c0,45.42 7.64,79.27 36.39,111.56 19.5,21.92 46.76,43.55 79.5,51.18 -1.75,21.12 -67.67,103.56 -17.26,103.56l197.26 0c42.56,0 1.78,-63.02 -5.75,-78.08 -9.94,-19.87 -18.78,-38.65 -28.77,-57.53 11.82,-17.65 54.25,-46.41 54.25,-115.89 0,-69.31 -34.09,-119.48 -89.56,-147.16 -68.98,-34.43 -152.39,-11.03 -197.23,50.23 -15.89,21.72 -28.83,52.72 -28.83,82.13z"/>
   <path class="fil0" d="M865.47 78.91l-411.77 0 0 -39.46 411.77 0c11,0 22.19,9.99 22.19,19.73 0,9.74 -11.19,19.73 -22.19,19.73zm-500.54 -22.2c20.36,-4.74 22.8,-17.26 49.31,-17.26l0 39.46c-26.51,0 -28.95,-12.52 -49.31,-17.27l0 -4.93zm-69.04 2.47c0,19.42 33.74,29.31 57.36,41.26l19.38 10.22c8.07,4.22 12.2,7.7 24.35,7.7l475.89 0c30.18,0 54.24,-25.92 54.24,-64.11 0,-27.13 -27.12,-54.25 -54.24,-54.25l-475.89 0c-13.5,0 -17.6,4.46 -29.31,10.14l-52.5 26.4c-10.02,4.84 -19.28,8.43 -19.28,22.64z"/>
   <path class="fil0" d="M826.02 673.15c-9.3,-0.78 -14.23,-3.76 -23.24,-6.36l-116.45 -33.95c-16.69,-4.81 -31.79,-10.23 -47.71,-13.94 1.18,-14.17 47.15,-156.91 54.25,-187.4 12.47,1.04 33.15,9.21 46.31,12.87l141.08 41.38 -54.24 187.4zm-234.24 -39.46c0,18.53 32.27,23.57 53.95,29.88 20.85,6.07 44.21,12.57 64.71,19.13l130.37 37.29c18.53,0 23.58,-32.27 29.88,-53.95l38.1 -129.58c25.85,-91.41 45.78,-72.03 -100.32,-114.53l-130.4 -37.28c-18.52,0 -23.57,32.27 -29.88,53.96l-56.41 195.08z"/>
   <path class="fil0" d="M1065.19 710.13l39.46 0 0 39.45 -39.46 0 0 -39.45zm-39.45 -19.73l0 78.91c0,11.92 7.8,19.72 19.73,19.72l78.9 0c11.93,0 19.73,-7.8 19.73,-19.72l0 -78.91c0,-11.92 -7.8,-19.72 -19.73,-19.72l-78.9 0c-11.93,0 -19.73,7.8 -19.73,19.72z"/>
   <path class="fil0" d="M118.36 710.13l39.45 0 0 39.45 -39.45 0 0 -39.45zm-39.45 -19.73l0 78.91c0,11.92 7.79,19.72 19.72,19.72l78.9 0c11.93,0 19.73,-7.8 19.73,-19.72l0 -78.91c0,-11.92 -7.8,-19.72 -19.73,-19.72l-78.9 0c-11.93,0 -19.72,7.8 -19.72,19.72z"/>
   <path class="fil0" d="M118.36 572.05l39.45 0 0 39.45 -39.45 0 0 -39.45zm-39.45 -19.73l0 78.91c0,11.92 7.79,19.72 19.72,19.72l78.9 0c11.93,0 19.73,-7.8 19.73,-19.72l0 -78.91c0,-11.92 -7.8,-19.72 -19.73,-19.72l-78.9 0c-11.93,0 -19.72,7.8 -19.72,19.72z"/>
   <path class="fil0" d="M1065.19 572.05l39.46 0 0 39.45 -39.46 0 0 -39.45zm-39.45 -19.73l0 78.91c0,11.92 7.8,19.72 19.73,19.72l78.9 0c11.93,0 19.73,-7.8 19.73,-19.72l0 -78.91c0,-11.92 -7.8,-19.72 -19.73,-19.72l-78.9 0c-11.93,0 -19.73,7.8 -19.73,19.72z"/>
   <path class="fil0" d="M118.36 295.89l39.45 0 0 39.45 -39.45 0 0 -39.45zm-39.45 -19.73l0 78.91c0,11.92 7.79,19.72 19.72,19.72l78.9 0c11.93,0 19.73,-7.8 19.73,-19.72l0 -78.91c0,-11.93 -7.8,-19.72 -19.73,-19.72l-78.9 0c-11.93,0 -19.72,7.79 -19.72,19.72z"/>
   <path class="fil0" d="M1065.19 295.89l39.46 0 0 39.45 -39.46 0 0 -39.45zm-39.45 -19.73l0 78.91c0,11.92 7.8,19.72 19.73,19.72l78.9 0c11.93,0 19.73,-7.8 19.73,-19.72l0 -78.91c0,-11.93 -7.8,-19.72 -19.73,-19.72l-78.9 0c-11.93,0 -19.73,7.79 -19.73,19.72z"/>
   <path class="fil0" d="M118.36 433.97l39.45 0 0 39.45 -39.45 0 0 -39.45zm-39.45 -19.73l0 78.91c0,11.92 7.79,19.72 19.72,19.72l78.9 0c11.93,0 19.73,-7.8 19.73,-19.72l0 -78.91c0,-11.93 -7.8,-19.72 -19.73,-19.72l-78.9 0c-11.93,0 -19.72,7.79 -19.72,19.72z"/>
   <path class="fil0" d="M1065.19 433.97l39.46 0 0 39.45 -39.46 0 0 -39.45zm-39.45 -19.73l0 78.91c0,11.92 7.8,19.72 19.73,19.72l78.9 0c11.93,0 19.73,-7.8 19.73,-19.72l0 -78.91c0,-11.93 -7.8,-19.72 -19.73,-19.72l-78.9 0c-11.93,0 -19.73,7.79 -19.73,19.72z"/>
  </g>
 </g>
</svg>
