<?xml version="1.0" encoding="UTF-8"?>
<!DOCTYPE svg PUBLIC "-//W3C//DTD SVG 1.1//EN" "http://www.w3.org/Graphics/SVG/1.1/DTD/svg11.dtd">
<!-- Creator: CorelDRAW 2021 (64-Bit) -->
<svg xmlns="http://www.w3.org/2000/svg" xml:space="preserve" width="2080px" height="2080px" version="1.1" style="shape-rendering:geometricPrecision; text-rendering:geometricPrecision; image-rendering:optimizeQuality; fill-rule:evenodd; clip-rule:evenodd"
viewBox="0 0 2080 2080"
 xmlns:xlink="http://www.w3.org/1999/xlink"
 xmlns:xodm="http://www.corel.com/coreldraw/odm/2003">
 <defs>
  <style type="text/css">
   <![CDATA[
    .fil1 {fill:none}
    .fil0 {fill:#FCCD18}
    .fil2 {fill:#2D2B2E;fill-rule:nonzero}
   ]]>
  </style>
   <clipPath id="id0">
    <path d="M1040 5.98c574.38,0 1040,462.94 1040,1034.02 0,571.08 -465.62,1034.02 -1040,1034.02 -574.38,0 -1040,-462.94 -1040,-1034.02 0,-571.08 465.62,-1034.02 1040,-1034.02z"/>
   </clipPath>
 </defs>
 <g id="Layer_x0020_1">
  <metadata id="CorelCorpID_0Corel-Layer"/>
  <g>
  </g>
  <g style="clip-path:url(#id0)">
   <g>
    <rect class="fil0" width="2080" height="2080"/>
   </g>
  </g>
  <path class="fil1" d="M1040 5.98c574.38,0 1040,462.94 1040,1034.02 0,571.08 -465.62,1034.02 -1040,1034.02 -574.38,0 -1040,-462.94 -1040,-1034.02 0,-571.08 465.62,-1034.02 1040,-1034.02z"/>
  <g id="bara_x0020_logo.eps">
   <path class="fil2" d="M303.12 1307.26c0,-29.64 20.62,-49.32 51.62,-49.32 15.23,0 22.1,6.33 27.22,6.33 2.97,0 4.85,-0.81 7.28,-5.8l-0.4 28.98 -1.35 0c-3.1,-10.78 -8.22,-26.82 -32.75,-26.82 -18.74,0 -31.41,19.27 -31.41,46.5 0,26.95 12.27,45.01 30.6,45.01 17.92,0 32.88,-10.64 37.06,-26.68l1.35 0 -4.85 22.37c-6.74,4.85 -19.82,7.95 -33.56,7.95 -30.33,0 -50.81,-19.68 -50.81,-48.52z"/>
   <path class="fil2" d="M450.15 1262.39l-12.13 0 0 47.7 13.07 0c11.05,-0.67 17.79,-11.45 17.79,-26.55 0,-12.53 -7.14,-21.15 -18.73,-21.15zm48.65 91.5l-15.36 0c-12.4,0 -16.58,-3.37 -24,-19.94 -4.44,-9.71 -5.79,-21.16 -18.46,-21.16l-2.96 0 0 29.25c0,6.46 4.85,10.64 12.53,10.64l0 1.35 -45.55 0 0 -1.35c7.55,0 12.67,-4.31 12.67,-10.64l0.13 -70.36c0,-6.47 -4.85,-10.64 -12.67,-10.64l0 -1.35 51.22 0c19.67,0.13 32.75,9.57 32.75,23.85 0,14.29 -9.84,25.61 -24.67,28.58 6.2,0 10.52,6.06 13.61,14.15 4.99,13.07 12.4,26.28 20.76,26.28l0 1.34z"/>
   <path class="fil2" d="M577.23 1351.33c9.17,0 18.47,-13.61 22.1,-25.47l1.35 0 -3.23 28.17 -84.37 0 0 -1.35c7.68,0 12.67,-2.96 12.8,-10.64l0 -70.36c0,-7.54 -5.12,-10.64 -12.67,-10.64l0 -1.35 83.03 0 1.21 25.34 -1.35 0c-2.56,-7.96 -8.63,-22.64 -20.76,-22.64l-29.24 0 0 44.47 23.99 0c7.01,-0.4 11.72,-5.39 11.72,-12.67l1.35 0 0 28.03 -1.35 0c0,-7.27 -4.71,-12.26 -11.72,-12.67l-23.99 0 0 41.78 31.13 0z"/>
   <path class="fil2" d="M647.98 1322.76l27.76 0c-6.33,-15.63 -14.42,-35.04 -14.42,-35.04l-13.34 35.04zm57.55 19.28c3.77,9.29 5.66,10.64 12.8,10.64l0 1.35 -47.3 0 0 -1.35c6.46,0 13.21,-1.75 13.21,-7.41 0,-0.95 -0.14,-2.02 -0.55,-3.23 -0.26,-0.54 -3.09,-7.69 -6.74,-16.58l-30.05 0 -5.93 15.63c-1.21,3.23 -1.88,5.53 -1.88,7.28 0,3.24 2.28,4.31 7.54,4.31l0 1.35 -22.1 0 0 -1.35c7.27,0 9.7,-1.62 13.34,-11.18l31.27 -81.81 2.69 0 33.7 82.35z"/>
   <path class="fil2" d="M740.7 1262.39c-12.13,0 -18.87,14.55 -21.43,22.64l-1.35 0 1.21 -25.34 98.52 0 1.48 25.34 -1.34 0c-2.43,-8.09 -9.7,-22.64 -21.7,-22.64l-18.33 0 0 79.65c0.4,7 5.52,10.64 12.67,10.64l0 1.35 -45.42 0 0 -1.35c7.68,0 12.8,-3.5 12.8,-10.64l-0.94 -79.65 -16.17 0z"/>
   <path class="fil2" d="M881.39 1259.69l0 1.35c-7.14,0 -12.13,2.69 -12.67,9.3l0 71.7c0.41,7 5.53,10.64 12.67,10.64l0 1.35 -45.55 0 0 -1.35c7.68,0 12.67,-3.5 12.67,-10.64l0.13 -70.36c0,-7.54 -5.12,-10.64 -12.8,-10.64l0 -1.35 45.55 0z"/>
   <path class="fil2" d="M911.31 1271.68c-3.91,-9.29 -5.67,-10.64 -12.94,-10.64l0 -1.35 47.44 0 0 1.35c-6.48,0 -13.35,1.75 -13.35,7.41 0,0.94 0.27,2.02 0.67,3.23 0.55,1.62 22.24,54.32 22.24,54.45l20.49 -53.5c1.21,-3.24 1.89,-5.53 1.89,-7.28 0,-3.23 -2.43,-4.31 -7.55,-4.31l0 -1.35 21.97 0 0 1.35c-7.28,0 -9.57,1.61 -13.21,11.18l-31.4 81.81 -2.7 0 -33.55 -82.35z"/>
   <path class="fil2" d="M1072.89 1351.33c9.16,0 18.46,-13.61 22.1,-25.47l1.35 0 -3.24 28.17 -84.36 0 0 -1.35c7.68,0 12.66,-2.96 12.8,-10.64l0 -70.36c0,-7.54 -5.12,-10.64 -12.67,-10.64l0 -1.35 83.02 0 1.21 25.34 -1.35 0c-2.56,-7.96 -8.62,-22.64 -20.75,-22.64l-29.24 0 0 44.47 23.98 0c7.01,-0.4 11.73,-5.39 11.73,-12.67l1.34 0 0 28.03 -1.34 0c0,-7.27 -4.72,-12.26 -11.73,-12.67l-23.98 0 0 41.78 31.13 0z"/>
   <path class="fil2" d="M1235.95 1262.92c3.23,0 4.71,-3.1 5.93,-5.79l0 31.27 -2.29 0c-4.59,-15.64 -16.04,-28.44 -31.41,-28.44 -10.1,0 -16.84,7.28 -16.84,16.57 0,24.13 53.37,24.53 53.37,54.99 0,15.1 -14.56,25.07 -36.53,25.07 -10.64,0 -20.08,-3.64 -26.54,-3.64 -2.43,0 -6.47,-0.13 -7.42,1.89l0 -28.98 1.35 0c4.58,14.83 17.52,28.03 32.61,28.03 10.11,0 18.06,-7.68 18.06,-16.17 0,-19.14 -53.37,-23.04 -53.37,-53.5 0,-16.31 15.1,-26.96 35.31,-26.96 16.58,0 21.84,5.66 27.77,5.66z"/>
   <path class="fil2" d="M1286.62 1262.39c-12.13,0 -18.87,14.55 -21.43,22.64l-1.35 0 1.21 -25.34 98.52 0 1.49 25.34 -1.35 0c-2.43,-8.09 -9.7,-22.64 -21.7,-22.64l-18.33 0 0 79.65c0.4,7 5.53,10.64 12.67,10.64l0 1.35 -45.42 0 0 -1.35c7.69,0 12.81,-3.5 12.81,-10.64l-0.95 -79.65 -16.17 0z"/>
   <path class="fil2" d="M1418.41 1325.32c0,17.66 9.71,29.38 23.05,29.38 20.08,0 32.75,-11.99 32.75,-29.38l0 -53.64c0,-7.14 -4.99,-10.64 -12.67,-10.64l0 -1.35 28.03 0 0 1.35c-7.14,0 -12.26,3.63 -12.67,10.64l0 53.64c0,19.14 -14.14,32.08 -35.44,32.08 -25.87,0 -43.13,-12.8 -43.26,-32.08l0 -53.64c0,-7.54 -5.12,-10.64 -12.67,-10.64l0 -1.35 45.55 0 0 1.35c-7.01,0 -11.99,2.69 -12.67,9.3l0 54.98z"/>
   <path class="fil2" d="M1539.3 1351.33l10.11 0c16.04,0 26.68,-14.55 26.68,-48.11 0,-28.43 -7.55,-40.83 -26.68,-40.83l-10.11 0 0 88.94zm-33.02 2.7l0 -1.35c7.68,0 12.67,-3.1 12.8,-10.64l0 -70.36c0,-7.54 -5.12,-10.64 -12.66,-10.64l0 -1.35 47.17 0c25.74,0 42.72,17.25 42.72,43.53 0,30.59 -16.98,50.94 -42.72,50.81l-47.31 0z"/>
   <path class="fil2" d="M1652.91 1259.69l0 1.35c-7.15,0 -12.13,2.69 -12.67,9.3l0 71.7c0.41,7 5.52,10.64 12.67,10.64l0 1.35 -45.55 0 0 -1.35c7.68,0 12.66,-3.5 12.66,-10.64l0.14 -70.36c0,-7.54 -5.12,-10.64 -12.8,-10.64l0 -1.35 45.55 0z"/>
   <path class="fil2" d="M1686.33 1307.13c0,28.03 10.51,46.76 26.01,46.76 15.76,0 26.55,-18.73 26.55,-46.76 0,-27.76 -10.38,-46.5 -25.88,-46.5 -16.04,0 -26.68,18.6 -26.68,46.5zm-20.08 0.13c0,-29.51 20.21,-49.19 46.76,-49.19 26.15,0 46.23,19.55 46.23,49.19 0,29.65 -20.62,49.33 -46.9,49.33 -26.28,0 -46.09,-19.41 -46.09,-49.33z"/>
   <path class="fil2" d="M500.42 1034.69c-3.2,-57.56 -46.68,-93.37 -94.65,-95.93l-72.9 0 0 219.35 72.9 0c58.84,0 98.49,-47.32 94.65,-123.42zm-111.91 -298.65l-55.64 0 0 189.29 60.11 0c33.9,-2.56 87.62,-29.42 87.62,-97.2 0,-54.36 -22.39,-92.09 -92.09,-92.09zm33.89 434.86l-246.21 0 0 -6.39c36.45,0 60.12,-14.07 60.12,-50.52l0.64 -333.83c0,-35.81 -24.31,-50.52 -60.12,-50.52l0 -6.39 241.09 0c93.37,0.64 155.41,42.21 155.41,104.88 0,53.08 -35.81,94.64 -88.89,103.6 65.22,2.56 111.91,42.85 111.91,100.4 0,83.14 -69.71,138.77 -173.95,138.77z"/>
   <path class="fil2" d="M1227.85 736.04l-57.56 0 0 226.38 62.04 0c52.44,-3.19 84.41,-54.36 84.41,-125.98 0,-59.47 -33.89,-100.4 -88.89,-100.4zm230.86 434.22l-72.9 0c-58.84,0 -78.66,-15.98 -113.84,-94.64 -21.1,-46.05 -27.49,-100.41 -87.61,-100.41l-14.07 0 0 138.78c0,30.69 23.02,50.52 59.48,50.52l0 6.39 -216.16 0 0 -6.39c35.82,0 60.12,-20.47 60.12,-50.52l0.64 -333.83c0,-30.69 -23.03,-50.52 -60.12,-50.52l0 -6.39 243.02 0c93.36,0.64 155.4,45.4 155.4,113.19 0,67.79 -46.69,121.51 -117.04,135.58 29.42,0 49.89,28.77 64.6,67.14 23.66,62.04 58.83,124.71 98.48,124.71l0 6.39z"/>
   <path class="fil2" d="M1569.98 1021.89l131.74 0c-30.05,-74.18 -68.42,-166.27 -68.42,-166.27l-63.32 166.27zm273.08 91.45c17.9,44.12 26.85,50.52 60.75,50.52l0 6.4 -224.47 0 0 -6.4c30.69,0 62.67,-8.31 62.67,-35.17 0,-4.48 -0.64,-9.6 -2.56,-15.35 -1.27,-2.56 -14.7,-36.45 -31.97,-78.66l-142.61 0 -28.14 74.18c-5.76,15.35 -8.95,26.22 -8.95,34.53 0,15.35 10.87,20.47 35.81,20.47l0 6.4 -104.88 0 0 -6.4c34.53,0 46.05,-7.67 63.31,-53.08l148.37 -388.18 12.79 0 159.88 390.74z"/>
   <path class="fil2" d="M685.81 1022.54l63.31 -166.27c0,0 38.37,92.08 68.43,166.27l-131.74 0zm273.07 91.45l-159.88 -390.74 -12.79 0 -137.7 360.29 0 0 -0.02 0.04 -10.64 27.85c-1.19,3.12 -2.35,6.03 -3.49,8.81l-19.53 50.66 64.58 0 0 -6.39c-24.94,0 -35.81,-5.12 -35.81,-20.47 0,-8.31 3.2,-19.18 8.95,-34.53l28.15 -74.18 142.6 0c17.27,42.21 30.7,76.1 31.98,78.66 1.92,5.75 2.56,10.87 2.56,15.35 0,26.86 -31.98,35.17 -62.67,35.17l0 6.39 224.47 0 0 -6.39c-33.9,0 -42.85,-6.4 -60.76,-50.52z"/>
  </g>
 </g>
</svg>
