<?xml version="1.0" encoding="UTF-8"?>
<!DOCTYPE svg PUBLIC "-//W3C//DTD SVG 1.1//EN" "http://www.w3.org/Graphics/SVG/1.1/DTD/svg11.dtd">
<!-- Creator: CorelDRAW 2021 (64-Bit) -->
<svg xmlns="http://www.w3.org/2000/svg" xml:space="preserve" width="1234px" height="1234px" version="1.1" style="shape-rendering:geometricPrecision; text-rendering:geometricPrecision; image-rendering:optimizeQuality; fill-rule:evenodd; clip-rule:evenodd"
viewBox="0 0 1234 1234"
 xmlns:xlink="http://www.w3.org/1999/xlink"
 xmlns:xodm="http://www.corel.com/coreldraw/odm/2003">
 <defs>
  <style type="text/css">
   <![CDATA[
    .fil0 {fill:#454545}
   ]]>
  </style>
 </defs>
 <g id="Layer_x0020_1">
  <metadata id="CorelCorpID_0Corel-Layer"/>
  <g id="_2174529408272">
   <path class="fil0" d="M583.26 1127.95l67.48 0 0 69.9 -67.48 0 0 -69.9zm-9.64 -1127.95l87.41 0c22.29,3.41 28.27,15.53 28.27,53.02l404.91 0c1.14,-13.63 13.77,-30.27 22.97,-37.29 42.94,-32.79 116.82,-11.5 116.82,51.76 0,37.96 -26.48,74.71 -67.49,74.71 -33.92,0 -69.64,-21.08 -72.3,-53.02l-272.35 0c9.92,8.61 25.98,11.73 37.79,17.64l69.26 39.2c11.59,7.54 20.05,14.4 30.68,22.34 47.37,35.39 86.35,77.74 120.18,125.66 26.49,37.54 49.71,79.06 65.36,122.63 26.96,75.07 35.85,131.64 35.85,219.63 0,93.24 -28.56,179.49 -70.64,254.74 -40.92,73.17 -76.05,109.28 -136.01,162.84 -5.63,5.03 -8.82,7.37 -14.74,11.78l-65.3 43.16 -71.05 34.99c-0.22,-0.44 -0.94,0.66 -1.38,1.03 25.83,0 54.21,-1.14 79.69,-0.14 29.72,1.17 24.42,36.3 2.26,36.3l-214.51 0c0,21.62 -0.49,53.02 -28.92,53.02l-87.41 0c-22.29,-3.41 -28.27,-15.53 -28.27,-53.02l-404.91 0c-0.7,8.44 -5.1,16.5 -9.23,22.09l-9.05 10.24c-0.35,0.35 -0.86,0.85 -1.22,1.19 -0.07,0.08 -3.15,2.88 -3.79,3.44 -40.78,36.09 -116.5,7.24 -116.5,-51.43 0,-37.96 26.48,-74.71 67.49,-74.71 33.92,0 69.64,21.08 72.3,53.02l272.35 0 -72.43 -36.02c-45.08,-25.96 -86.74,-57.01 -123.4,-93.52 -10.19,-10.15 -16.48,-18.51 -26.56,-28.88 -4.89,-5.03 -7.54,-9.17 -11.96,-14.55 -4.38,-5.33 -7.66,-9.9 -11.49,-15.02 -31.38,-41.94 -59.46,-89.78 -77.46,-139.45 -39.27,-108.44 -47.38,-226.06 -18.95,-340.18 21.17,-84.95 61.56,-155.65 114.29,-223.13 37.2,-47.61 52.04,-11.84 48.08,-0.29 -2.16,6.32 -10.49,14.62 -14.74,19.18 -5.24,5.6 -10.55,12.89 -15.07,18.67 -82.31,105.22 -128.02,247.58 -109.2,383.95 6.96,50.38 17.46,100.13 37.72,145.46 18.99,42.48 38.21,80.89 67.21,115.97 5.01,6.07 9.41,11.65 13.89,17.43 22.15,28.6 48.55,52.46 76.82,75.03 59.31,47.36 130.19,84.48 205.77,100.32 10.4,2.18 44.01,7.32 50.04,10.21 0,-21.76 1.48,-48.2 28.92,-48.2 92.2,0 115.68,-13.2 115.68,48.2 6.44,-3.09 40.79,-8.17 52.04,-10.63 75.01,-16.4 146.27,-53.1 205.1,-100.98l32.67 -27.59c16.12,-14.19 30.52,-30.59 43.85,-47.74 22.87,-29.42 44.94,-58.96 61.63,-92.62 21.75,-43.85 36.45,-85.04 48.21,-134.96 5.94,-25.23 7.59,-54.95 9.74,-81.84 7.59,-94.75 -17.39,-190.26 -59.54,-273.31 -7.1,-13.98 -15.02,-25.46 -22.42,-37.84 -7.24,-12.13 -15.73,-24.57 -24.76,-35.5 -31.08,-37.6 -37.49,-44.75 -74.77,-79.47 -5.06,-4.71 -10.55,-8.67 -15.95,-12.97 -59.32,-47.26 -130.17,-84.54 -205.77,-100.32 -12.87,-2.69 -39.95,-5.4 -50.03,-10.23 0,14.67 0.49,24.47 -4.78,33.77 -3.81,6.73 -13.77,14.43 -24.14,14.43l-86.76 0c-10.37,0 -20.33,-7.7 -24.14,-14.43 -5.27,-9.3 -4.78,-19.1 -4.78,-33.77 -21.2,10.16 -90.62,4.47 -211.08,78.14 -13.31,8.13 -45.59,37.54 -58.86,37.54 -12.02,0 -19.23,-8.13 -18.65,-19 0.86,-16.31 26.31,-28.22 37.9,-36.46 4.9,-3.47 5.36,-4.34 11.29,-7.99l106.84 -57.05 -272.35 0c-1.06,12.76 -8,21.38 -15.92,29.87 -44.43,47.62 -123.87,18.42 -123.87,-51.56 0,-35.43 32.06,-67.49 67.49,-67.49 33.92,0 69.64,21.09 72.3,53.02l404.91 0c0,-21.62 0.49,-53.02 28.92,-53.02zm-467.57 1161.7c0,17.65 -16.99,36.15 -33.75,36.15 -54.6,0 -39.06,-85.57 11.02,-66.57 13.82,5.25 22.73,20.92 22.73,30.42zm477.21 -1125.55l67.48 0 0 69.9 -67.48 0 0 -69.9zm614.59 33.74c0,17.66 -16.99,36.16 -33.74,36.16 -54.61,0 -39.07,-85.57 11.01,-66.56 13.82,5.24 22.73,20.91 22.73,30.4zm-1091.8 0c0,8.95 -5.41,19.21 -9.73,24.02 -31.6,35.13 -79.35,-13.53 -50.45,-45.63 8.31,-9.22 22.43,-14.49 37.45,-8.79 13.82,5.24 22.73,20.91 22.73,30.4z"/>
   <path class="fil0" d="M212.09 619.41l3.38 -47.24c2.29,-15.77 3.96,-28.42 7.27,-43.34 16.75,-75.57 54.48,-142.05 108.06,-195.63 23.22,-23.22 27.49,-26.88 54.45,-46.77 130.59,-96.34 326.65,-97.05 460.71,-2.03 41.9,29.71 71.64,60.26 101.61,100.85 27.87,37.75 51.74,92.9 62.79,139.66 32.03,135.4 -10.01,278.74 -107.16,375.89 -23.27,23.27 -27.45,26.84 -54.45,46.77 -37.75,27.87 -92.9,51.74 -139.66,62.79 -135.56,32.07 -278.75,-10.02 -375.89,-107.16 -68.29,-68.28 -102.29,-139.8 -117.04,-237.24 -0.84,-5.51 -1.79,-13.46 -1.68,-22.43 0.27,-22.55 -0.89,-14.45 -2.39,-24.12zm-36.15 -14.46c0,130.52 42.27,236.29 129.55,323.56 19.17,19.17 34.58,32.75 57.05,49 174.02,125.9 416.35,100.63 565.97,-49 19.17,-19.17 32.75,-34.58 49,-57.05 16.55,-22.88 26.76,-43.47 39.59,-68.87 80.63,-159.69 41.14,-367.38 -88.59,-497.1 -194.25,-194.25 -509.87,-167.09 -672.02,57.05 -16.55,22.88 -26.76,43.47 -39.59,68.87 -20.92,41.44 -40.96,111.23 -40.96,173.54z"/>
   <path class="fil0" d="M804.99 617c0,-5.75 3.37,-18.56 5.5,-23.42 5.48,-12.52 17.39,-24.71 29.69,-30.56 24.68,-11.75 49.32,-5.09 67.41,11.64 46.02,42.56 -4.61,123.87 -65.77,97.1 -20.56,-9 -36.83,-32.11 -36.83,-54.76zm-36.15 -7.23l0 14.46c0,44.46 44.71,89.18 89.17,89.18 32.82,0 52.04,-4.25 75.72,-27.93 61.37,-61.36 14.27,-164.89 -61.25,-164.89l-14.47 0c-44.46,0 -89.17,44.72 -89.17,89.18z"/>
   <path class="fil0" d="M392.85 619.41c0,-84.06 118.1,-76.81 118.1,-9.64 0,25.39 -4.52,49.1 -32.91,61.08 -47.76,20.14 -85.19,-17.29 -85.19,-51.44zm53.03 94l14.46 0c46.33,0 89.17,-42.84 89.17,-101.23 0,-45.44 -43.77,-91.59 -89.17,-91.59 -31.35,0 -59.85,7.35 -78.88,29.58 -62,72.39 -2.65,163.24 64.42,163.24z"/>
   <path class="fil0" d="M566.39 617c0,50.62 44,96.41 91.58,96.41 34.8,0 62.19,-8.49 80.37,-42.55 9.91,-18.55 26.04,-73.14 -8.06,-73.14 -47.39,0 -62.67,-5.74 -62.67,24.1 0,18.37 34.09,14.46 43.39,14.46 -15.92,68.32 -106.05,43.72 -106.05,-19.28 0,-18 7.2,-31.86 16.21,-41.63 35.26,-38.28 79.91,-4.16 87.42,-4.16 22.77,0 40.49,-50.62 -55.43,-50.62 -39.6,0 -86.76,44.66 -86.76,96.41z"/>
   <path class="fil0" d="M1197.85 1161.7c0,17.65 -16.99,36.15 -33.74,36.15 -54.61,0 -39.07,-85.57 11.01,-66.57 7.19,2.73 11.22,6.06 15.15,11.48 2.47,3.42 7.58,14.07 7.58,18.94zm-103.64 -16.88l-106.23 -0.18c-26.17,1.32 -24.69,34.17 -2.31,36.42l108.54 -0.08c2.26,27.1 32.31,53.02 72.3,53.02 37.22,0 67.49,-30.72 67.49,-74.72 0,-53 -65.98,-90.57 -116.82,-51.74 -9.2,7.01 -21.83,23.66 -22.97,37.28z"/>
   <path class="fil0" d="M272.35 537.46l0 159.08c0,24.03 29.1,16.87 72.3,16.87 27.72,0 21.16,-36.16 4.82,-36.16l-40.97 0 0 -142.2c0,-16.68 -36.15,-23.29 -36.15,2.41z"/>
  </g>
 </g>
</svg>
