<?xml version="1.0" encoding="UTF-8"?>
<!DOCTYPE svg PUBLIC "-//W3C//DTD SVG 1.1//EN" "http://www.w3.org/Graphics/SVG/1.1/DTD/svg11.dtd">
<!-- Creator: CorelDRAW 2021 (64-Bit) -->
<svg xmlns="http://www.w3.org/2000/svg" xml:space="preserve" width="1149px" height="1205px" version="1.1" style="shape-rendering:geometricPrecision; text-rendering:geometricPrecision; image-rendering:optimizeQuality; fill-rule:evenodd; clip-rule:evenodd"
viewBox="0 0 1149 1205.51"
 xmlns:xlink="http://www.w3.org/1999/xlink"
 xmlns:xodm="http://www.corel.com/coreldraw/odm/2003">
 <defs>
  <style type="text/css">
   <![CDATA[
    .fil0 {fill:#454545}
   ]]>
  </style>
 </defs>
 <g id="Layer_x0020_1">
  <metadata id="CorelCorpID_0Corel-Layer"/>
  <g id="_2173977861840">
   <path class="fil0" d="M49.44 1120.75l0 -562.73c0,-22.34 18.07,-37.67 40.03,-37.67l148.34 0c18.94,0 40.02,14.81 40.02,32.96l0 572.15c0,13.55 -17.05,30.6 -30.61,30.6l-162.46 0c-20.1,0 -35.32,-15.21 -35.32,-35.31zm616.89 -58.87l-25.9 0c-104.49,0 -204.85,-100.35 -204.85,-204.84 0,-72.71 14.83,-117.18 65.34,-167.76 84.82,-84.93 223.29,-82.12 304.92,-0.01 85.88,86.38 86.66,223.44 4.7,304.93 -37.24,37.02 -85.33,67.68 -144.21,67.68zm-280.19 -226.03c0,80.4 23.77,142.71 78.29,197.19 105.63,105.57 273.29,104.76 379.11,-1.14 18.32,-18.34 42.68,-53.18 52.54,-76.96 30.69,-74.05 33.91,-144.54 0.96,-217.95 -4.22,-9.41 -11.7,-20.32 -14.1,-30.64l171.88 0 0 390.85c0,28.94 -19.59,49.92 -41.93,56.96 -15.67,4.94 -265.82,1.9 -294.76,1.9 -132.64,0 -265.28,0 -397.92,0 2.66,-11.42 7.07,-18.61 7.07,-32.96l0 -416.75 96.53 0c-18.17,34.35 -37.67,77.42 -37.67,129.5zm56.51 -160.1l-115.37 0 0 -124.8 77.7 0c17.8,0 28.54,-4.8 33.34,-18.45 13.34,-37.83 1.44,-96.92 60.84,-96.92l301.37 0c17.93,0 27.9,5.3 37.2,14.6 20.37,20.36 13.63,52.59 24.96,83.36 15.98,43.41 136.25,-11.35 177.4,36.86 21.17,24.81 14.73,63 14.73,105.35l-190.71 0c-7.35,0 -32.23,-29.7 -39.66,-35.69 -84.26,-68.02 -197.78,-83.51 -294.73,-32.64 -21.4,11.24 -60.1,38.57 -75.23,58.97 -2.93,3.96 -5.12,9.36 -11.84,9.36zm-306.09 -237.81c43.06,0 81.48,-9 82.41,32.96l-110.66 0c0.43,-19.25 14.22,-32.96 28.25,-32.96zm447.36 -94.18l138.91 0 0 42.38 -138.91 0 0 -42.38zm-122.44 -84.76c0,-24.23 -3.95,-109.68 5.54,-123.97 3.39,-5.12 12.67,-10.24 20.36,-10.24l331.99 0c11.84,0 23.55,11.71 23.55,23.54l0 117.73c0,18.1 -12.08,28.25 -25.91,28.25l-324.92 0c-21.47,0 -30.61,-13.64 -30.61,-35.31zm-47.09 -117.73l0 131.85c0,20.28 11.9,41.43 25.46,52.25 27.53,21.93 59.05,18.39 94.62,18.39l0 42.38c-23.42,0 -54.82,-1.25 -74.62,7.79 -25.69,11.73 -45.92,31.01 -54.63,58.38 -3.47,10.88 -9.38,36.38 -9.66,49.2l-87.12 0c-8.1,0 -19.3,-21.82 -40.02,-23.54 0,-51.46 -33.29,-89.47 -77.7,-89.47 -46.28,0 -79.55,-6.58 -110.14,26.42 -14.06,15.16 -21.72,34.43 -21.72,63.05 -25.66,2.13 -58.86,42.22 -58.86,77.7l0 567.43c0,42.24 39.99,82.41 82.41,82.41l915.9 0c30.4,0 56.84,-15.53 72.44,-31.16 15.22,-15.24 33.51,-43.25 33.51,-72.44l0 -496.8c0,-34.4 -26.08,-70.47 -47.47,-84.38 -54.19,-35.23 -128.33,-12.49 -147.5,-19.67 -7.96,-2.97 -3.68,0.3 -8.49,-24.47 -14.47,-74.43 -52.91,-90.45 -128.52,-90.45l0 -42.38 37.67 0c45.61,0 82.41,-30.39 82.41,-75.34l0 -120.09c0,-38.42 -34.25,-72.99 -72.99,-72.99l-331.99 0c-38.52,0 -72.99,35.03 -72.99,65.93z"/>
   <path class="fil0" d="M522.7 845.27c0,-37.71 16.45,-69.66 35.88,-88.9 94.19,-93.27 223.12,-11.48 223.12,77.13 0,46.1 -6.33,70.74 -39.43,104.2 -80.53,81.4 -219.57,19.19 -219.57,-92.43zm289.61 7.06l0 -11.77c0,-82.6 -72.8,-155.4 -155.4,-155.4 -40.44,0 -70.84,10.26 -98.61,30.9 -79.74,59.28 -86.27,174.08 -18.62,241.73 5.17,5.17 9.73,8.13 15.42,12.83 5.73,4.73 11.32,8.56 18,12.61 67.67,41.14 159.49,20.92 207.29,-42.73 15.37,-20.48 31.92,-53.79 31.92,-88.17z"/>
   <path class="fil0" d="M513.28 235.45c0,-33.93 -5.22,-58.86 7.07,-58.86l270.76 0 0 65.92 -270.76 0c-5.43,0 -7.07,-1.63 -7.07,-7.06zm-28.25 -61.22c0,53.92 -11.77,98.89 40.03,98.89l254.28 0c52.42,0 42.39,-42.06 42.39,-91.82 0,-20.96 -14.37,-35.32 -35.32,-35.32l-270.77 0c-13.27,0 -30.61,14.96 -30.61,28.25z"/>
   <path class="fil0" d="M42.38 228.39c11.23,21.22 44.84,19.03 57.87,33.95 7.96,9.11 22.46,93.66 39.83,51.98l19.17 -51.47c9.42,-11.49 57.36,-19.55 57.36,-34.46 0,-10.08 -17.97,-13.81 -26.71,-18.03 -43.15,-20.86 -26.59,-6.54 -43.23,-48.59 -1.85,-4.68 -13.96,-52.53 -27.08,-18.64 -1.97,5.1 -4.44,11.65 -6.3,17.25 -2.35,7.08 -9.46,29.53 -13.02,34.07 -4.2,5.35 -36.01,18.27 -45.91,22.37 -10.45,4.31 -6.92,2.01 -11.98,11.57z"/>
   <path class="fil0" d="M240.16 65.93c0,11.45 -4.19,9.04 16.44,18.88 28.21,13.46 22.12,2.85 35.02,37.97 8.8,23.98 2.5,20.53 16.82,20.85 1.28,-5.48 14.23,-41.64 16.44,-44.78 4.73,-6.77 37.44,-19.99 42.42,-21.15l0 -11.77c-5.82,-1.36 -38.51,-16.07 -41.41,-19.8 -2.45,-3.16 -16.24,-40.93 -17.45,-46.13 -18.4,0.41 -10.22,9.2 -24.35,41.57 -3.95,9.07 -14.83,11.5 -30.57,18.87 -5.4,2.53 -8.74,3.27 -13.36,5.49z"/>
   <path class="fil0" d="M1019.5 303.73c6.76,7.12 11.35,8.3 20.86,12.11 4.97,1.99 18.21,7.45 21.82,11.15 9.19,9.44 9.83,39.27 20.89,47.38 20.19,-5.39 8.63,-42.51 32.5,-52.27 13.43,-5.49 33.43,-11.55 33.43,-20.72 0,-11.06 -30.64,-14.46 -40.54,-23.03 -4.32,-3.73 -16.59,-40.17 -18.32,-47.61 -26.53,0.59 -9.23,38.19 -35.95,51.17 -19.06,9.27 -26.75,6.83 -34.69,21.82z"/>
   <path class="fil0" d="M82.41 687.52l0 94.18c0,28.41 49.44,35.84 49.44,-4.71l0 -84.76c0,-40.56 -49.44,-33.12 -49.44,-4.71z"/>
   <path class="fil0" d="M638.07 875.88c0,23.46 22.61,44.74 40.03,44.74 15.48,0 25.85,-0.04 39.57,-14.59 16,-16.99 16,-43.32 0,-60.3 -18.71,-19.85 -48.65,-19.85 -67.37,0 -6,6.37 -12.23,18.74 -12.23,30.15z"/>
   <path class="fil0" d="M948.87 51.8c0,63.53 68.66,61.36 83.17,21.89 12.63,-34.33 -19.01,-67.2 -53.83,-56.24 -12.32,3.88 -29.34,19.76 -29.34,34.35z"/>
   <path class="fil0" d="M82.41 598.05c0,49.81 49.44,38.22 49.44,4.7 0,-40.55 -49.44,-33.11 -49.44,-4.7z"/>
   <path class="fil0" d="M28.25 87.12c0,35.15 37.68,24.67 37.68,4.71 0,-28.37 -37.68,-22.05 -37.68,-4.71z"/>
  </g>
 </g>
</svg>
