<?xml version="1.0" encoding="UTF-8"?>
<!DOCTYPE svg PUBLIC "-//W3C//DTD SVG 1.1//EN" "http://www.w3.org/Graphics/SVG/1.1/DTD/svg11.dtd">
<!-- Creator: CorelDRAW 2021 (64-Bit) -->
<svg xmlns="http://www.w3.org/2000/svg" xml:space="preserve" width="1639px" height="561px" version="1.1" style="shape-rendering:geometricPrecision; text-rendering:geometricPrecision; image-rendering:optimizeQuality; fill-rule:evenodd; clip-rule:evenodd"
viewBox="0 0 1639 560.76"
 xmlns:xlink="http://www.w3.org/1999/xlink"
 xmlns:xodm="http://www.corel.com/coreldraw/odm/2003">
 <defs>
  <style type="text/css">
   <![CDATA[
    .fil0 {fill:#444444}
   ]]>
  </style>
 </defs>
 <g id="Layer_x0020_1">
  <metadata id="CorelCorpID_0Corel-Layer"/>
  <path class="fil0" d="M0 487.15c17.64,8.89 38.51,4.34 54.42,18.36 18.49,16.28 10.82,35.43 21.5,55.25 9.77,-18.57 2.75,-37.04 20.01,-54.2 12.13,-12.06 36.71,-14.08 56.09,-17.81 -17.98,-9.78 -38.86,-4.13 -55.86,-19.91 -18.26,-16.94 -10.16,-38.21 -20.24,-56.79 -9.21,17.59 -2.57,39.41 -18.88,55.66 -13.68,13.63 -34.98,13.8 -57.04,19.44zm212.43 0c17.64,8.89 38.51,4.34 54.42,18.36 18.49,16.28 10.82,35.43 21.5,55.25 9.77,-18.57 2.75,-37.04 20.01,-54.2 12.13,-12.06 36.72,-14.08 56.09,-17.81 -17.98,-9.78 -38.86,-4.13 -55.86,-19.91 -18.26,-16.94 -10.16,-38.21 -20.24,-56.79 -9.2,17.59 -2.57,39.41 -18.88,55.66 -13.68,13.63 -34.98,13.8 -57.04,19.44zm211.73 0c17.64,8.89 38.51,4.34 54.42,18.36 18.49,16.28 10.82,35.43 21.5,55.25 9.77,-18.57 2.75,-37.04 20.01,-54.2 12.13,-12.06 36.71,-14.08 56.09,-17.81 -17.98,-9.78 -38.86,-4.13 -55.86,-19.91 -18.26,-16.94 -10.16,-38.21 -20.24,-56.79 -9.21,17.59 -2.57,39.41 -18.88,55.66 -13.68,13.63 -34.98,13.8 -57.04,19.44zm213.12 0c17.64,8.89 38.51,4.34 54.42,18.36 18.49,16.28 10.82,35.43 21.5,55.25 9.76,-18.57 2.74,-37.04 20.01,-54.2 12.13,-12.06 36.71,-14.08 56.09,-17.81 -17.98,-9.78 -38.87,-4.13 -55.86,-19.91 -18.26,-16.94 -10.16,-38.21 -20.24,-56.79 -9.21,17.59 -2.57,39.41 -18.88,55.66 -13.68,13.63 -34.98,13.8 -57.04,19.44zm212.42 0c17.64,8.89 38.51,4.34 54.42,18.36 18.49,16.28 10.82,35.43 21.5,55.25 9.77,-18.57 2.75,-37.04 20.01,-54.2 12.14,-12.06 36.72,-14.08 56.09,-17.81 -17.98,-9.78 -38.86,-4.13 -55.86,-19.91 -18.26,-16.94 -10.16,-38.21 -20.24,-56.79 -9.2,17.59 -2.57,39.41 -18.88,55.66 -13.68,13.63 -34.98,13.8 -57.04,19.44zm212.43 0c17.65,8.89 38.51,4.34 54.42,18.36 18.49,16.28 10.82,35.43 21.51,55.25 9.76,-18.57 2.74,-37.04 20,-54.2 12.14,-12.06 36.72,-14.08 56.09,-17.81 -17.98,-9.78 -38.86,-4.13 -55.86,-19.91 -18.26,-16.94 -10.16,-38.21 -20.23,-56.79 -9.21,17.59 -2.58,39.41 -18.88,55.66 -13.69,13.63 -34.99,13.8 -57.05,19.44zm211.73 0c17.64,8.89 38.51,4.34 54.42,18.36 18.49,16.28 10.82,35.43 21.5,55.25 9.77,-18.57 2.75,-37.04 20.01,-54.2 12.14,-12.06 36.72,-14.08 56.09,-17.81 -17.98,-9.78 -38.86,-4.13 -55.86,-19.91 -18.26,-16.94 -10.16,-38.21 -20.24,-56.79 -9.2,17.59 -2.57,39.41 -18.88,55.66 -13.68,13.63 -34.98,13.8 -57.04,19.44zm213.12 0c17.64,8.89 38.51,4.34 54.42,18.36 18.49,16.28 10.82,35.43 21.5,55.25 9.77,-18.57 2.75,-37.04 20.01,-54.2 12.13,-12.06 36.71,-14.08 56.09,-17.81 -17.98,-9.78 -38.86,-4.13 -55.86,-19.91 -18.26,-16.94 -10.16,-38.21 -20.24,-56.79 -9.21,17.59 -2.57,39.41 -18.88,55.66 -13.68,13.63 -34.98,13.8 -57.04,19.44zm-1486.98 -206.02c17.64,8.89 38.51,4.34 54.42,18.36 18.49,16.28 10.82,35.43 21.5,55.25 9.77,-18.57 2.75,-37.04 20.01,-54.2 12.13,-12.06 36.71,-14.08 56.09,-17.81 -17.98,-9.78 -38.86,-4.13 -55.86,-19.91 -18.26,-16.94 -10.16,-38.21 -20.24,-56.79 -9.21,17.59 -2.57,39.41 -18.88,55.66 -13.68,13.63 -34.98,13.8 -57.04,19.44zm212.43 0c17.64,8.89 38.51,4.34 54.42,18.36 18.49,16.28 10.82,35.43 21.5,55.25 9.77,-18.57 2.75,-37.04 20.01,-54.2 12.13,-12.06 36.72,-14.08 56.09,-17.81 -17.98,-9.78 -38.86,-4.13 -55.86,-19.91 -18.26,-16.94 -10.16,-38.21 -20.24,-56.79 -9.2,17.59 -2.57,39.41 -18.88,55.66 -13.68,13.63 -34.98,13.8 -57.04,19.44zm211.73 0c17.64,8.89 38.51,4.34 54.42,18.36 18.49,16.28 10.82,35.43 21.5,55.25 9.77,-18.57 2.75,-37.04 20.01,-54.2 12.13,-12.06 36.71,-14.08 56.09,-17.81 -17.98,-9.78 -38.86,-4.13 -55.86,-19.91 -18.26,-16.94 -10.16,-38.21 -20.24,-56.79 -9.21,17.59 -2.57,39.41 -18.88,55.66 -13.68,13.63 -34.98,13.8 -57.04,19.44zm213.12 0c17.64,8.89 38.51,4.34 54.42,18.36 18.49,16.28 10.82,35.43 21.5,55.25 9.76,-18.57 2.74,-37.04 20.01,-54.2 12.13,-12.06 36.71,-14.08 56.09,-17.81 -17.98,-9.78 -38.87,-4.13 -55.86,-19.91 -18.26,-16.94 -10.16,-38.21 -20.24,-56.79 -9.21,17.59 -2.57,39.41 -18.88,55.66 -13.68,13.63 -34.98,13.8 -57.04,19.44zm212.42 0c17.64,8.89 38.51,4.34 54.42,18.36 18.49,16.28 10.82,35.43 21.5,55.25 9.77,-18.57 2.75,-37.04 20.01,-54.2 12.14,-12.06 36.72,-14.08 56.09,-17.81 -17.98,-9.78 -38.86,-4.13 -55.86,-19.91 -18.26,-16.94 -10.16,-38.21 -20.24,-56.79 -9.2,17.59 -2.57,39.41 -18.88,55.66 -13.68,13.63 -34.98,13.8 -57.04,19.44zm212.43 0c17.65,8.89 38.51,4.34 54.42,18.36 18.49,16.28 10.82,35.43 21.51,55.25 9.76,-18.57 2.74,-37.04 20,-54.2 12.14,-12.06 36.72,-14.08 56.09,-17.81 -17.98,-9.78 -38.86,-4.13 -55.86,-19.91 -18.26,-16.94 -10.16,-38.21 -20.23,-56.79 -9.21,17.59 -2.58,39.41 -18.88,55.66 -13.69,13.63 -34.99,13.8 -57.05,19.44zm211.73 0c17.64,8.89 38.51,4.34 54.42,18.36 18.49,16.28 10.82,35.43 21.5,55.25 9.77,-18.57 2.75,-37.04 20.01,-54.2 12.14,-12.06 36.72,-14.08 56.09,-17.81 -17.98,-9.78 -38.86,-4.13 -55.86,-19.91 -18.26,-16.94 -10.16,-38.21 -20.24,-56.79 -9.2,17.59 -2.57,39.41 -18.88,55.66 -13.68,13.63 -34.98,13.8 -57.04,19.44zm213.12 0c17.64,8.89 38.51,4.34 54.42,18.36 18.49,16.28 10.82,35.43 21.5,55.25 9.77,-18.57 2.75,-37.04 20.01,-54.2 12.13,-12.06 36.71,-14.08 56.09,-17.81 -17.98,-9.78 -38.86,-4.13 -55.86,-19.91 -18.26,-16.94 -10.16,-38.21 -20.24,-56.79 -9.21,17.59 -2.57,39.41 -18.88,55.66 -13.68,13.63 -34.98,13.8 -57.04,19.44zm-1486.98 -206.02c17.64,8.88 38.51,4.33 54.42,18.35 18.49,16.29 10.82,35.43 21.5,55.25 9.77,-18.57 2.75,-37.04 20.01,-54.19 12.13,-12.06 36.71,-14.09 56.09,-17.81 -17.98,-9.78 -38.86,-4.14 -55.86,-19.91 -18.26,-16.94 -10.16,-38.22 -20.24,-56.8 -9.21,17.59 -2.57,39.42 -18.88,55.66 -13.68,13.63 -34.98,13.81 -57.04,19.45zm212.43 0c17.64,8.88 38.51,4.33 54.42,18.35 18.49,16.29 10.82,35.43 21.5,55.25 9.77,-18.57 2.75,-37.04 20.01,-54.19 12.13,-12.06 36.72,-14.09 56.09,-17.81 -17.98,-9.78 -38.86,-4.14 -55.86,-19.91 -18.26,-16.94 -10.16,-38.22 -20.24,-56.8 -9.2,17.59 -2.57,39.42 -18.88,55.66 -13.68,13.63 -34.98,13.81 -57.04,19.45zm211.73 0c17.64,8.88 38.51,4.33 54.42,18.35 18.49,16.29 10.82,35.43 21.5,55.25 9.77,-18.57 2.75,-37.04 20.01,-54.19 12.13,-12.06 36.71,-14.09 56.09,-17.81 -17.98,-9.78 -38.86,-4.14 -55.86,-19.91 -18.26,-16.94 -10.16,-38.22 -20.24,-56.8 -9.21,17.59 -2.57,39.42 -18.88,55.66 -13.68,13.63 -34.98,13.81 -57.04,19.45zm213.12 0c17.64,8.88 38.51,4.33 54.42,18.35 18.49,16.29 10.82,35.43 21.5,55.25 9.76,-18.57 2.74,-37.04 20.01,-54.19 12.13,-12.06 36.71,-14.09 56.09,-17.81 -17.98,-9.78 -38.87,-4.14 -55.86,-19.91 -18.26,-16.94 -10.16,-38.22 -20.24,-56.8 -9.21,17.59 -2.57,39.42 -18.88,55.66 -13.68,13.63 -34.98,13.81 -57.04,19.45zm212.42 0c17.64,8.88 38.51,4.33 54.42,18.35 18.49,16.29 10.82,35.43 21.5,55.25 9.77,-18.57 2.75,-37.04 20.01,-54.19 12.14,-12.06 36.72,-14.09 56.09,-17.81 -17.98,-9.78 -38.86,-4.14 -55.86,-19.91 -18.26,-16.94 -10.16,-38.22 -20.24,-56.8 -9.2,17.59 -2.57,39.42 -18.88,55.66 -13.68,13.63 -34.98,13.81 -57.04,19.45zm212.43 0c17.65,8.88 38.51,4.33 54.42,18.35 18.49,16.29 10.82,35.43 21.51,55.25 9.76,-18.57 2.74,-37.04 20,-54.19 12.14,-12.06 36.72,-14.09 56.09,-17.81 -17.98,-9.78 -38.86,-4.14 -55.86,-19.91 -18.26,-16.94 -10.16,-38.22 -20.23,-56.8 -9.21,17.59 -2.58,39.42 -18.88,55.66 -13.69,13.63 -34.99,13.81 -57.05,19.45zm211.73 0c17.64,8.88 38.51,4.33 54.42,18.35 18.49,16.29 10.82,35.43 21.5,55.25 9.77,-18.57 2.75,-37.04 20.01,-54.19 12.14,-12.06 36.72,-14.09 56.09,-17.81 -17.98,-9.78 -38.86,-4.14 -55.86,-19.91 -18.26,-16.94 -10.16,-38.22 -20.24,-56.8 -9.2,17.59 -2.57,39.42 -18.88,55.66 -13.68,13.63 -34.98,13.81 -57.04,19.45zm213.12 0c17.64,8.88 38.51,4.33 54.42,18.35 18.49,16.29 10.82,35.43 21.5,55.25 9.77,-18.57 2.75,-37.04 20.01,-54.19 12.13,-12.06 36.71,-14.09 56.09,-17.81 -17.98,-9.78 -38.86,-4.14 -55.86,-19.91 -18.26,-16.94 -10.16,-38.22 -20.24,-56.8 -9.21,17.59 -2.57,39.42 -18.88,55.66 -13.68,13.63 -34.98,13.81 -57.04,19.45z"/>
 </g>
</svg>
