<?xml version="1.0" encoding="UTF-8"?>
<!DOCTYPE svg PUBLIC "-//W3C//DTD SVG 1.1//EN" "http://www.w3.org/Graphics/SVG/1.1/DTD/svg11.dtd">
<!-- Creator: CorelDRAW 2021 (64-Bit) -->
<svg xmlns="http://www.w3.org/2000/svg" xml:space="preserve" width="1250px" height="1240px" version="1.1" style="shape-rendering:geometricPrecision; text-rendering:geometricPrecision; image-rendering:optimizeQuality; fill-rule:evenodd; clip-rule:evenodd"
viewBox="0 0 1250 1240.24"
 xmlns:xlink="http://www.w3.org/1999/xlink"
 xmlns:xodm="http://www.corel.com/coreldraw/odm/2003">
 <defs>
  <style type="text/css">
   <![CDATA[
    .fil0 {fill:#454545}
   ]]>
  </style>
 </defs>
 <g id="Layer_x0020_1">
  <metadata id="CorelCorpID_0Corel-Layer"/>
  <g id="_2173985642496">
   <path class="fil0" d="M278.32 1125.49l0 -51.27c9.66,-0.22 27.31,-6.47 34.18,-9.77 0,25.76 -2.87,54.1 6.44,71.69 8.21,15.49 25.18,30.85 47.27,30.85l529.79 0c21.42,0 38.55,-14.61 47,-28.67 9.62,-16.02 6.7,-44.21 6.7,-68.98 11.85,2.76 19.31,7.32 34.19,7.32l0 51.27c0,38.35 -34.9,73.24 -73.25,73.24l-561.52 0c-18.92,0 -39.58,-13.4 -49.53,-23.71 -11.14,-11.54 -21.27,-30.24 -21.27,-51.97zm971.68 -285.56l0 25.53c-1.7,31.12 -9.59,61.95 -23.57,89.97 -37.92,75.98 -116.49,126.11 -203.48,126.11l0 36.62c0,78.44 -55.74,122.08 -131.84,122.08l-522.46 0c-39.43,0 -66.12,-11.11 -88.29,-28.9 -44.16,-35.45 -38.66,-84.06 -38.66,-129.8l-17.09 0c-125.67,0 -216.4,-101.29 -224.61,-213.14l0 -33.22c3.09,-41.21 17.77,-82.64 46.34,-119.89 13.63,-17.77 24.63,-29.33 42.54,-42.92 15.84,-12.01 36.08,-23.1 54.78,-30.67 27.39,-11.07 58.9,-16.7 98.04,-16.7l0 -36.62c-53,0 -91.55,-14.76 -130.38,-40.52l-31.45 -24.7c-59.71,-57.19 -86.17,-159.38 -53.06,-242.45 37.67,-94.53 58.64,-43.85 58.64,-36.57 0,9.43 -4.95,13.47 -9.3,20 -28.65,42.99 -31.87,109.13 -15.46,158.57 8.84,26.64 24.18,51.53 43.63,71.11 17.19,17.31 42.39,35.34 68.06,44.25 28.73,9.98 62.28,15.98 97.69,10.32 17.1,-2.73 29.27,-6.96 43.5,-12.65 16.62,-6.64 22.59,-11.16 36.07,-20.08 53.8,-35.59 80.05,-95.34 80.05,-161.65 0,-95.85 -87.26,-183.11 -183.11,-183.11 -79.87,0 -95.41,27.96 -116.5,32.42 -11.74,2.48 -45.91,-16.98 0.95,-42.99 21.43,-11.89 44.03,-18.76 68.88,-23.9 7.61,-1.57 33.32,-4.4 41.79,-4.59l0 -26.86c0,-29.4 22.79,-63.64 40.05,-77.14 22.44,-17.54 48.1,-27.84 86.9,-27.84l522.46 0c84.49,0 131.84,47.83 131.84,131.84 50.81,1.13 106.67,19.81 144.59,53.16l28.2 27.95c42.21,48.37 54.26,94.33 54.26,160.59 0,108.72 -102.17,214.84 -227.05,214.84l0 36.62c67.78,0 129.03,30.96 172.79,81.11 13.77,15.78 23.64,29.94 33.14,49.87 12.53,26.26 19.54,54.93 21.12,83.95zm-1213.38 14.56c0,-102.86 85.02,-190.43 183.11,-190.43 64,0 105.52,18.91 143.45,56.74 61.43,61.26 72.2,163.76 22.6,238.71 -5.53,8.37 -13.15,18.65 -20.13,26.26 -28.3,30.9 -81.34,56.71 -126.39,56.71 -56.92,0 -77.82,-4.87 -125.04,-36.1 -40.76,-26.95 -77.6,-89.24 -77.6,-151.89zm275.88 -278.32l0 65.92c-10.43,-2.43 -22.08,-8.76 -34.18,-9.77 0,-5.86 -0.56,-40.75 0.46,-43.47 4.03,-10.67 13.42,-2.94 33.72,-12.68zm637.2 61.04l0 -61.04c11.85,2.76 19.31,7.33 34.19,7.33l0 46.39c-11.29,0.25 -23.97,4.94 -34.19,7.32zm-117.18 -273.44c0,-103.09 81.37,-192.87 183.1,-192.87 62.65,0 107.13,19.64 143.49,56.71 6.94,7.07 14.99,17.38 20.62,25.77 52.2,77.76 42.62,176.15 -21.89,240.4 -36.32,36.16 -77.14,54.44 -133.12,56.59 -62.47,2.4 -120.84,-31.2 -155.97,-78.79 -20.72,-28.06 -36.23,-70.05 -36.23,-107.81zm-36.62 -14.65c0,60.63 7.32,91.19 39.05,139.17 14.9,22.53 33.99,42.79 56.6,58.15 28.99,19.69 21.53,-7.3 21.53,102.97 0,5.27 -29.42,24.79 -40.1,33.14 -13.05,10.2 -44.42,37.79 -29.53,56.03 16.94,20.74 38.53,-12.91 45.82,-20.2 118.01,-118.02 324.11,-32.24 324.11,133.67 0,105.68 -90.32,190.43 -175.78,190.43 -42.83,0 -59.79,0.67 -100.13,-19.5 -70.11,-35.06 -111.99,-107.03 -102.54,-195.38 0.68,-6.37 15.39,-46.35 -14.62,-46.35 -27.02,0 -24.41,61.17 -24.41,85.45 0,72.38 43.56,133.36 95.88,172.67 26.76,20.11 21.3,-4.64 21.3,69.03 0,8.92 -6.73,19.53 -14.64,19.53l-534.67 0c-5.87,0 -7.18,-3.96 -12.21,-7.32l0 -78.13c20.45,-5.46 57.15,-51.27 69.38,-69.78 50.42,-76.33 42.5,-186.83 -14.23,-258.8 -14.72,-18.68 -18.77,-21.97 -36.36,-36.88 -5.3,-4.5 -18.79,-11.25 -18.79,-17.84 0,-120.32 -7.23,-92.02 20.98,-113.3 67.05,-50.58 104.84,-127.87 93.17,-218.13 -1.13,-8.76 -4.53,-22.2 -7.18,-31.88 -9.62,-35.19 -34.28,-73.13 -59.93,-98.76 -8.66,-8.65 -35.34,-30.41 -47.04,-33.53l0 -43.95 7.85 -6.8 75.16 -0.52c2.49,29.94 23.7,51.27 56.15,51.27l280.76 0c31.53,0 55.47,-20.43 56.16,-51.27l70.8 0c18.01,0 14.64,32.27 14.64,43.94 0,8.49 -13.13,12.59 -19.54,17.07 -39.22,27.4 -68.21,65.19 -85.1,110.22 -6.04,16.13 -12.54,44.13 -12.54,65.58zm-483.4 -205.07c-10.21,-2.39 -22.9,-7.08 -34.18,-7.33 0,-29.28 -1.12,-50.74 21.27,-73.94 9.95,-10.32 30.61,-23.72 49.53,-23.72l561.52 0c38.43,0 73.25,34.65 73.25,73.25l0 24.41c-14.74,0.33 -21.47,6.27 -34.19,7.33 0,-24.67 -0.45,-35.15 -11.76,-49.28 -23.54,-29.37 -60.12,-21.53 -107.86,-21.53 -16.18,0 -26.71,7.48 -33.64,17.64 -7.78,11.4 -2.85,33.63 -17.63,33.63l-295.41 0c-14,0 -5.76,-13.85 -16.17,-32.66 -14.72,-26.62 -59.51,-18.61 -101.02,-18.61 -37.07,0 -53.71,31.89 -53.71,70.81z"/>
   <path class="fil0" d="M634.77 747.07c-69.77,0 -73,-34.18 -104.99,-34.18 -13.93,0 -18.6,6.23 -31.74,7.32 13.95,-29.04 17.33,-41.16 10.37,-68.95 -30.75,-122.86 122.19,-212.5 213.73,-120.96 79.39,79.38 20.33,216.77 -87.37,216.77zm-168.46 -126.95c0,32.15 11.26,45.85 6.64,60.12 -9.85,30.38 -28.3,55.44 -12.01,74.64 16.55,19.52 51.96,3.57 68.84,-5.37 23.6,15.8 46.61,31.66 80.7,34.06 68.2,4.79 117.73,-17.9 156.51,-70.29 40.63,-54.87 38.08,-134.37 -2.81,-190.84 -92.57,-127.85 -297.87,-59.86 -297.87,97.68z"/>
   <path class="fil0" d="M317.38 449.22l-153.81 0c-5.69,0 -12.2,-6.52 -12.2,-12.21l0 -153.81c0,-7.89 8.86,-12.2 17.09,-12.2l144.04 0c11.4,0 17.09,5.69 17.09,17.09l0 144.04c0,8.23 -4.32,17.09 -12.21,17.09zm-205.07 -158.69l0 144.04c0,27.47 26.24,53.71 53.7,53.71l144.05 0c38.51,0 58.59,-27.3 58.59,-65.92l0 -124.51c0,-45.52 -26.77,-65.92 -70.8,-65.92l-119.63 0c-38.31,0 -65.91,19.87 -65.91,58.6z"/>
   <path class="fil0" d="M161.13 930.18c8.82,-7.67 29.3,-12.05 29.3,-26.86 0,-30.68 -61.04,-15.78 -61.04,-97.66 35.68,23.89 46.44,26.86 87.89,26.86 5.72,0 11.24,-6.33 13.1,-11.31 3.36,-8.95 -4.88,-44.84 28.41,-44.84 16.69,0 31.63,28.75 61.03,14.64 -6.32,27.17 -15.41,12.67 -23.44,49.81 -4.34,20.08 -14.31,37.39 -24.99,50.69 -25.7,32.01 -69.17,38.67 -110.26,38.67zm34.18 -136.72c-43.32,-0.97 -45.96,-36.62 -75.68,-36.62 -31.71,0 -42.52,86.31 1.53,132.74l2.41 2.48c0.35,0.36 0.88,0.85 1.24,1.2 4.38,4.37 3.16,1.85 7.03,7.62 -42.18,0.94 -37.22,49.11 -0.37,61.4 32.82,10.95 72.54,6.08 103.84,-4.32 45.15,-14.99 75.57,-44.86 92.15,-90.95 11.61,-32.26 0.17,-14.34 18.79,-42.24 15.68,-23.48 30.09,-75.26 -16.66,-75.26 -11.74,0 -6.68,4.89 -21.97,4.89 -19.76,0 -6.9,-14.65 -56.16,-14.65 -27.55,0 -53.99,27.82 -56.15,53.71z"/>
   <path class="fil0" d="M991.21 908.2l0 -104.98c15.64,8.28 80.32,48.6 90.33,51.27 -4.42,6.04 -78.33,47.37 -90.33,53.71zm-39.06 -124.51l0 144.05c0,14.97 10.7,26.85 29.29,26.85 8.45,0 118.93,-65.03 136.71,-75.69 12.51,-7.51 12.22,-13.7 12.22,-26.85 0,-16.88 -19.27,-22.55 -31.27,-29.77 -19.72,-11.85 -109.56,-65.44 -120.1,-65.44 -14.26,0 -26.85,12.59 -26.85,26.85z"/>
   <path class="fil0" d="M988.77 280.76l0 56.16 -29.3 0c-25.15,0 -24.3,36.62 0,36.62l29.3 0 0 114.74c0,25.16 36.62,24.3 36.62,0l0 -114.74c15.27,0 48.53,5.45 47.48,-19.12 -0.94,-22.25 -23.81,-17.5 -47.48,-17.5 0,-84.89 -5.52,-68.13 58.74,-70.66 29.36,-1.15 26.67,-36.77 2.3,-36.77l-46.39 0c-26.57,0 -51.27,24.71 -51.27,51.27z"/>
   <path class="fil0" d="M222.17 361.33c0,-20.1 34.18,-26.35 34.18,0 0,24.3 -34.18,20.41 -34.18,0zm-36.62 -4.88c0,59.83 62.6,74.31 93.48,42.21 36.89,-38.35 5.94,-93.48 -39.77,-93.48 -26.59,0 -53.71,24.63 -53.71,51.27z"/>
   <path class="fil0" d="M571.29 595.7c0,23.27 -0.35,38.97 29.12,56.33 23.15,13.64 53.31,36.86 86.28,7.8 43.03,-37.92 6.11,-49.48 1.78,-49.48 -26.96,0 -12.48,43.94 -62.46,13.65 -34.23,-20.75 -11.02,-29.66 -9.77,-48.25 1.99,-29.64 -44.95,-26.76 -44.95,19.95z"/>
   <path class="fil0" d="M612.79 80.57c0,22.75 36.62,31.8 36.62,-2.44 0,-19.39 -36.62,-19.99 -36.62,2.44z"/>
  </g>
 </g>
</svg>
