<?xml version="1.0" encoding="utf-8"?>
<!-- Generator: Adobe Illustrator 25.4.1, SVG Export Plug-In . SVG Version: 6.00 Build 0)  -->
<svg version="1.1" id="Layer_1" xmlns="http://www.w3.org/2000/svg" xmlns:xlink="http://www.w3.org/1999/xlink" x="0px" y="0px"
	 viewBox="0 0 48 49" style="enable-background:new 0 0 48 49;" xml:space="preserve">
<style type="text/css">
	.st0{fill:#FFFFF4;fill-opacity:0.2;}
	.st1{fill:#FFFFF4;}
</style>
<path class="st0" d="M10,0.4h28c5.5,0,10,4.5,10,10v28c0,5.5-4.5,10-10,10H10c-5.5,0-10-4.5-10-10v-28C0,4.9,4.5,0.4,10,0.4z"/>
<path class="st1" d="M33.9,17.7c-2.6-0.6-4.6-2.8-4.8-5.4v-0.6h-4.4v17.5c0,2-1.7,3.7-3.7,3.7c-1.2,0-2.2-0.5-2.9-1.5l0,0l0,0
	c-1.2-1.6-0.9-3.9,0.7-5.2c1-0.7,2.2-0.9,3.4-0.6v-4.5c-4.4-0.6-8.5,2.5-9.1,6.9c-0.3,2.5,0.5,5,2.2,6.8c3.1,3.2,8.2,3.3,11.4,0.1
	c1.6-1.5,2.4-3.6,2.4-5.8v-8.9c1.8,1.3,3.9,2,6.1,1.9v-4.4C34.7,17.8,34.3,17.8,33.9,17.7z"/>
</svg>
