<?xml version="1.0" encoding="UTF-8"?>
<!DOCTYPE svg PUBLIC "-//W3C//DTD SVG 1.1//EN" "http://www.w3.org/Graphics/SVG/1.1/DTD/svg11.dtd">
<!-- Creator: CorelDRAW 2021 (64-Bit) -->
<svg xmlns="http://www.w3.org/2000/svg" xml:space="preserve" width="1033px" height="1196px" version="1.1" style="shape-rendering:geometricPrecision; text-rendering:geometricPrecision; image-rendering:optimizeQuality; fill-rule:evenodd; clip-rule:evenodd"
viewBox="0 0 1033 1196.41"
 xmlns:xlink="http://www.w3.org/1999/xlink"
 xmlns:xodm="http://www.corel.com/coreldraw/odm/2003">
 <defs>
  <style type="text/css">
   <![CDATA[
    .fil0 {fill:#454545}
   ]]>
  </style>
 </defs>
 <g id="Layer_x0020_1">
  <metadata id="CorelCorpID_0Corel-Layer"/>
  <g id="_2173961299456">
   <path class="fil0" d="M119.19 1111.98l0 -312.87 874.08 0 0 312.87c0,23.17 -16.17,42.22 -39.73,42.22l-794.62 0c-23.56,0 -39.73,-19.05 -39.73,-42.22zm0 -432.07c31.52,-0.7 50.86,-11.48 74.5,-27.31l102.41 103.69 -176.91 0.6 0 -76.98zm111.75 -79.46c35.35,0 71.8,-0.9 106.98,-0.21 16.38,0.33 13.22,2.46 31.45,20.7 21.85,21.85 127.49,125.16 134.71,135.95l-129.2 0.08c-26.52,0.32 -19.01,-0.54 -48.96,-30.5 -15.94,-15.93 -94.51,-96.7 -104.92,-103.67 3.73,-7.05 7.95,-13.82 9.94,-22.35zm595.96 0c34.76,0 69.53,0.02 104.29,0 24.54,-0.02 62.08,-4.02 62.08,44.7l0 111.74c-20.01,0 -26.45,-15.27 -47.8,-36.63l-118.57 -119.81zm-208.59 0c38.07,0 76.15,0.03 114.23,0 43.02,-0.03 26.73,-6.79 73.87,40.35 17.44,17.45 107.5,105.12 114.85,116.09l-141.62 0.08c-12.84,-1.36 -36.82,-30.77 -46.49,-40.43 -17.44,-17.45 -107.49,-105.12 -114.84,-116.09zm-208.59 0c38.08,0 76.15,0.03 114.23,0 33.41,-0.02 30.03,-4.04 45.34,11.78 24.55,25.36 135.01,132.16 143.38,144.66l-141.62 0.08c-12.84,-1.36 -36.82,-30.77 -46.48,-40.43 -17.44,-17.45 -107.5,-105.12 -114.85,-116.09zm-290.53 37.25c-21.45,0 -40.32,-9.12 -54.05,-22.92 -7.2,-7.24 -12.3,-12.82 -17.2,-22.54 -39.49,-78.19 66.62,-149.13 127.83,-88.1 46.91,46.78 13.83,133.56 -56.58,133.56zm-62.08 -243.35c0,-7.73 2.57,-17.38 12.42,-17.38l156.08 59.95c7.81,3.12 16.15,6.72 24.9,9.86 8.17,2.94 20.15,5.34 25.12,12.13 -8.74,0.73 -21.54,7.91 -30.48,11.73 -9.2,3.93 -22.83,11.06 -31.6,13.1 -7.68,-5.14 -10.89,-10.61 -18.08,-16.68 -39.39,-33.28 -75.57,-30.56 -118.49,-20.57 -3.14,-13.44 -19.87,-42.1 -19.87,-52.14zm69.53 -44.7c13.75,-3.2 128.5,-57.11 134.09,-57.11 2.57,0 91.62,35.65 101.81,39.73 10.65,4.26 94.34,38.9 104.3,39.73 -4.22,5.76 -32.06,16.35 -39.78,19.82l-83.33 35.93c-9.67,4.22 -10.65,7.13 -20.53,3.75 -29.79,-10.16 -176.74,-72.27 -196.56,-76.88l0 -4.97zm325.3 -139.06c8.31,0 131.73,50.22 156.08,59.95 7.81,3.12 16.14,6.73 24.9,9.87 8.17,2.93 20.14,5.33 25.12,12.13 -18.35,4.27 -130.68,57.11 -134.09,57.11 -17.71,0 -180.05,-72.81 -208.59,-79.46l136.58 -59.6zm57.11 -27.31c13.18,-3.07 99.87,-43.36 125.19,-53.8 13.46,-5.55 23.87,2.17 42.95,9.81 29.25,11.73 57.56,22.54 85.5,33.7l86.55 32.64c-4.06,5.54 -11.94,7.43 -19.02,10.77l-104.09 44.97c-19.04,8.34 -12.36,6.77 -43.61,-5.73l-173.47 -72.36zm332.74 -141.54c17.16,0 26.88,35.46 36.54,57.82 20.77,48.11 32.06,55.74 25.55,83.72l-102.17 -39.38c-17.62,-7.08 -34.66,-13.36 -51.79,-20.22 -15.09,-6.04 -36.39,-16.19 -52.15,-19.86 7.22,-6.28 23.4,-12.16 33.35,-16.32 13.4,-5.62 24.19,-10.51 36.22,-15.92 12.12,-5.46 23.77,-10.18 36.52,-15.63 9.28,-3.97 28.55,-14.21 37.93,-14.21zm-826.89 350.13c0,18.12 18.9,58.59 27.31,74.49 -10.71,16 -42.21,33.64 -42.21,94.36 0,28.85 11.44,53.02 24.07,70.29 16.27,22.25 31.26,28.68 55.39,41.45 0,43.89 -2.78,432.98 0.54,456.36 5.44,38.23 40.95,67.59 86.37,67.59l779.72 0c47.92,0 86.91,-34.03 86.91,-76.98l0 -489.18c0,-35.22 -35.64,-72.01 -81.95,-72.01l-712.66 0c0,-26.43 -3.71,-22.1 -4.97,-37.25l229.87 -100.39c76.27,-31.94 450.32,-192.78 463.61,-204.36 43.81,-38.18 9.18,-88.73 -16.43,-146.34 -16.77,-37.74 -34.44,-92.97 -105.09,-59.61 -11.48,5.42 -21.12,9.61 -32.76,14.42 -43.05,17.77 -86.77,38.75 -129.84,56.4 -63.11,25.87 -132.1,59.18 -195.45,85.14l-294.22 127.92c-31.82,14.15 -112.2,42.86 -125.43,63.3 -4.97,7.68 -12.78,22.7 -12.78,34.4z"/>
   <path class="fil0" d="M546.3 858.7c36.54,0 72.79,7.14 96.91,37.18 31.64,39.37 41.51,80.29 20.57,129.97 -4.4,10.43 -16.35,29 -23.81,35.79 -59.01,53.69 -156.53,38.72 -189.75,-32.36 -22.63,-48.43 -13.77,-91.66 17.97,-131.98 13.75,-17.48 48.14,-38.6 78.11,-38.6zm-148.99 114.23c0,48.1 11.27,74.41 38.95,107.55 16.33,19.54 31.28,29.52 55.36,41.48 28.21,14.02 65.29,17.8 97.48,10.48 40.64,-9.23 69.45,-29.03 94.17,-59.79 48.15,-59.91 41.37,-153.56 -14.67,-209.61 -38.64,-38.64 -91.66,-52.69 -145.4,-42.33 -52.17,10.06 -88.16,41.56 -111.03,87.61 -8.19,16.49 -14.86,39.9 -14.86,64.61z"/>
   <path class="fil0" d="M536.36 1007.69l0 -62.08c12.89,6.82 46.06,22.67 57.12,32.28 -10.05,2.34 -45.71,23.77 -57.12,29.8zm-39.73 -101.81l0 136.58c0,41.72 54.9,3.6 57.1,2.47l52.96 -29c25.01,-13.89 48.87,-22.05 48.87,-40.52 0,-17.76 -22.85,-23.88 -45.49,-36.46l-70.4 -38.86c-14.4,-7.87 -8.21,-9.11 -28.14,-9.11 -5.98,0 -14.9,8.92 -14.9,14.9z"/>
   <path class="fil0" d="M747.44 352.13c0,57.28 -7.27,72.02 24.82,72.02 4.56,0 10.02,-4.96 11.98,-7.89 5.04,-7.5 5.41,-54.32 5.41,-69.09 0,-26.96 -42.21,-33.96 -42.21,4.96z"/>
   <path class="fil0" d="M849.24 324.82c0,0.15 22.98,74.49 39.74,74.49 41.64,0 20.98,-34.44 9.08,-61.23 -5.36,-12.08 -11.03,-33.13 -26.47,-33.13 -11.07,0 -22.35,10.06 -22.35,19.87z"/>
   <path class="fil0" d="M933.67 265.22c0,15.08 28.77,34.97 43.92,47.96 6.64,5.69 9.21,11.64 20.65,11.64 16.84,0 19.86,-11.91 19.86,-24.83 0,-8.75 -54.19,-54.63 -59.6,-54.63 -12.92,0 -24.83,3.01 -24.83,19.86z"/>
  </g>
 </g>
</svg>
