<?xml version="1.0" encoding="utf-8"?>
<!-- Generator: Adobe Illustrator 25.4.1, SVG Export Plug-In . SVG Version: 6.00 Build 0)  -->
<svg version="1.1" id="Layer_1" xmlns="http://www.w3.org/2000/svg" xmlns:xlink="http://www.w3.org/1999/xlink" x="0px" y="0px"
	 viewBox="0 0 49 49" style="enable-background:new 0 0 49 49;" xml:space="preserve">
<style type="text/css">
	.st0{fill:#FFFFFF;fill-opacity:0.2;}
	.st1{fill:#FFFFF4;}
</style>
<path class="st0" d="M10.2,0.4h28c5.5,0,10,4.5,10,10v28c0,5.5-4.5,10-10,10h-28c-5.5,0-10-4.5-10-10v-28C0.2,4.9,4.7,0.4,10.2,0.4z
	"/>
<g>
	<g id="XMLID_00000025402403841899991450000008345905822426154898_">
		<path id="XMLID_00000172406889013917212100000013460742201705616256_" class="st1" d="M30.5,26.4c0,0-1.9-0.9-2.2-1
			c-0.1,0-0.3-0.1-0.4-0.1c-0.2,0-0.5,0.1-0.6,0.4c-0.2,0.3-0.7,0.9-0.9,1.1c0,0-0.1,0.1-0.1,0.1c0,0-0.3-0.1-0.4-0.2
			c-2-0.8-3.4-2.9-3.6-3.2c0,0,0-0.1,0-0.1c0,0,0.1-0.1,0.1-0.1c0.1-0.1,0.2-0.2,0.3-0.4c0-0.1,0.1-0.1,0.1-0.2
			c0.2-0.2,0.2-0.3,0.3-0.5l0-0.1c0.2-0.4,0-0.7,0-0.8c0-0.1-0.8-1.9-0.9-2.1c-0.2-0.5-0.5-0.7-0.8-0.7c0,0,0,0-0.1,0
			c-0.2,0-1.1,0.1-1.5,0.4c-0.4,0.3-1.2,1.2-1.2,2.7c0,1.4,0.9,2.7,1.3,3.2c0,0,0,0,0.1,0.1c1.4,2.1,3.3,3.7,5.1,4.4
			C26.7,30,27.6,30,28,30c0,0,0,0,0,0c0.2,0,0.4,0,0.5,0l0.1,0c0.6-0.1,1.9-0.7,2.3-1.6c0.2-0.7,0.3-1.4,0.1-1.7
			C30.9,26.6,30.7,26.5,30.5,26.4z"/>
		<path id="XMLID_00000021827745050650017330000013271255273596874396_" class="st1" d="M24.7,12c-6.8,0-12.3,5.5-12.3,12.2
			c0,2.2,0.6,4.3,1.7,6.2L12,36.6c0,0.1,0,0.2,0.1,0.3c0.1,0.1,0.1,0.1,0.2,0.1c0,0,0.1,0,0.1,0l6.5-2.1c1.8,0.9,3.8,1.4,5.8,1.4
			c6.8,0,12.3-5.5,12.3-12.2C37,17.5,31.5,12,24.7,12z M24.7,33.8c-1.9,0-3.8-0.6-5.3-1.6c-0.1,0-0.1-0.1-0.2-0.1c0,0-0.1,0-0.1,0
			l-3.2,1l1-3.1c0-0.1,0-0.2,0-0.3c-1.2-1.7-1.9-3.6-1.9-5.7c0-5.3,4.4-9.6,9.7-9.6c5.4,0,9.7,4.3,9.7,9.6
			C34.4,29.5,30.1,33.8,24.7,33.8z"/>
	</g>
</g>
</svg>
